<svg width="26" height="24" viewBox="0 0 26 24" fill="none" xmlns="http://www.w3.org/2000/svg">
<path d="M8 0H18C20.1217 0 22.1566 0.842855 23.6569 2.34315C25.1571 3.84344 26 5.87827 26 8V16C26 18.1217 25.1571 20.1566 23.6569 21.6569C22.1566 23.1571 20.1217 24 18 24H8C5.87827 24 3.84344 23.1571 2.34315 21.6569C0.842855 20.1566 0 18.1217 0 16V8C0 5.87827 0.842855 3.84344 2.34315 2.34315C3.84344 0.842855 5.87827 0 8 0Z" fill="#D41F30"/>
<path d="M12.798 4.95312C11.4042 4.95313 10.0418 5.36642 8.88291 6.14076C7.72403 6.91509 6.8208 8.01568 6.28743 9.30335C5.75406 10.591 5.61451 12.0079 5.88642 13.3749C6.15833 14.7419 6.82949 15.9976 7.81503 16.9831C8.80057 17.9686 10.0562 18.6398 11.4232 18.9117C12.7902 19.1836 14.2071 19.0441 15.4948 18.5107C16.7825 17.9773 17.883 17.0741 18.6574 15.9152C19.4317 14.7564 19.845 13.3939 19.845 12.0001C19.845 10.1311 19.1026 8.33871 17.781 7.01714C16.4594 5.69557 14.667 4.95313 12.798 4.95312ZM12.798 17.7261C11.6655 17.7261 10.5585 17.3903 9.61682 16.7611C8.67518 16.1319 7.94126 15.2377 7.50788 14.1914C7.07449 13.1451 6.96109 11.9938 7.18203 10.883C7.40297 9.7723 7.94832 8.75203 8.74912 7.95123C9.54991 7.15044 10.5702 6.60509 11.6809 6.38415C12.7917 6.16321 13.943 6.2766 14.9893 6.70999C16.0355 7.14338 16.9298 7.87729 17.559 8.81893C18.1882 9.76057 18.524 10.8676 18.524 12.0001C18.524 13.5188 17.9207 14.9752 16.8469 16.049C15.7731 17.1229 14.3166 17.7261 12.798 17.7261ZM12.798 8.04413C12.298 8.04413 11.911 8.30713 11.911 8.73312V12.6331C11.911 13.0591 12.293 13.3211 12.798 13.3211C13.303 13.3211 13.685 13.0471 13.685 12.6331V8.73312C13.685 8.31712 13.29 8.04413 12.798 8.04413ZM12.798 14.2031C12.6239 14.2029 12.4537 14.2544 12.3088 14.3509C12.164 14.4475 12.051 14.5849 11.9843 14.7457C11.9175 14.9065 11.9 15.0834 11.9338 15.2542C11.9676 15.425 12.0514 15.5819 12.1744 15.705C12.2974 15.8282 12.4542 15.9121 12.625 15.9461C12.7957 15.9802 12.9727 15.9628 13.1335 15.8962C13.2944 15.8297 13.4319 15.7169 13.5286 15.5721C13.6254 15.4274 13.677 15.2572 13.677 15.0831C13.677 14.85 13.5846 14.6264 13.42 14.4612C13.2555 14.2961 13.0321 14.2029 12.799 14.2021L12.798 14.2031Z" fill="white"/>
</svg>
