<svg width="19" height="19" viewBox="0 0 19 19" fill="none" xmlns="http://www.w3.org/2000/svg">
<path d="M12.1722 5.15991C12.1027 5.03323 11.9999 4.92797 11.8749 4.85557C11.7499 4.78317 11.6075 4.74638 11.463 4.74917C11.3186 4.75196 11.1777 4.79425 11.0555 4.87143C10.9334 4.94861 10.8347 5.05775 10.7702 5.18701L7.4861 11.754L6.03638 9.11791C5.96817 8.99368 5.86786 8.89004 5.74592 8.81783C5.62397 8.74562 5.48487 8.70748 5.34315 8.7074H3.95797C3.74809 8.7074 3.54681 8.79076 3.3984 8.93917C3.25 9.08757 3.16663 9.28886 3.16663 9.49873C3.16663 9.70861 3.25 9.90989 3.3984 10.0583C3.54681 10.2067 3.74809 10.2901 3.95797 10.2901H4.87582L6.82772 13.8376C6.89718 13.9643 6.99999 14.0695 7.125 14.1419C7.25002 14.2143 7.39246 14.2511 7.5369 14.2483C7.68134 14.2455 7.82226 14.2032 7.94439 14.1261C8.06651 14.0489 8.16518 13.9397 8.22968 13.8105L11.5125 7.24476L12.9622 9.88086C13.0304 10.0051 13.1308 10.1087 13.2527 10.1809C13.3747 10.2532 13.5138 10.2913 13.6555 10.2914H15.0407C15.2505 10.2914 15.4518 10.208 15.6002 10.0596C15.7486 9.91119 15.832 9.70991 15.832 9.50003C15.832 9.29016 15.7486 9.08888 15.6002 8.94047C15.4518 8.79206 15.2505 8.70868 15.0407 8.70868H14.1228L12.1722 5.15991Z" fill="#A3A3A3"/>
<path fill-rule="evenodd" clip-rule="evenodd" d="M0 9.5C0 17.3231 1.67822 19 9.5 19C17.3218 19 19 17.3218 19 9.5C19 1.67822 17.3231 0 9.5 0C1.67693 0 0 1.67822 0 9.5ZM1.58269 9.5C1.54249 10.9883 1.65845 12.4767 1.92866 13.9408C2.05149 14.7306 2.40082 15.4679 2.9343 16.0631C3.52954 16.5966 4.26677 16.9459 5.0566 17.0688C6.52071 17.339 8.00912 17.4549 9.49742 17.4147C10.9857 17.4549 12.4741 17.339 13.9382 17.0688C14.7281 16.9459 15.4653 16.5966 16.0605 16.0631C16.594 15.4679 16.9433 14.7306 17.0662 13.9408C17.3364 12.4767 17.4523 10.9883 17.4121 9.5C17.4523 8.0117 17.3364 6.52329 17.0662 5.05918C16.9433 4.26935 16.594 3.53212 16.0605 2.93688C15.4665 2.4036 14.7307 2.05386 13.9421 1.92995C12.478 1.65974 10.9896 1.54379 9.50129 1.58398C8.01299 1.54379 6.52458 1.65974 5.06047 1.92995C4.27064 2.05278 3.53341 2.40211 2.93817 2.93559C2.40469 3.53083 2.05536 4.26806 1.93253 5.05789C1.66094 6.52229 1.54368 8.01114 1.58269 9.5Z" fill="#A3A3A3"/>
</svg>
