<svg width="26" height="24" viewBox="0 0 26 24" fill="none" xmlns="http://www.w3.org/2000/svg">
<path d="M8 0H18C20.1217 0 22.1566 0.842855 23.6569 2.34315C25.1571 3.84344 26 5.87827 26 8V16C26 18.1217 25.1571 20.1566 23.6569 21.6569C22.1566 23.1571 20.1217 24 18 24H8C5.87827 24 3.84344 23.1571 2.34315 21.6569C0.842855 20.1566 0 18.1217 0 16V8C0 5.87827 0.842855 3.84344 2.34315 2.34315C3.84344 0.842855 5.87827 0 8 0Z" fill="#595BB5"/>
<path d="M16.0056 7.41088C15.9361 7.28421 15.8333 7.17895 15.7083 7.10655C15.5833 7.03414 15.4408 6.99735 15.2964 7.00015C15.1519 7.00294 15.011 7.04522 14.8889 7.1224C14.7668 7.19959 14.6681 7.30872 14.6036 7.43799L11.3195 14.005L9.86975 11.3689C9.80155 11.2447 9.70124 11.141 9.57929 11.0688C9.45735 10.9966 9.31825 10.9585 9.17652 10.9584H7.79134C7.58147 10.9584 7.38018 11.0417 7.23178 11.1901C7.08337 11.3386 7 11.5398 7 11.7497C7 11.9596 7.08337 12.1609 7.23178 12.3093C7.38018 12.4577 7.58147 12.5411 7.79134 12.5411H8.7092L10.6611 16.0886C10.7306 16.2152 10.8334 16.3205 10.9584 16.3929C11.0834 16.4653 11.2258 16.5021 11.3703 16.4993C11.5147 16.4965 11.6556 16.4542 11.7778 16.377C11.8999 16.2999 11.9986 16.1907 12.0631 16.0615L15.3459 9.49573L16.7956 12.1318C16.8638 12.2561 16.9641 12.3597 17.0861 12.4319C17.208 12.5041 17.3471 12.5423 17.4889 12.5423H18.874C19.0839 12.5423 19.2852 12.459 19.4336 12.3106C19.582 12.1622 19.6654 11.9609 19.6654 11.751C19.6654 11.5411 19.582 11.3399 19.4336 11.1914C19.2852 11.043 19.0839 10.9597 18.874 10.9597H17.9562L16.0056 7.41088Z" fill="white"/>
</svg>
