<svg width="22" height="22" viewBox="0 0 22 22" fill="none" xmlns="http://www.w3.org/2000/svg">
<path d="M9.78587 15.1499V18.3684C9.78587 20.1385 8.33745 21.5869 6.56739 21.5869H3.34891C1.57885 21.5869 0.130432 20.1385 0.130432 18.3684V15.1499C0.130432 13.3799 1.57885 11.9315 3.34891 11.9315H6.56739C8.33745 11.9315 9.78587 13.3799 9.78587 15.1499ZM9.78587 3.34885V6.56733C9.78587 8.33739 8.33745 9.78581 6.56739 9.78581H3.34891C1.57885 9.78581 0.130432 8.33739 0.130432 6.56733V3.34885C0.130432 1.57879 1.57885 0.130371 3.34891 0.130371H6.56739C8.33745 0.130371 9.78587 1.57879 9.78587 3.34885ZM21.587 15.1499V18.3684C21.587 20.1385 20.1385 21.5869 18.3685 21.5869H15.15C13.3799 21.5869 11.9315 20.1385 11.9315 18.3684V15.1499C11.9315 13.3799 13.3799 11.9315 15.15 11.9315H18.3685C20.1385 11.9315 21.587 13.3799 21.587 15.1499ZM21.587 3.34885V6.56733C21.587 8.33739 20.1385 9.78581 18.3685 9.78581H15.15C13.3799 9.78581 11.9315 8.33739 11.9315 6.56733V3.34885C11.9315 1.57879 13.3799 0.130371 15.15 0.130371H18.3685C20.1385 0.130371 21.587 1.57879 21.587 3.34885Z" fill="#595BB5"/>
</svg>
