<svg width="131" height="131" viewBox="0 0 131 131" fill="none" xmlns="http://www.w3.org/2000/svg">
<g clip-path="url(#clip0_248_4065)">
<path d="M105.368 128.151C113.232 128.151 119.607 121.777 119.607 113.913C119.607 106.049 113.232 99.6738 105.368 99.6738C97.5042 99.6738 91.1293 106.049 91.1293 113.913C91.1293 121.777 97.5042 128.151 105.368 128.151Z" fill="#455A64"/>
<path d="M48.4122 128.151C56.2761 128.151 62.6511 121.777 62.6511 113.913C62.6511 106.049 56.2761 99.6738 48.4122 99.6738C40.5483 99.6738 34.1734 106.049 34.1734 113.913C34.1734 121.777 40.5483 128.151 48.4122 128.151Z" fill="#455A64"/>
<path d="M130.286 20.898C130.019 20.5953 129.69 20.3529 129.322 20.1869C128.954 20.021 128.554 19.9353 128.15 19.9355H25.6301C24.0573 19.9353 22.7819 21.2098 22.7816 22.7826C22.7816 22.974 22.8009 23.1652 22.8393 23.3529L34.2305 80.3085C34.3619 80.9517 34.7114 81.5297 35.2199 81.9449C35.7285 82.36 36.3648 82.5867 37.0213 82.5866C37.1465 82.5949 37.272 82.5949 37.3972 82.5866L122.831 71.1954C123.455 71.112 124.034 70.8242 124.477 70.377C124.92 69.9297 125.202 69.3482 125.28 68.7234L130.975 23.1588C131.029 22.7546 130.995 22.3435 130.876 21.9535C130.757 21.5634 130.556 21.2035 130.286 20.898Z" fill="#FFC107"/>
<path d="M48.4122 71.1958C47.7382 71.1955 47.086 70.9561 46.5719 70.5202C46.0578 70.0843 45.7149 69.4801 45.6044 68.8151L39.9089 34.6417C39.6977 33.0831 40.79 31.6486 42.3486 31.4375C43.0676 31.34 43.7967 31.5208 44.387 31.9427C44.9773 32.3646 45.3843 32.996 45.5248 33.7078L51.2203 67.8812C51.4774 69.4319 50.4298 70.8976 48.8794 71.1563C48.7251 71.1827 48.5689 71.1961 48.4122 71.1958ZM62.6513 68.3479C61.9384 68.3508 61.2503 68.0862 60.723 67.6064C60.1957 67.1265 59.8676 66.4664 59.8034 65.7564L56.9556 34.4308C56.8082 32.865 57.9581 31.4762 59.5242 31.3288L59.5471 31.3267C61.1135 31.1849 62.4981 32.3401 62.6398 33.9065L65.4877 65.2323C65.6292 66.7986 64.4743 68.1832 62.9079 68.325H62.9076L62.6513 68.3479ZM76.8901 65.5001C75.3174 65.5001 74.0423 64.225 74.0423 62.6522V34.1745C74.0423 32.6018 75.3174 31.3267 76.8901 31.3267C78.4629 31.3267 79.738 32.6018 79.738 34.1745V62.6525C79.738 64.2252 78.4629 65.5001 76.8901 65.5001ZM91.129 62.6525H90.8099C89.246 62.4869 88.1124 61.0848 88.2779 59.5205L88.2811 59.4914L91.129 33.8614C91.3137 32.295 92.721 31.1667 94.29 31.3269C95.8532 31.4999 96.9804 32.9072 96.8076 34.4706L93.9598 60.1009C93.8865 60.8008 93.5568 61.4488 93.0341 61.92C92.5113 62.3911 91.8327 62.6521 91.129 62.6525ZM105.368 59.8046C104.935 59.8045 104.509 59.7058 104.12 59.5161C103.731 59.3264 103.391 59.0506 103.124 58.7097C102.858 58.3688 102.673 57.9717 102.583 57.5485C102.493 57.1254 102.501 56.6874 102.606 56.2676L108.301 33.4855C108.646 31.9511 110.17 30.9871 111.705 31.3323C113.239 31.6775 114.203 33.2014 113.858 34.7357C113.848 34.7787 113.837 34.8214 113.826 34.8639L108.13 57.6461C107.977 58.2624 107.621 58.8097 107.121 59.2008C106.62 59.5919 106.003 59.8044 105.368 59.8046Z" fill="#FAFAFA"/>
<path d="M116.759 93.9779H51.0265C41.5332 93.956 33.3645 87.2607 31.4793 77.9562L17.5993 8.54438H2.84787C1.27509 8.54438 0 7.26928 0 5.6965C0 4.12373 1.27509 2.84863 2.84787 2.84863H19.9346C20.5911 2.84848 21.2274 3.07516 21.736 3.4903C22.2445 3.90544 22.594 4.48355 22.7253 5.12677L37.0667 76.834C38.4109 83.4808 44.2452 88.2653 51.0265 88.2821H116.759C118.332 88.2821 119.607 89.5572 119.607 91.13C119.607 92.7028 118.332 93.9779 116.759 93.9779Z" fill="#455A64"/>
</g>
<defs>
<clipPath id="clip0_248_4065">
<rect width="131" height="131" fill="white"/>
</clipPath>
</defs>
</svg>
