<svg width="176" height="176" viewBox="0 0 176 176" fill="none" xmlns="http://www.w3.org/2000/svg">
<g clip-path="url(#clip0_178_7351)">
<path d="M141.171 131.16L7.91218 175.689C6.85282 176.045 5.71521 176.098 4.62732 175.842C3.53943 175.587 2.54443 175.033 1.75424 174.242C0.964054 173.452 0.410027 172.457 0.154483 171.369C-0.101061 170.281 -0.0479821 169.144 0.307748 168.084L44.8398 34.8293L141.171 131.16Z" fill="#FDC70E"/>
<path d="M141.169 131.17C141.169 131.17 121.544 126.722 85.4336 90.5757C50.2804 55.4559 45.0898 35.8653 44.842 34.8468V34.811C44.842 34.811 64.503 39.2539 100.626 75.3772C136.75 111.501 141.169 131.17 141.169 131.17Z" fill="#D39518"/>
<path d="M55.0562 159.933L35.3065 166.524C31.1586 162.826 26.7446 158.679 22.0322 153.966C17.3197 149.252 13.173 144.839 9.47449 140.692L16.065 120.944C21.0793 127.004 27.194 133.771 34.712 141.291C42.23 148.812 49.0003 154.922 55.0562 159.933Z" fill="#2167D8"/>
<path d="M108.811 141.974L87.602 149.043C75.9365 140.665 65.026 131.282 54.9951 121.003C44.7157 110.972 35.333 100.061 26.9543 88.3958L34.0253 67.1875C43.5521 82.1964 54.8477 96.0064 67.6692 108.321C79.9833 121.142 93.7933 132.438 108.802 141.964L108.811 141.974Z" fill="#D3374E"/>
<path d="M73.1731 60.8815C72.5831 60.8814 72.0064 60.7064 71.5159 60.3785C71.0254 60.0506 70.6431 59.5847 70.4174 59.0396C70.1917 58.4945 70.1328 57.8947 70.248 57.316C70.3632 56.7374 70.6474 56.2059 71.0646 55.7888C76.896 50.2861 80.7471 43.0117 82.0197 35.0956C83.2922 27.1794 81.9151 19.0646 78.1022 12.0115C77.8743 11.6753 77.7174 11.2962 77.6412 10.8973C77.565 10.4983 77.571 10.0881 77.659 9.69156C77.7469 9.29507 77.9149 8.92071 78.1526 8.59142C78.3903 8.26214 78.6928 7.98486 79.0415 7.77659C79.3901 7.56832 79.7776 7.43344 80.1803 7.38022C80.5829 7.327 80.9922 7.35655 81.383 7.46707C81.7738 7.57759 82.1379 7.76674 82.453 8.02295C82.7681 8.27915 83.0276 8.597 83.2156 8.95703C87.6885 17.1577 89.3351 26.6036 87.9008 35.8341C86.4665 45.0645 82.0311 53.5653 75.2805 60.0219C75.0031 60.2972 74.674 60.5149 74.3121 60.6624C73.9502 60.8099 73.5639 60.8844 73.1731 60.8815Z" fill="#2167D8"/>
<path d="M68.183 30.9271C67.3922 30.927 66.6338 30.6129 66.0745 30.0538L61.0798 25.0625C60.7968 24.7866 60.5715 24.4573 60.4168 24.0936C60.2622 23.73 60.1813 23.3393 60.1789 22.9441C60.1765 22.5489 60.2526 22.1572 60.4027 21.7917C60.5529 21.4262 60.7742 21.0941 61.0537 20.8148C61.3333 20.5355 61.6655 20.3145 62.0312 20.1646C62.3968 20.0147 62.7886 19.939 63.1837 19.9417C63.5789 19.9445 63.9696 20.0257 64.3331 20.1806C64.6966 20.3356 65.0257 20.5612 65.3014 20.8443L70.2926 25.8356C70.7099 26.2527 70.9941 26.7842 71.1093 27.3628C71.2245 27.9415 71.1655 28.5413 70.9398 29.0864C70.7141 29.6315 70.3318 30.0974 69.8413 30.4253C69.3508 30.7531 68.7741 30.9282 68.1841 30.9283L68.183 30.9271Z" fill="#23AF6F"/>
<path d="M103.123 25.9405C102.332 25.9405 101.573 25.6262 101.014 25.0667C100.454 24.5073 100.14 23.7486 100.14 22.9574V17.9662C100.14 17.175 100.454 16.4163 101.014 15.8569C101.573 15.2974 102.332 14.9832 103.123 14.9832C103.914 14.9832 104.673 15.2974 105.232 15.8569C105.792 16.4163 106.106 17.175 106.106 17.9662V22.9574C106.106 23.7486 105.792 24.5073 105.232 25.0667C104.673 25.6262 103.914 25.9405 103.123 25.9405Z" fill="#D3374E"/>
<path d="M108.121 45.9089H103.123C102.332 45.9089 101.573 45.5946 101.014 45.0352C100.454 44.4758 100.14 43.717 100.14 42.9259C100.14 42.1347 100.454 41.376 101.014 40.8166C101.573 40.2572 102.332 39.9429 103.123 39.9429H108.121C108.912 39.9429 109.671 40.2572 110.231 40.8166C110.79 41.376 111.104 42.1347 111.104 42.9259C111.104 43.717 110.79 44.4758 110.231 45.0352C109.671 45.5946 108.912 45.9089 108.121 45.9089Z" fill="#23AF6F"/>
<path d="M118.099 105.81C117.509 105.81 116.933 105.635 116.442 105.307C115.952 104.979 115.569 104.513 115.344 103.968C115.118 103.423 115.059 102.823 115.174 102.245C115.289 101.666 115.574 101.135 115.991 100.717C122.448 93.9663 130.949 89.5307 140.18 88.0963C149.411 86.662 158.858 88.3089 167.059 92.7823C167.71 93.2014 168.173 93.8574 168.35 94.6116C168.526 95.3657 168.402 96.1589 168.004 96.8234C167.606 97.4879 166.965 97.9715 166.217 98.1721C165.469 98.3726 164.672 98.2743 163.995 97.898C156.959 94.0153 148.826 92.5989 140.892 93.8742C132.957 95.1496 125.677 99.0435 120.212 104.936C119.935 105.213 119.606 105.433 119.243 105.583C118.88 105.733 118.492 105.81 118.099 105.81Z" fill="#2167D8"/>
<path d="M153.043 115.791C152.252 115.792 151.494 115.478 150.934 114.92L145.941 109.927C145.654 109.652 145.424 109.323 145.266 108.958C145.108 108.594 145.025 108.201 145.02 107.804C145.016 107.407 145.091 107.013 145.241 106.645C145.391 106.277 145.613 105.943 145.894 105.662C146.175 105.381 146.509 105.159 146.877 105.009C147.245 104.859 147.639 104.784 148.036 104.789C148.434 104.793 148.826 104.877 149.191 105.035C149.555 105.193 149.884 105.422 150.159 105.71L155.152 110.701C155.57 111.118 155.854 111.649 155.969 112.228C156.084 112.807 156.025 113.407 155.8 113.952C155.574 114.497 155.192 114.963 154.701 115.291C154.211 115.618 153.634 115.793 153.044 115.794L153.043 115.791Z" fill="#23AF6F"/>
<path d="M158.031 75.8601H153.047C152.256 75.8601 151.497 75.5458 150.938 74.9864C150.379 74.4269 150.064 73.6682 150.064 72.8771C150.064 72.0859 150.379 71.3272 150.938 70.7677C151.497 70.2083 152.256 69.894 153.047 69.894H158.035C158.826 69.894 159.585 70.2083 160.144 70.7677C160.704 71.3272 161.018 72.0859 161.018 72.8771C161.018 73.6682 160.704 74.4269 160.144 74.9864C159.585 75.5458 158.826 75.8601 158.035 75.8601H158.031Z" fill="#D3374E"/>
<path d="M133.072 75.8588C132.281 75.8588 131.522 75.5445 130.963 74.9851C130.403 74.4256 130.089 73.6669 130.089 72.8758V67.8822C130.089 67.091 130.403 66.3323 130.963 65.7729C131.522 65.2135 132.281 64.8992 133.072 64.8992C133.863 64.8992 134.622 65.2135 135.181 65.7729C135.741 66.3323 136.055 67.091 136.055 67.8822V72.8758C136.055 73.6669 135.741 74.4256 135.181 74.9851C134.622 75.5445 133.863 75.8588 133.072 75.8588Z" fill="#D3374E"/>
<path d="M108.118 65.8752C107.528 65.8751 106.951 65.7 106.461 65.3722C105.97 65.0443 105.588 64.5784 105.362 64.0333C105.136 63.4882 105.077 62.8884 105.193 62.3097C105.308 61.7311 105.592 61.1996 106.009 60.7825C107.269 59.5602 108.779 58.6263 110.436 58.0453C112.092 57.4644 113.855 57.2504 115.602 57.4181H115.668C116.623 57.6048 117.61 57.5527 118.54 57.2666C119.47 56.9805 120.315 56.4691 121.001 55.7779C121.686 55.0867 122.19 54.2371 122.468 53.3044C122.746 52.3717 122.789 51.3848 122.594 50.4313C122.401 48.6817 122.604 46.9111 123.187 45.2503C123.77 43.5895 124.718 42.0809 125.963 40.8359C127.207 39.5909 128.715 38.6412 130.375 38.0571C132.036 37.473 133.806 37.2693 135.556 37.4611C136.52 37.6557 137.518 37.6088 138.46 37.3245C139.402 37.0402 140.259 36.5273 140.955 35.8316C141.651 35.1358 142.163 34.2788 142.448 33.3369C142.732 32.3949 142.779 31.3972 142.584 30.4328C142.418 28.6845 142.634 26.921 143.216 25.2641C143.798 23.6072 144.733 22.0965 145.956 20.8362C146.23 20.5455 146.56 20.3128 146.926 20.1522C147.292 19.9915 147.687 19.906 148.087 19.9009C148.486 19.8957 148.883 19.971 149.253 20.1222C149.623 20.2734 149.959 20.4974 150.241 20.781C150.523 21.0646 150.745 21.4019 150.894 21.7729C151.042 22.1439 151.115 22.5411 151.107 22.9408C151.1 23.3405 151.012 23.7346 150.849 24.0997C150.686 24.4647 150.451 24.7933 150.159 25.0659C149.495 25.7765 149.003 26.6302 148.721 27.5612C148.439 28.4921 148.375 29.4754 148.533 30.4351C148.725 32.1857 148.522 33.9572 147.938 35.6188C147.354 37.2804 146.405 38.7895 145.159 40.0349C143.914 41.2802 142.405 42.23 140.743 42.8139C139.082 43.3978 137.31 43.6011 135.559 43.4087C134.598 43.2153 133.603 43.2628 132.664 43.547C131.725 43.8313 130.872 44.3434 130.179 45.0378C129.486 45.7322 128.975 46.5872 128.693 47.5266C128.411 48.4661 128.366 49.4608 128.561 50.422C128.73 52.1694 128.516 53.9326 127.935 55.5891C127.354 57.2457 126.42 58.756 125.197 60.0152C123.932 61.2302 122.421 62.1594 120.766 62.7399C119.111 63.3203 117.35 63.5385 115.604 63.3795H115.534C114.586 63.2227 113.615 63.2867 112.696 63.5664C111.777 63.8462 110.934 64.3342 110.234 64.9926C109.957 65.2705 109.628 65.491 109.266 65.6414C108.903 65.7919 108.515 65.8694 108.122 65.8694L108.118 65.8752Z" fill="#FDC70E"/>
<path d="M118.103 30.9304C117.612 30.9307 117.129 30.8101 116.697 30.5794C116.264 30.3486 115.895 30.0148 115.622 29.6074C115.35 29.2 115.181 28.7316 115.133 28.2438C115.084 27.7559 115.156 27.2635 115.343 26.8102C116.927 23.2894 117.757 19.4759 117.779 15.615C117.8 11.7542 117.014 7.93164 115.469 4.39327C115.28 4.04747 115.162 3.66774 115.12 3.27597C115.079 2.8842 115.116 2.48815 115.229 2.11067C115.341 1.73319 115.528 1.38174 115.777 1.0766C116.026 0.771457 116.333 0.518662 116.68 0.332795C117.028 0.146927 117.408 0.031666 117.8 -0.00634133C118.192 -0.0443486 118.588 -0.00434952 118.965 0.111349C119.341 0.227047 119.691 0.416155 119.994 0.667764C120.297 0.919374 120.548 1.22851 120.731 1.57733C122.69 5.89424 123.714 10.5765 123.736 15.3171C123.759 20.0576 122.779 24.7494 120.861 29.0846C120.635 29.6306 120.253 30.0973 119.761 30.4255C119.27 30.7537 118.692 30.9287 118.101 30.9281L118.103 30.9304Z" fill="#D3374E"/>
<path d="M148.049 60.8826C147.358 60.8833 146.688 60.644 146.154 60.2055C145.619 59.767 145.254 59.1566 145.12 58.4785C144.986 57.8005 145.091 57.0969 145.418 56.4879C145.745 55.879 146.274 55.4026 146.913 55.1401C151.248 53.2201 155.941 52.2392 160.682 52.2619C165.424 52.2845 170.107 53.3102 174.424 55.2715C174.77 55.4564 175.075 55.7077 175.324 56.0109C175.573 56.3141 175.759 56.6633 175.873 57.0386C175.987 57.4138 176.025 57.8078 175.987 58.198C175.948 58.5882 175.833 58.967 175.648 59.3127C175.463 59.6585 175.212 59.9644 174.909 60.213C174.605 60.4617 174.256 60.6482 173.881 60.7618C173.506 60.8755 173.112 60.9142 172.721 60.8756C172.331 60.837 171.952 60.7219 171.607 60.5369C168.068 58.9906 164.244 58.2028 160.383 58.2245C156.521 58.2461 152.706 59.0766 149.185 60.6625C148.825 60.8102 148.439 60.8861 148.049 60.8861V60.8826Z" fill="#D3374E"/>
</g>
<defs>
<clipPath id="clip0_178_7351">
<rect width="176" height="176" fill="white"/>
</clipPath>
</defs>
</svg>
