<svg width="26" height="24" viewBox="0 0 26 24" fill="none" xmlns="http://www.w3.org/2000/svg">
<path d="M8 0H18C20.1217 0 22.1566 0.842855 23.6569 2.34315C25.1571 3.84344 26 5.87827 26 8V16C26 18.1217 25.1571 20.1566 23.6569 21.6569C22.1566 23.1571 20.1217 24 18 24H8C5.87827 24 3.84344 23.1571 2.34315 21.6569C0.842855 20.1566 0 18.1217 0 16V8C0 5.87827 0.842855 3.84344 2.34315 2.34315C3.84344 0.842855 5.87827 0 8 0Z" fill="#3AD769"/>
<path fill-rule="evenodd" clip-rule="evenodd" d="M11.0433 8.11998H19.379L14.428 11.5239L11.0603 9.2085C11.1885 8.86418 11.1896 8.47498 11.0433 8.11998ZM8.86328 10.0956L10.0783 9.35368C10.4388 9.1335 10.5585 8.66374 10.3474 8.29706L9.25053 6.39165C9.13801 6.19615 8.96768 6.07039 8.74814 6.02068C8.52857 5.97095 8.32094 6.01109 8.13554 6.13912L6.13512 7.52042C5.18291 10.8852 9.46192 18.1699 12.7437 19L14.9367 17.9532C15.1399 17.8562 15.2784 17.6959 15.3452 17.4804C15.4121 17.2648 15.3886 17.054 15.2761 16.8585L14.1792 14.9531C13.9681 14.5864 13.5026 14.4555 13.1322 14.6586L11.884 15.3429C10.6497 14.2419 9.19684 11.7182 8.86328 10.0956ZM19.9844 8.55774L14.626 12.2418C14.5006 12.3276 14.3395 12.3209 14.223 12.2369L10.6657 9.79121C10.5972 9.85314 10.5231 9.90852 10.4443 9.95662L9.67583 10.4259C10.0796 11.7326 11.0786 13.468 12.0051 14.472L12.7946 14.0392C13.4999 13.6525 14.3868 13.9019 14.7887 14.6001L15.4689 15.7818H19.4312C19.744 15.7818 20 15.5251 20 15.2113V8.69045C20 8.64575 19.9948 8.6012 19.9844 8.55774Z" fill="white"/>
</svg>
