<svg width="149" height="149" viewBox="0 0 149 149" fill="none" xmlns="http://www.w3.org/2000/svg">
<path d="M74.39 22.23L77.06 30.511L74.39 40.432C73.234 40.4317 72.1254 39.9724 71.308 39.155C70.4906 38.3376 70.0313 37.229 70.031 36.073V26.589C70.0313 25.433 70.4906 24.3244 71.308 23.507C72.1254 22.6896 73.234 22.2302 74.39 22.23Z" fill="#FFC34D"/>
<path d="M78.7479 26.589V36.074C78.7469 37.2295 78.2872 38.3373 77.4698 39.154C76.6525 39.9708 75.5444 40.4297 74.3889 40.43V22.23C75.5449 22.2302 76.6535 22.6896 77.4709 23.507C78.2883 24.3244 78.7477 25.433 78.7479 26.589Z" fill="#FFA64D"/>
<path d="M74.39 92.0479L84.46 106.125L74.39 126.605C69.5396 126.599 64.8896 124.67 61.4599 121.24C58.0302 117.81 56.1008 113.16 56.095 108.31V98.1459C56.095 96.5281 56.7376 94.9765 57.8816 93.8325C59.0256 92.6885 60.5771 92.0459 62.195 92.0459H74.395L74.39 92.0479Z" fill="#FFC34D"/>
<path d="M92.6839 98.1458V108.31C92.6781 113.16 90.7487 117.81 87.319 121.24C83.8893 124.67 79.2393 126.599 74.3889 126.605V92.0479H86.5889C88.2055 92.0492 89.7555 92.6922 90.8983 93.8356C92.0411 94.979 92.6834 96.5292 92.6839 98.1458Z" fill="#FFA64D"/>
<path d="M74.3889 33.4531L92.6789 69.1131L74.3889 107.528H41.8649C40.2471 107.528 38.6955 106.885 37.5515 105.741C36.4076 104.597 35.7649 103.046 35.7649 101.428C35.7669 98.0996 36.1875 94.7846 37.0169 91.5611C37.8478 88.3447 39.0734 85.2435 40.6659 82.3281C42.1197 79.6493 42.884 76.6509 42.8899 73.6031V65.1831C42.889 59.5553 44.3559 54.0246 47.1459 49.1371C49.8756 44.3309 53.8411 40.3423 58.6312 37.5846C63.4214 34.8269 68.8619 33.4004 74.3889 33.4531Z" fill="#FFEA80"/>
<path d="M113.011 101.428C113.011 103.046 112.368 104.597 111.224 105.741C110.08 106.885 108.529 107.528 106.911 107.528H74.3889V33.4531C79.916 33.4006 85.3565 34.8273 90.1467 37.5851C94.9368 40.343 98.9022 44.3318 101.632 49.1381C104.422 54.0255 105.889 59.5563 105.888 65.1841V73.6081C105.895 76.6575 106.66 79.6573 108.116 82.3371C109.706 85.2501 110.93 88.3486 111.759 91.562C112.588 94.7856 113.009 98.0996 113.011 101.428Z" fill="#FFC34D"/>
<path d="M74.3889 8.718L81.0139 4.359L74.3889 0C59.6762 0.000464156 45.2941 4.36365 33.0611 12.5378C20.8281 20.712 11.2938 32.33 5.66359 45.9228C0.033421 59.5156 -1.43966 74.4727 1.43061 88.9026C4.30089 103.333 11.3856 116.587 21.7889 126.991C28.6803 133.92 36.8777 139.414 45.9065 143.154C54.9353 146.894 64.6162 148.806 74.3889 148.779L78.7329 143.026L74.3889 140.062C58.4711 140.106 43.0873 134.324 31.1389 123.807L74.3889 80.557L78.7329 71.436L74.3889 68.225L24.9729 117.64C16.6629 108.146 11.2638 96.4589 9.42145 83.9769C7.57913 71.4949 9.37159 58.7464 14.5844 47.2563C19.7973 35.7663 28.2097 26.0212 38.8156 19.1867C49.4215 12.3522 61.7717 8.71775 74.3889 8.718Z" fill="#ED524E"/>
<path d="M148.778 74.389C148.778 84.158 146.854 93.8313 143.116 102.857C139.377 111.882 133.898 120.083 126.99 126.991C120.083 133.898 111.882 139.378 102.857 143.116C93.8312 146.855 84.1579 148.779 74.3889 148.779V140.061C87.0062 140.061 99.3566 136.427 109.963 129.593C120.569 122.758 128.981 113.013 134.194 101.523C139.407 90.033 141.2 77.2845 139.357 64.8024C137.515 52.3203 132.116 40.6332 123.806 31.139L74.3889 80.556V68.223L117.639 24.973C105.691 14.4557 90.3067 8.67387 74.3889 8.718V0C84.1578 0 93.8311 1.92413 102.856 5.66253C111.882 9.40092 120.082 14.8804 126.99 21.788C133.898 28.6957 139.377 36.8963 143.115 45.9216C146.854 54.9469 148.778 64.6201 148.778 74.389Z" fill="#ED524E"/>
</svg>
