<svg width="128" height="129" viewBox="0 0 128 129" fill="none" xmlns="http://www.w3.org/2000/svg">
<path d="M119.658 64.3433C119.106 70.8964 112.277 71.9306 112.277 71.9306C118.14 72.2065 119.601 79.8976 119.601 79.8976C119.726 74.4138 127.15 71.8495 127.15 71.8495C121.589 71.5169 119.658 64.3433 119.658 64.3433Z" fill="#D7E057"/>
<path d="M127.201 71.0004C122.325 70.7091 120.496 64.1866 120.478 64.1209C120.426 63.9278 120.308 63.7593 120.144 63.6449C119.98 63.5305 119.781 63.4777 119.581 63.4956C119.382 63.5135 119.196 63.6011 119.055 63.743C118.914 63.8848 118.827 64.0718 118.811 64.2711C118.324 70.0597 112.4 71.0503 112.15 71.0894C111.942 71.1213 111.752 71.2294 111.619 71.3928C111.486 71.5563 111.419 71.7633 111.43 71.9738C111.441 72.1842 111.529 72.3831 111.679 72.5319C111.828 72.6806 112.027 72.7686 112.238 72.7787C117.353 73.0195 118.753 79.9863 118.766 80.0566C118.806 80.2626 118.921 80.4467 119.088 80.5735C119.255 80.7002 119.463 80.7608 119.673 80.7434C119.882 80.726 120.077 80.6318 120.221 80.4791C120.365 80.3263 120.447 80.1258 120.452 79.916C120.562 75.0941 127.36 72.6755 127.429 72.6517C127.615 72.5872 127.772 72.4603 127.875 72.2927C127.978 72.1251 128.019 71.9271 127.992 71.7325C127.965 71.5378 127.872 71.3585 127.727 71.225C127.583 71.0916 127.397 71.0122 127.201 71.0004ZM119.513 76.8633C118.745 75.0896 117.412 72.9492 115.214 71.8334C116.875 71.0373 118.846 69.616 119.862 67.1453C120.741 68.8856 122.242 71.0441 124.585 72.0879C122.881 73.0172 120.661 74.5847 119.513 76.8633Z" fill="#3A312A"/>
<path d="M107.361 73.9653C106.971 78.6002 102.141 79.3324 102.141 79.3324C106.288 79.5273 107.321 84.9675 107.321 84.9675C107.41 81.0891 112.661 79.2751 112.661 79.2751C108.728 79.0394 107.361 73.9653 107.361 73.9653Z" fill="#D7E057"/>
<path d="M112.712 78.4259C109.444 78.2304 108.195 73.7876 108.183 73.7428C108.131 73.5497 108.012 73.3812 107.848 73.2669C107.684 73.1525 107.485 73.0997 107.285 73.1177C107.086 73.1357 106.9 73.2234 106.759 73.3653C106.618 73.5072 106.532 73.6943 106.515 73.8936C106.187 77.7872 102.182 78.4644 102.014 78.4911C101.805 78.5223 101.616 78.6302 101.482 78.7938C101.348 78.9574 101.28 79.1649 101.291 79.3759C101.302 79.5868 101.391 79.7861 101.541 79.935C101.691 80.0838 101.891 80.1715 102.102 80.1809C105.522 80.3418 106.479 85.0793 106.488 85.1258C106.529 85.3305 106.644 85.5131 106.81 85.6387C106.977 85.7643 107.184 85.8242 107.392 85.807C107.601 85.7898 107.795 85.6967 107.939 85.5453C108.083 85.394 108.166 85.1951 108.173 84.9864C108.247 81.7512 112.894 80.0936 112.94 80.0778C113.125 80.013 113.283 79.886 113.385 79.7185C113.487 79.551 113.529 79.3532 113.502 79.1586C113.475 78.9641 113.382 78.7849 113.238 78.6513C113.094 78.5177 112.908 78.4381 112.712 78.4259ZM107.28 82.2765C106.757 81.2077 105.954 80.0398 104.76 79.2844C105.812 78.6939 106.855 77.794 107.521 76.498C108.12 77.5594 109.025 78.7393 110.321 79.4584C109.272 80.0829 108.06 81.0117 107.28 82.2765Z" fill="#3A312A"/>
<path d="M107.361 58.8584C106.971 63.4933 102.141 64.2254 102.141 64.2254C106.288 64.4204 107.321 69.8605 107.321 69.8605C107.41 65.9816 112.661 64.1682 112.661 64.1682C108.728 63.933 107.361 58.8584 107.361 58.8584Z" fill="#D7E057"/>
<path d="M112.712 63.32C109.444 63.1245 108.194 58.6812 108.183 58.6364C108.13 58.4433 108.012 58.2747 107.848 58.1604C107.684 58.0461 107.485 57.9933 107.285 58.0113C107.086 58.0293 106.9 58.1169 106.759 58.2588C106.618 58.4008 106.531 58.5878 106.515 58.7871C106.187 62.6808 102.182 63.3586 102.014 63.3852C101.806 63.4171 101.617 63.5252 101.484 63.6886C101.351 63.8521 101.283 64.0591 101.294 64.2696C101.305 64.48 101.394 64.6789 101.543 64.8277C101.692 64.9764 101.892 65.0644 102.102 65.0745C105.522 65.2354 106.479 69.9729 106.488 70.0193C106.526 70.2261 106.64 70.4111 106.808 70.5386C106.975 70.6662 107.184 70.7272 107.393 70.7098C107.603 70.6925 107.799 70.598 107.943 70.4448C108.087 70.2915 108.169 70.0902 108.173 69.8799C108.247 66.6442 112.894 64.9872 112.94 64.9713C113.126 64.907 113.284 64.7802 113.386 64.6127C113.489 64.4451 113.531 64.247 113.504 64.0522C113.477 63.8574 113.383 63.678 113.239 63.5446C113.095 63.4111 112.908 63.3317 112.712 63.32ZM107.28 67.1701C106.757 66.1019 105.954 64.9334 104.76 64.178C105.812 63.5881 106.855 62.6876 107.521 61.3916C108.12 62.4536 109.025 63.6328 110.321 64.3519C109.273 64.9764 108.06 65.9052 107.28 67.1701Z" fill="#3A312A"/>
<path d="M86.1872 8.89014H8.73079C4.3781 8.89014 0.849365 12.4189 0.849365 16.7716V119.587C0.849365 123.94 4.3781 127.468 8.73079 127.468H86.1867C90.5393 127.468 94.0681 123.94 94.0681 119.587V16.7716C94.0686 12.4189 90.5399 8.89014 86.1872 8.89014Z" fill="#87796F"/>
<path d="M86.1873 8.04004H8.73144C3.91691 8.04004 0 11.9569 0 16.7715V45.4281C-4.70471e-09 45.5397 0.0219864 45.6502 0.0647041 45.7533C0.107422 45.8565 0.170034 45.9502 0.248966 46.0291C0.327898 46.108 0.421604 46.1707 0.524734 46.2134C0.627863 46.2561 0.738397 46.2781 0.850024 46.2781C0.961651 46.2781 1.07218 46.2561 1.17531 46.2134C1.27844 46.1707 1.37215 46.108 1.45108 46.0291C1.53001 45.9502 1.59263 45.8565 1.63534 45.7533C1.67806 45.6502 1.70005 45.5397 1.70005 45.4281V16.7715C1.70005 12.8942 4.8542 9.74009 8.73144 9.74009H86.1879C90.0651 9.74009 93.2193 12.8942 93.2193 16.7715V119.586C93.2193 123.464 90.0651 126.618 86.1879 126.618H8.73144C4.8542 126.618 1.70005 123.463 1.70005 119.586V53.3848C1.70005 53.1594 1.61049 52.9432 1.45108 52.7838C1.29167 52.6244 1.07546 52.5348 0.850024 52.5348C0.624584 52.5348 0.408377 52.6244 0.248966 52.7838C0.0895557 52.9432 0 53.1594 0 53.3848V119.586C0 124.401 3.91691 128.318 8.73144 128.318H86.1879C91.0024 128.318 94.9193 124.401 94.9193 119.586V16.7715C94.9188 11.9569 91.0019 8.04004 86.1873 8.04004Z" fill="#3A312A"/>
<path d="M82.2993 16.6816H12.6194C11.5572 16.6816 10.5384 17.1036 9.78726 17.8548C9.03612 18.6059 8.61414 19.6247 8.61414 20.687V116.496C8.61414 117.558 9.03612 118.577 9.78726 119.328C10.5384 120.079 11.5572 120.501 12.6194 120.501H82.2993C83.3616 120.501 84.3803 120.079 85.1315 119.328C85.8826 118.577 86.3046 117.558 86.3046 116.496V20.687C86.3046 19.6247 85.8826 18.6059 85.1315 17.8548C84.3803 17.1036 83.3616 16.6816 82.2993 16.6816Z" fill="#FAE6CA"/>
<path d="M82.2992 15.8315H12.6194C9.94237 15.8315 7.76404 18.0099 7.76404 20.6869V116.496C7.76404 119.173 9.94237 121.351 12.6194 121.351H46.4469C46.6724 121.351 46.8886 121.262 47.048 121.102C47.2074 120.943 47.2969 120.727 47.2969 120.501C47.2969 120.276 47.2074 120.06 47.048 119.9C46.8886 119.741 46.6724 119.651 46.4469 119.651H12.6194C11.7829 119.65 10.9809 119.317 10.3894 118.726C9.7979 118.134 9.46514 117.332 9.46409 116.496V20.6869C9.46514 19.8504 9.7979 19.0484 10.3894 18.4569C10.9809 17.8654 11.7829 17.5326 12.6194 17.5316H82.2992C83.1357 17.5325 83.9377 17.8652 84.5292 18.4568C85.1206 19.0483 85.4532 19.8504 85.4539 20.6869V116.496C85.453 117.332 85.1204 118.134 84.529 118.726C83.9376 119.317 83.1357 119.65 82.2992 119.651H53.6455C53.4201 119.651 53.2038 119.741 53.0444 119.9C52.885 120.06 52.7955 120.276 52.7955 120.501C52.7955 120.727 52.885 120.943 53.0444 121.102C53.2038 121.262 53.4201 121.351 53.6455 121.351H82.2992C84.9762 121.351 87.154 119.173 87.154 116.496V20.6869C87.154 18.0099 84.9762 15.8315 82.2992 15.8315Z" fill="#3A312A"/>
<path d="M66.6073 6.48746H60.8391C60.1443 6.48746 59.4779 6.17861 59.0568 5.6261C56.8955 2.79042 52.515 0.850098 47.4597 0.850098C42.4043 0.850098 38.0233 2.79042 35.8619 5.6261C35.4409 6.17861 34.7745 6.48746 34.0797 6.48746H28.3109C27.6782 6.48746 27.0713 6.73881 26.6239 7.18622C26.1765 7.63363 25.9252 8.24045 25.9252 8.87319V16.7008C25.9252 17.3335 26.1765 17.9403 26.6239 18.3877C27.0713 18.8352 27.6782 19.0865 28.3109 19.0865H66.6073C66.9206 19.0865 67.2308 19.0248 67.5203 18.9049C67.8097 18.785 68.0727 18.6093 68.2943 18.3877C68.5158 18.1662 68.6916 17.9032 68.8114 17.6138C68.9313 17.3243 68.993 17.0141 68.993 16.7008V8.87376C68.9931 8.56041 68.9315 8.25012 68.8116 7.9606C68.6917 7.67109 68.516 7.40802 68.2945 7.18642C68.0729 6.96483 67.8099 6.78904 67.5204 6.66911C67.2309 6.54918 66.9207 6.48746 66.6073 6.48746Z" fill="#EF6D7A"/>
<path d="M66.6074 5.63736H60.8391C60.3977 5.63736 59.984 5.44015 59.7324 5.11091C57.3302 1.95845 52.6273 0 47.4592 0C42.291 0 37.5881 1.95845 35.1854 5.11091C34.9338 5.44072 34.5207 5.63736 34.0792 5.63736H28.311C27.4531 5.63826 26.6305 5.97946 26.0239 6.58608C25.4173 7.19271 25.0761 8.01521 25.0752 8.87312V16.7007C25.0761 17.5587 25.4173 18.3812 26.0239 18.9879C26.6305 19.5947 27.453 19.936 28.311 19.937H66.6068C67.4648 19.936 68.2874 19.5947 68.8941 18.988C69.5008 18.3813 69.8421 17.5587 69.8431 16.7007V8.87368C69.8422 8.01573 69.501 7.19317 68.8944 6.58645C68.2878 5.97973 67.4653 5.63841 66.6074 5.63736ZM68.1431 16.7013C68.1426 17.1086 67.9806 17.4991 67.6926 17.7871C67.4046 18.0751 67.0141 18.2371 66.6068 18.2375H28.311C27.9037 18.2369 27.5134 18.0749 27.2255 17.7869C26.9376 17.4989 26.7757 17.1085 26.7752 16.7013V8.87368C26.7757 8.46653 26.9376 8.07617 27.2255 7.78827C27.5134 7.50036 27.9038 7.33842 28.311 7.33797H34.0792C35.0477 7.33797 35.9668 6.89086 36.5375 6.14171C38.6257 3.4018 42.8101 1.70061 47.4592 1.70061C52.1077 1.70061 56.292 3.40236 58.3803 6.14227C58.9515 6.89086 59.8706 7.33797 60.8385 7.33797H66.6068C67.014 7.33842 67.4044 7.50035 67.6924 7.78823C67.9804 8.07612 68.1425 8.46647 68.1431 8.87368V16.7013ZM74.5137 40.3478H44.8127C44.5873 40.3478 44.3711 40.4374 44.2117 40.5968C44.0523 40.7562 43.9627 40.9724 43.9627 41.1978C43.9627 41.4233 44.0523 41.6395 44.2117 41.7989C44.3711 41.9583 44.5873 42.0479 44.8127 42.0479H74.5137C74.7392 42.0479 74.9554 41.9583 75.1148 41.7989C75.2742 41.6395 75.3637 41.4233 75.3637 41.1978C75.3637 40.9724 75.2742 40.7562 75.1148 40.5968C74.9554 40.4374 74.7392 40.3478 74.5137 40.3478Z" fill="#3A312A"/>
<path d="M37.4969 31.8066H22.7932C22.2522 31.8066 21.7335 32.0215 21.351 32.404C20.9685 32.7865 20.7537 33.3052 20.7537 33.8461V48.5498C20.7537 49.0908 20.9685 49.6095 21.351 49.992C21.7335 50.3745 22.2522 50.5893 22.7932 50.5893H37.4969C38.0378 50.5893 38.5565 50.3745 38.939 49.992C39.3215 49.6095 39.5364 49.0908 39.5364 48.5498V33.8461C39.5364 33.3052 39.3215 32.7865 38.939 32.404C38.5565 32.0215 38.0378 31.8066 37.4969 31.8066Z" fill="#D4DA55"/>
<path d="M37.4968 30.9565H22.7931C22.027 30.9573 21.2924 31.262 20.7507 31.8037C20.209 32.3454 19.9043 33.0799 19.9036 33.8461V48.5498C19.9045 49.3158 20.2092 50.0503 20.7509 50.592C21.2926 51.1337 22.027 51.4384 22.7931 51.4393H37.4968C38.2628 51.4382 38.9972 51.1335 39.5388 50.5918C40.0805 50.0501 40.3853 49.3158 40.3863 48.5498V33.8455C40.3853 33.0795 40.0805 32.3452 39.5388 31.8037C38.9971 31.2621 38.2628 30.9574 37.4968 30.9565ZM38.6863 48.5498C38.6858 48.8651 38.5603 49.1674 38.3374 49.3904C38.1144 49.6133 37.8121 49.7388 37.4968 49.7392H22.7931C22.4778 49.7388 22.1755 49.6133 21.9525 49.3904C21.7295 49.1674 21.6041 48.8651 21.6036 48.5498V33.8455C21.6036 33.1898 22.1374 32.656 22.7931 32.656H37.4968C38.1524 32.656 38.6863 33.1893 38.6863 33.8455V48.5498Z" fill="#3A312A"/>
<path d="M37.2095 36.3031C37.0501 36.1437 36.8339 36.0542 36.6086 36.0542C36.3832 36.0542 36.167 36.1437 36.0076 36.3031L28.5291 43.7816L24.2824 39.5349C24.2039 39.4537 24.1101 39.3889 24.0064 39.3444C23.9027 39.2998 23.7912 39.2764 23.6783 39.2754C23.5655 39.2744 23.4535 39.2959 23.3491 39.3387C23.2446 39.3814 23.1497 39.4445 23.0699 39.5243C22.9901 39.6041 22.927 39.699 22.8842 39.8035C22.8415 39.908 22.82 40.0199 22.821 40.1328C22.8219 40.2456 22.8454 40.3572 22.8899 40.4609C22.9345 40.5646 22.9992 40.6584 23.0804 40.7368L27.9284 45.5848C28.0944 45.7508 28.312 45.8335 28.5296 45.8335C28.7472 45.8335 28.9649 45.7508 29.1309 45.5848L37.2107 37.505C37.3697 37.3454 37.4589 37.1292 37.4587 36.9038C37.4585 36.6785 37.3689 36.4624 37.2095 36.3031ZM74.5137 68.3988H44.8127C44.5873 68.3988 44.3711 68.4884 44.2116 68.6478C44.0522 68.8072 43.9627 69.0234 43.9627 69.2489C43.9627 69.4743 44.0522 69.6905 44.2116 69.8499C44.3711 70.0093 44.5873 70.0989 44.8127 70.0989H74.5137C74.7391 70.0989 74.9553 70.0093 75.1147 69.8499C75.2741 69.6905 75.3637 69.4743 75.3637 69.2489C75.3637 69.0234 75.2741 68.8072 75.1147 68.6478C74.9553 68.4884 74.7391 68.3988 74.5137 68.3988Z" fill="#3A312A"/>
<path d="M37.4969 59.8574H22.7932C22.2522 59.8574 21.7335 60.0723 21.351 60.4548C20.9685 60.8373 20.7537 61.356 20.7537 61.8969V76.6006C20.7537 77.1415 20.9685 77.6603 21.351 78.0428C21.7335 78.4252 22.2522 78.6401 22.7932 78.6401H37.4969C38.0378 78.6401 38.5565 78.4252 38.939 78.0428C39.3215 77.6603 39.5364 77.1415 39.5364 76.6006V61.8969C39.5364 61.356 39.3215 60.8373 38.939 60.4548C38.5565 60.0723 38.0378 59.8574 37.4969 59.8574Z" fill="#D4DA55"/>
<path d="M37.4968 59.0078H22.7931C22.027 59.0086 21.2924 59.3132 20.7507 59.855C20.209 60.3967 19.9043 61.1312 19.9036 61.8973V76.601C19.9045 77.3671 20.2092 78.1015 20.7509 78.6432C21.2926 79.1849 22.027 79.4897 22.7931 79.4906H37.4968C38.2628 79.4895 38.9972 79.1847 39.5388 78.6431C40.0805 78.1014 40.3853 77.3671 40.3863 76.601V61.8973C40.3854 61.1313 40.0807 60.3968 39.539 59.8551C38.9973 59.3134 38.2629 59.0087 37.4968 59.0078ZM38.6863 76.601C38.6858 76.9164 38.5603 77.2187 38.3374 77.4416C38.1144 77.6646 37.8121 77.7901 37.4968 77.7905H22.7931C22.4778 77.7901 22.1755 77.6646 21.9525 77.4416C21.7295 77.2187 21.6041 76.9164 21.6036 76.601V61.8973C21.6036 61.2417 22.1374 60.7079 22.7931 60.7079H37.4968C38.1524 60.7079 38.6863 61.2411 38.6863 61.8973V76.601Z" fill="#3A312A"/>
<path d="M37.2095 64.3534C37.0501 64.194 36.8339 64.1045 36.6086 64.1045C36.3832 64.1045 36.167 64.194 36.0076 64.3534L28.5291 71.8319L24.2824 67.5852C24.2039 67.504 24.1101 67.4392 24.0064 67.3947C23.9027 67.3501 23.7912 67.3267 23.6783 67.3257C23.5655 67.3247 23.4535 67.3462 23.3491 67.389C23.2446 67.4317 23.1497 67.4948 23.0699 67.5746C22.9901 67.6544 22.927 67.7493 22.8842 67.8538C22.8415 67.9583 22.82 68.0702 22.821 68.1831C22.8219 68.2959 22.8454 68.4075 22.8899 68.5112C22.9345 68.6149 22.9992 68.7087 23.0804 68.7871L27.9284 73.6351C28.0944 73.8011 28.312 73.8838 28.5296 73.8838C28.7472 73.8838 28.9649 73.8011 29.1309 73.6351L37.2107 65.5553C37.3697 65.3957 37.4589 65.1795 37.4587 64.9541C37.4585 64.7288 37.3689 64.5127 37.2095 64.3534ZM74.5137 96.4491H44.8127C44.5873 96.4491 44.3711 96.5387 44.2116 96.6981C44.0522 96.8575 43.9627 97.0737 43.9627 97.2992C43.9627 97.5246 44.0522 97.7408 44.2116 97.9002C44.3711 98.0596 44.5873 98.1492 44.8127 98.1492H74.5137C74.7391 98.1492 74.9553 98.0596 75.1147 97.9002C75.2741 97.7408 75.3637 97.5246 75.3637 97.2992C75.3637 97.0737 75.2741 96.8575 75.1147 96.6981C74.9553 96.5387 74.7391 96.4491 74.5137 96.4491Z" fill="#3A312A"/>
<path d="M37.4969 87.9087H22.7932C22.2522 87.9087 21.7335 88.1236 21.351 88.506C20.9685 88.8885 20.7537 89.4073 20.7537 89.9482V104.652C20.7537 105.193 20.9685 105.712 21.351 106.094C21.7335 106.477 22.2522 106.691 22.7932 106.691H37.4969C38.0378 106.691 38.5565 106.477 38.939 106.094C39.3215 105.712 39.5364 105.193 39.5364 104.652V89.9482C39.5364 89.4073 39.3215 88.8885 38.939 88.506C38.5565 88.1236 38.0378 87.9087 37.4969 87.9087Z" fill="#D4DA55"/>
<path d="M37.4968 87.0586H22.7931C22.027 87.0593 21.2924 87.364 20.7507 87.9057C20.209 88.4475 19.9043 89.182 19.9036 89.9481V104.652C19.9045 105.418 20.2092 106.152 20.7509 106.694C21.2926 107.236 22.027 107.54 22.7931 107.541H37.4968C38.2628 107.54 38.9972 107.236 39.5388 106.694C40.0805 106.152 40.3853 105.418 40.3863 104.652V89.9481C40.3854 89.182 40.0807 88.4476 39.539 87.9059C38.9973 87.3642 38.2629 87.0595 37.4968 87.0586ZM38.6863 104.652C38.6858 104.967 38.5603 105.269 38.3374 105.492C38.1144 105.715 37.8121 105.841 37.4968 105.841H22.7931C22.4778 105.841 22.1755 105.715 21.9525 105.492C21.7295 105.269 21.6041 104.967 21.6036 104.652V89.9481C21.6036 89.2925 22.1374 88.7586 22.7931 88.7586H37.4968C38.1524 88.7586 38.6863 89.2919 38.6863 89.9481V104.652Z" fill="#3A312A"/>
<path d="M37.2095 92.4046C37.0501 92.2453 36.8339 92.1558 36.6086 92.1558C36.3832 92.1558 36.167 92.2453 36.0076 92.4046L28.5291 99.8831L24.2824 95.6364C24.2039 95.5552 24.1101 95.4905 24.0064 95.4459C23.9027 95.4014 23.7912 95.3779 23.6783 95.377C23.5655 95.376 23.4535 95.3975 23.3491 95.4402C23.2446 95.483 23.1497 95.5461 23.0699 95.6259C22.9901 95.7057 22.927 95.8006 22.8842 95.9051C22.8415 96.0095 22.82 96.1215 22.821 96.2343C22.8219 96.3472 22.8454 96.4587 22.8899 96.5624C22.9345 96.6661 22.9992 96.76 23.0804 96.8384L27.9284 101.686C28.0944 101.852 28.312 101.935 28.5296 101.935C28.7472 101.935 28.9649 101.852 29.1309 101.686L37.2107 93.6066C37.3697 93.4469 37.4589 93.2307 37.4587 93.0054C37.4585 92.78 37.3689 92.564 37.2095 92.4046Z" fill="#3A312A"/>
<path d="M122.832 1.6741C119.116 -0.218617 114.569 1.25986 112.676 4.97673L103.476 23.0443L99.8393 30.1867L80.762 67.6507L94.2207 74.5042L126.135 11.8302C128.028 8.11332 126.549 3.56626 122.832 1.6741Z" fill="#8AC6DD"/>
<path d="M123.218 0.916556C119.089 -1.18414 114.022 0.463209 111.919 4.59092L102.719 22.6585C102.623 22.8586 102.61 23.0879 102.681 23.2977C102.753 23.5075 102.903 23.6811 103.101 23.7817C103.298 23.8822 103.527 23.9018 103.739 23.8362C103.95 23.7705 104.128 23.6249 104.234 23.4303L113.434 5.36275C115.111 2.07032 119.153 0.753918 122.446 2.43186C125.739 4.10811 127.054 8.15139 125.377 11.4444L93.8483 73.3613L81.9049 67.2796L100.596 30.5733C100.691 30.3732 100.705 30.1439 100.633 29.9341C100.562 29.7243 100.412 29.5507 100.214 29.4501C100.017 29.3496 99.7879 29.33 99.5763 29.3956C99.3646 29.4613 99.1869 29.6069 99.081 29.8015L80.0037 67.2654C79.9529 67.3649 79.9222 67.4734 79.9134 67.5848C79.9046 67.6961 79.9178 67.8081 79.9524 67.9143C79.9869 68.0206 80.042 68.1189 80.1146 68.2038C80.1872 68.2887 80.2758 68.3584 80.3754 68.409L93.8341 75.2619C94.0351 75.3642 94.2684 75.3825 94.4829 75.3128C94.6973 75.243 94.8753 75.091 94.9777 74.8902L126.892 12.2162C128.995 8.08736 127.346 3.01838 123.218 0.916556Z" fill="#3A312A"/>
<path d="M108.011 14.21L111.356 7.64551L124.812 14.5024L121.468 21.0662L108.011 14.21Z" fill="#D4DA55"/>
<path d="M125.172 13.7223L111.714 6.86883C111.614 6.818 111.506 6.7873 111.394 6.77851C111.283 6.76972 111.171 6.783 111.065 6.81759C110.958 6.85218 110.86 6.9074 110.775 6.98009C110.691 7.05277 110.621 7.14149 110.571 7.24114L107.228 13.8062C107.125 14.0071 107.107 14.2405 107.177 14.4549C107.247 14.6693 107.399 14.8473 107.599 14.9497L121.058 21.8032C121.259 21.9049 121.492 21.9229 121.707 21.8531C121.921 21.7833 122.099 21.6315 122.202 21.4309L125.545 14.8659C125.647 14.6648 125.665 14.4315 125.595 14.2171C125.525 14.0027 125.373 13.8247 125.172 13.7223ZM121.072 19.902L109.128 13.8198L111.7 8.76948L123.643 14.8511L121.072 19.902Z" fill="#3A312A"/>
<path d="M80.7631 67.6514L81.0322 83.7327L94.2218 74.5048L80.7631 67.6514Z" fill="#87796F"/>
<path d="M94.6076 73.7476L81.1489 66.8941C81.0182 66.8277 80.8726 66.7962 80.7262 66.8026C80.5798 66.809 80.4375 66.8531 80.3131 66.9307C80.1888 67.0083 80.0866 67.1167 80.0165 67.2454C79.9464 67.3742 79.9107 67.5188 79.9129 67.6654L80.1827 83.7467C80.1854 83.9009 80.23 84.0514 80.3118 84.1822C80.3935 84.313 80.5092 84.4191 80.6466 84.4892C80.784 84.5593 80.9378 84.5907 81.0917 84.5801C81.2455 84.5695 81.3936 84.5172 81.5201 84.429L94.709 75.2005C94.829 75.1164 94.9252 75.0026 94.9883 74.8703C95.0514 74.738 95.0792 74.5916 95.0689 74.4454C95.0587 74.2992 95.0109 74.1581 94.9301 74.0358C94.8492 73.9135 94.7381 73.8142 94.6076 73.7476ZM81.8555 82.1197L81.6368 69.0503L92.5743 74.6203L81.8555 82.1197Z" fill="#3A312A"/>
<path d="M125.32 104.729H124.564C124.128 102.823 123.366 101.008 122.311 99.362L122.866 98.8067C123.019 98.6544 123.14 98.4737 123.222 98.2747C123.304 98.0758 123.347 97.8626 123.347 97.6472C123.347 97.4319 123.304 97.2187 123.222 97.0197C123.14 96.8208 123.019 96.64 122.866 96.4878L119.915 93.5359C119.762 93.3836 119.582 93.2628 119.383 93.1804C119.184 93.098 118.971 93.0556 118.755 93.0556C118.54 93.0556 118.327 93.098 118.128 93.1804C117.929 93.2628 117.748 93.3836 117.596 93.5359L117.019 94.1123C115.377 93.077 113.568 92.3316 111.673 91.9084V91.0828C111.673 90.648 111.501 90.231 111.193 89.9235C110.886 89.6161 110.469 89.4434 110.034 89.4434H105.859C105.424 89.4434 105.007 89.6161 104.7 89.9235C104.392 90.231 104.22 90.648 104.22 91.0828V91.9084C103.2 92.1833 100.493 93.0922 98.8737 94.1123L98.2974 93.5359C98.1451 93.3836 97.9644 93.2628 97.7654 93.1804C97.5665 93.098 97.3533 93.0556 97.1379 93.0556C96.9226 93.0556 96.7094 93.098 96.5104 93.1804C96.3115 93.2628 96.1308 93.3836 95.9785 93.5359L93.0267 96.4878C92.8744 96.64 92.7536 96.8208 92.6711 97.0197C92.5887 97.2187 92.5463 97.4319 92.5463 97.6472C92.5463 97.8626 92.5887 98.0758 92.6711 98.2747C92.7536 98.4737 92.8744 98.6544 93.0267 98.8067L93.5826 99.362C92.5274 101.008 91.7649 102.823 91.3289 104.729H90.5735C90.1387 104.729 89.7217 104.902 89.4143 105.209C89.1068 105.517 88.9341 105.934 88.9341 106.368V110.543C88.9341 110.978 89.1068 111.395 89.4143 111.702C89.7217 112.01 90.1387 112.183 90.5735 112.183H91.2898C91.7087 114.11 92.4612 115.95 93.5134 117.619L93.0272 118.105C92.8749 118.257 92.7541 118.438 92.6717 118.637C92.5893 118.836 92.5469 119.049 92.5469 119.264C92.5469 119.48 92.5893 119.693 92.6717 119.892C92.7541 120.091 92.8749 120.272 93.0272 120.424L95.9791 123.376C96.1313 123.528 96.3121 123.649 96.511 123.731C96.71 123.814 96.9232 123.856 97.1385 123.856C97.3538 123.856 97.5671 123.814 97.766 123.731C97.965 123.649 98.1457 123.528 98.2979 123.376L98.7632 122.91C100.435 123.982 102.282 124.752 104.22 125.184V125.829C104.22 126.264 104.393 126.681 104.701 126.989C105.008 127.296 105.425 127.469 105.86 127.469H110.035C110.469 127.469 110.886 127.296 111.194 126.989C111.501 126.681 111.674 126.264 111.674 125.829V125.184C113.612 124.752 115.459 123.982 117.131 122.91L117.596 123.376C117.749 123.528 117.929 123.649 118.128 123.731C118.327 123.814 118.54 123.856 118.756 123.856C118.971 123.856 119.184 123.814 119.383 123.731C119.582 123.649 119.763 123.528 119.915 123.376L122.867 120.424C123.019 120.272 123.14 120.091 123.223 119.892C123.305 119.693 123.347 119.48 123.347 119.264C123.347 119.049 123.305 118.836 123.223 118.637C123.14 118.438 123.019 118.257 122.867 118.105L122.381 117.619C123.433 115.95 124.185 114.11 124.604 112.183H125.32C125.755 112.183 126.172 112.01 126.479 111.702C126.787 111.395 126.96 110.978 126.96 110.543V106.368C126.959 105.934 126.787 105.517 126.479 105.209C126.172 104.902 125.754 104.729 125.32 104.729ZM107.946 116.979C103.239 116.979 99.4228 113.163 99.4228 108.456C99.4228 103.748 103.239 99.9321 107.946 99.9321C112.654 99.9321 116.47 103.748 116.47 108.456C116.47 113.163 112.654 116.979 107.946 116.979Z" fill="#F16C7A"/>
<path d="M125.32 103.879H125.228C124.814 102.34 124.195 100.863 123.386 99.4893L123.468 99.4082C123.7 99.1776 123.884 98.9032 124.009 98.601C124.134 98.2987 124.198 97.9747 124.197 97.6476C124.198 97.3205 124.134 96.9965 124.009 96.6944C123.884 96.3923 123.7 96.118 123.468 95.8874L120.516 92.9356C120.049 92.4694 119.416 92.2075 118.756 92.2075C118.095 92.2075 117.462 92.4694 116.995 92.9356L116.889 93.0416C115.52 92.2498 114.052 91.6444 112.523 91.2412V91.0837C112.523 90.4236 112.26 89.7907 111.793 89.324C111.326 88.8573 110.694 88.5948 110.033 88.5942H105.859C105.199 88.595 104.566 88.8575 104.1 89.3242C103.633 89.7908 103.37 90.4236 103.369 91.0837V91.2741C102.298 91.6079 100.458 92.259 99.0114 93.0489L98.8981 92.9356C98.431 92.4694 97.798 92.2076 97.138 92.2076C96.478 92.2076 95.845 92.4694 95.3779 92.9356L92.4266 95.8869C92.1945 96.1174 92.0105 96.3917 91.8851 96.6938C91.7597 96.9959 91.6955 97.3199 91.6961 97.647C91.6961 98.3123 91.9557 98.9373 92.426 99.4077L92.5076 99.4887C91.6986 100.862 91.0787 102.339 90.6648 103.879H90.5741C89.914 103.88 89.2812 104.142 88.8144 104.609C88.3477 105.075 88.085 105.708 88.0841 106.368V110.543C88.0849 111.203 88.3475 111.836 88.8143 112.303C89.2811 112.769 89.914 113.032 90.5741 113.032H90.6183C91.0209 114.594 91.6344 116.093 92.4419 117.488L92.4266 117.504C91.9562 117.974 91.6967 118.599 91.6967 119.264C91.6967 119.93 91.9562 120.555 92.4266 121.024L95.3784 123.976C95.8441 124.441 96.4745 124.702 97.1322 124.704C97.7899 124.706 98.4216 124.447 98.8896 123.985C100.29 124.809 101.798 125.437 103.37 125.851C103.377 126.507 103.642 127.134 104.108 127.596C104.574 128.058 105.204 128.317 105.86 128.318H110.034C110.69 128.317 111.32 128.058 111.786 127.596C112.252 127.134 112.517 126.507 112.524 125.851C114.096 125.437 115.603 124.81 117.004 123.985C117.472 124.448 118.104 124.706 118.762 124.704C119.42 124.703 120.05 124.441 120.516 123.976L123.468 121.024C123.934 120.557 124.196 119.924 124.196 119.264C124.196 118.604 123.934 117.971 123.468 117.504L123.452 117.488C124.26 116.093 124.874 114.594 125.276 113.033H125.32C125.98 113.032 126.613 112.77 127.08 112.303C127.546 111.836 127.809 111.204 127.81 110.544V106.369C127.809 105.709 127.546 105.076 127.079 104.609C126.612 104.143 125.98 103.88 125.32 103.879ZM126.109 110.544C126.109 110.979 125.755 111.333 125.32 111.333H124.603C124.409 111.333 124.221 111.399 124.07 111.521C123.919 111.643 123.814 111.813 123.773 112.003C123.375 113.834 122.66 115.581 121.661 117.166C121.558 117.329 121.514 117.523 121.535 117.714C121.557 117.906 121.643 118.084 121.779 118.22L122.265 118.706C122.413 118.854 122.496 119.055 122.496 119.265C122.496 119.474 122.413 119.675 122.265 119.823L119.313 122.775C119.165 122.923 118.964 123.006 118.755 123.006C118.546 123.006 118.345 122.923 118.196 122.775L117.731 122.31C117.594 122.173 117.414 122.086 117.222 122.065C117.029 122.045 116.835 122.09 116.672 122.195C115.084 123.213 113.33 123.944 111.489 124.354C111.3 124.396 111.131 124.501 111.01 124.652C110.889 124.803 110.823 124.99 110.823 125.184V125.829C110.823 126.264 110.469 126.619 110.033 126.619H105.859C105.65 126.618 105.449 126.535 105.301 126.387C105.153 126.239 105.07 126.039 105.069 125.829V125.184C105.069 124.785 104.793 124.441 104.404 124.354C102.563 123.944 100.808 123.213 99.2205 122.195C99.0573 122.09 98.8633 122.044 98.6706 122.065C98.4778 122.086 98.298 122.172 98.1609 122.309L97.6956 122.774C97.5473 122.922 97.3466 123.005 97.1374 123.005C96.9282 123.005 96.7275 122.922 96.5792 122.774L93.6274 119.822C93.4778 119.673 93.3956 119.475 93.3956 119.264C93.3956 119.053 93.4778 118.855 93.6274 118.706L94.113 118.22C94.2494 118.084 94.3353 117.905 94.3568 117.714C94.3783 117.522 94.3342 117.329 94.2315 117.166C93.2316 115.581 92.5166 113.833 92.1189 112.002C92.0776 111.813 91.9727 111.643 91.8216 111.521C91.6704 111.399 91.4822 111.333 91.2881 111.333H90.5724C90.363 111.333 90.1623 111.25 90.0142 111.102C89.8661 110.954 89.7828 110.753 89.7825 110.544V106.369C89.7825 105.934 90.1366 105.579 90.5724 105.579H91.3272C91.7233 105.579 92.0679 105.306 92.1557 104.919C92.5696 103.108 93.294 101.384 94.2966 99.8208C94.4013 99.6576 94.447 99.4635 94.4261 99.2708C94.4053 99.078 94.3192 98.8982 94.1822 98.7611L93.6268 98.2052C93.5531 98.1321 93.4946 98.0452 93.4547 97.9494C93.4148 97.8535 93.3942 97.7508 93.3942 97.647C93.3942 97.5432 93.4148 97.4404 93.4547 97.3446C93.4946 97.2488 93.5531 97.1619 93.6268 97.0888L96.5787 94.137C96.7269 93.9892 96.9276 93.9062 97.1369 93.9062C97.3461 93.9062 97.5469 93.9892 97.695 94.137L98.2719 94.7138C98.4082 94.8501 98.5868 94.9359 98.7783 94.9573C98.9698 94.9787 99.1629 94.9345 99.326 94.8317C100.829 93.8842 103.468 92.9911 104.44 92.7293C104.62 92.6806 104.779 92.5739 104.893 92.4255C105.007 92.2772 105.068 92.0956 105.068 91.9088V91.0831C105.068 90.6479 105.422 90.2937 105.858 90.2937H110.032C110.468 90.2937 110.822 90.6479 110.822 91.0831V91.9088C110.822 92.3071 111.098 92.6517 111.488 92.7384C113.288 93.1399 115.005 93.848 116.565 94.8317C116.728 94.9346 116.921 94.9789 117.113 94.9575C117.304 94.9361 117.483 94.8501 117.619 94.7138L118.196 94.137C118.344 93.9892 118.545 93.9062 118.754 93.9062C118.964 93.9062 119.165 93.9892 119.313 94.137L122.265 97.0894C122.338 97.1625 122.397 97.2494 122.436 97.3451C122.476 97.4409 122.497 97.5436 122.497 97.6473C122.497 97.751 122.476 97.8537 122.436 97.9494C122.397 98.0451 122.338 98.1321 122.265 98.2052L121.709 98.7605C121.572 98.8976 121.486 99.0775 121.465 99.2702C121.445 99.4629 121.49 99.657 121.595 99.8202C122.597 101.383 123.322 103.108 123.735 104.918C123.778 105.106 123.883 105.273 124.034 105.393C124.184 105.513 124.371 105.579 124.564 105.579H125.319C125.754 105.579 126.109 105.933 126.109 106.368L126.109 110.544ZM107.947 99.0824C102.778 99.0824 98.5734 103.288 98.5734 108.456C98.5734 113.625 102.778 117.829 107.947 117.829C113.116 117.829 117.32 113.625 117.32 108.456C117.32 103.288 113.116 99.0824 107.947 99.0824ZM107.947 116.129C103.715 116.129 100.273 112.687 100.273 108.456C100.273 104.225 103.715 100.782 107.947 100.782C112.178 100.782 115.62 104.225 115.62 108.456C115.62 112.687 112.178 116.129 107.947 116.129Z" fill="#3A312A"/>
<path d="M79.935 67.4626C79.935 67.457 79.9407 67.4513 79.9407 67.44C79.952 67.3833 79.9747 67.321 80.003 67.2643L85.4545 56.5597V20.6886C85.4545 18.9489 84.0378 17.5322 82.2981 17.5322H73.7979C75.5376 17.5322 76.9543 18.9489 76.9543 20.6886V116.498C76.9543 118.237 75.5376 119.648 73.7979 119.648H82.2981C84.0378 119.648 85.4545 118.237 85.4545 116.498V81.675L81.5217 84.4291C81.3744 84.5311 81.2044 84.5821 81.0344 84.5821C80.8116 84.583 80.5974 84.4961 80.4383 84.3402C80.2792 84.1842 80.1879 83.9719 80.1844 83.7491L79.9124 67.6666C79.9124 67.6553 79.918 67.6496 79.918 67.644C79.918 67.5816 79.9237 67.5193 79.935 67.4626Z" fill="#DECAAD"/>
</svg>
