<svg width="171" height="171" viewBox="0 0 171 171" fill="none" xmlns="http://www.w3.org/2000/svg">
<path d="M77.7247 140.255L59.3627 159.842C55.9708 163.455 51.8176 166.268 47.2041 168.077C42.5906 169.886 37.6324 170.647 32.6887 170.303C27.7451 169.959 22.9398 168.52 18.6212 166.089C14.3026 163.658 10.5789 160.298 7.71974 156.25C6.91307 155.111 6.1324 153.955 5.37774 152.782L5.19474 152.497C0.466559 145.05 -1.11816 136.033 0.787594 127.421C2.69334 118.808 7.93425 111.302 15.3627 106.545L37.7117 92.1899L77.7247 140.255Z" fill="#F2A98C"/>
<path d="M118.853 50.252C119.596 51.5916 120.597 52.7716 121.796 53.7246C122.996 54.6775 124.372 55.3849 125.845 55.8062C127.318 56.2275 128.86 56.3545 130.382 56.18C131.904 56.0054 133.377 55.5328 134.717 54.789L164.417 38.297C165.756 37.5532 166.936 36.5529 167.889 35.3531C168.842 34.1533 169.549 32.7776 169.97 31.3045C170.391 29.8314 170.518 28.2897 170.344 26.7675C170.169 25.2454 169.697 23.7725 168.953 22.433C168.209 21.0935 167.209 19.9137 166.009 18.9608C164.809 18.0079 163.433 17.3007 161.96 16.8795C160.487 16.4583 158.945 16.3313 157.423 16.5059C155.901 16.6805 154.428 17.1532 153.089 17.897L123.392 34.389C120.686 35.8909 118.689 38.4058 117.837 41.3806C116.986 44.3554 117.351 47.5465 118.853 50.252ZM39.6987 15.299C42.1846 14.7375 44.7568 14.6713 47.2683 15.1042C49.7798 15.537 52.1814 16.4605 54.3359 17.8218C56.4904 19.1831 58.3555 20.9556 59.8248 23.038C61.294 25.1204 62.3386 27.4718 62.8987 29.958L68.8127 56.189C92.6327 47.427 118.594 55.356 129.313 75.769C141.123 98.252 129.975 127.362 104.413 140.788C78.8507 154.214 48.5567 146.874 36.7467 124.388C30.5197 112.533 30.6767 98.836 35.9637 86.567C40.7546 75.3638 41.8748 62.9312 39.1637 51.052L33.3637 25.319C32.8749 23.1497 33.2676 20.875 34.4556 18.9952C35.6436 17.1155 37.5296 15.7845 39.6987 15.295V15.299Z" fill="#FFC5AB"/>
<path d="M139.054 11.522V136.494C139.053 139.55 137.839 142.48 135.679 144.641C133.518 146.801 130.587 148.015 127.532 148.015H68.2787C65.2231 148.014 62.2927 146.8 60.132 144.64C57.9713 142.479 56.7572 139.549 56.7567 136.493V11.522C56.7566 10.0089 57.0545 8.51054 57.6335 7.11257C58.2125 5.71459 59.0612 4.44437 60.1311 3.37442C61.2011 2.30448 62.4713 1.45578 63.8693 0.876793C65.2673 0.297805 66.7656 -0.000130951 68.2787 3.90797e-07H127.532C129.045 -0.000393758 130.543 0.297363 131.941 0.876258C133.34 1.45515 134.61 2.30384 135.68 3.37384C136.75 4.44383 137.599 5.71416 138.177 7.11226C138.756 8.51035 139.054 10.0088 139.054 11.522Z" fill="#424242"/>
<path d="M132.991 12.2859V135.724C132.991 136.461 132.846 137.192 132.563 137.873C132.281 138.554 131.868 139.174 131.346 139.695C130.825 140.216 130.205 140.63 129.524 140.912C128.843 141.194 128.112 141.339 127.375 141.339H68.4347C67.6973 141.339 66.9671 141.194 66.2858 140.912C65.6045 140.63 64.9854 140.216 64.464 139.695C63.9426 139.173 63.529 138.554 63.2468 137.873C62.9647 137.192 62.8196 136.461 62.8197 135.724V12.2859C62.8196 11.5485 62.9647 10.8183 63.2468 10.137C63.529 9.45567 63.9426 8.83663 64.464 8.3152C64.9854 7.79377 65.6045 7.38018 66.2858 7.09805C66.9671 6.81591 67.6973 6.67077 68.4347 6.6709H127.376C128.113 6.67077 128.843 6.81591 129.525 7.09805C130.206 7.38018 130.825 7.79377 131.346 8.3152C131.868 8.83663 132.281 9.45567 132.564 10.137C132.846 10.8183 132.991 11.5485 132.991 12.2859Z" fill="white"/>
<path d="M132.991 12.2859V97.3409H62.8197V12.2859C62.8196 11.5485 62.9647 10.8183 63.2469 10.137C63.529 9.45567 63.9426 8.83663 64.464 8.3152C64.9854 7.79377 65.6045 7.38018 66.2858 7.09805C66.9671 6.81591 67.6973 6.67077 68.4347 6.6709H127.377C128.114 6.6709 128.844 6.81614 129.525 7.09833C130.207 7.38053 130.825 7.79414 131.347 8.31555C131.868 8.83697 132.282 9.45597 132.564 10.1372C132.846 10.8184 132.991 11.5486 132.991 12.2859ZM118.435 110.857H77.3767C75.9225 110.857 74.5279 111.435 73.4996 112.463C72.4714 113.491 71.8937 114.886 71.8937 116.34V121.313C71.8937 122.767 72.4714 124.162 73.4996 125.19C74.5279 126.218 75.9225 126.796 77.3767 126.796H118.435C119.889 126.796 121.284 126.218 122.312 125.19C123.34 124.162 123.918 122.767 123.918 121.313V116.34C123.917 114.886 123.34 113.492 122.311 112.463C121.283 111.435 119.889 110.857 118.435 110.857Z" fill="#AC6BAD"/>
<path d="M144.629 120.014L132.208 126.914C130.191 128.036 127.832 128.378 125.58 127.873C123.327 127.367 121.34 126.052 119.995 124.175C118.651 122.299 118.044 119.994 118.29 117.699C118.536 115.404 119.617 113.28 121.329 111.731C121.862 111.246 122.45 110.825 123.081 110.476L135.502 103.576C136.581 102.977 137.768 102.596 138.994 102.455C140.221 102.315 141.463 102.417 142.65 102.756C143.837 103.096 144.945 103.666 145.912 104.433C146.878 105.201 147.684 106.152 148.284 107.231C148.883 108.31 149.264 109.497 149.404 110.723C149.545 111.95 149.443 113.192 149.103 114.379C148.764 115.566 148.194 116.674 147.426 117.641C146.659 118.608 145.708 119.414 144.629 120.013V120.014Z" fill="#F2AEA0"/>
<path d="M149.292 109.988C148.758 110.472 148.17 110.893 147.54 111.243L135.119 118.143C133.822 118.863 132.374 119.266 130.892 119.32C129.409 119.373 127.936 119.075 126.591 118.45C125.246 117.825 124.068 116.89 123.154 115.722C122.239 114.555 121.614 113.187 121.329 111.732C121.862 111.247 122.45 110.826 123.081 110.477L135.502 103.577C136.799 102.859 138.247 102.458 139.728 102.406C141.209 102.354 142.682 102.652 144.026 103.277C145.371 103.902 146.548 104.836 147.463 106.002C148.378 107.168 149.005 108.534 149.292 109.988Z" fill="#FFC5AB"/>
<path d="M144.629 94.8632L132.208 101.763C130.191 102.886 127.832 103.227 125.58 102.722C123.327 102.217 121.34 100.901 119.995 99.0245C118.651 97.1483 118.044 94.8431 118.29 92.5482C118.536 90.2532 119.617 88.129 121.329 86.5802C121.862 86.0951 122.45 85.6739 123.081 85.3252L135.502 78.4252C136.581 77.8259 137.768 77.445 138.994 77.3044C140.221 77.1637 141.463 77.266 142.65 77.6054C143.837 77.9448 144.945 78.5147 145.912 79.2825C146.878 80.0502 147.684 81.0009 148.284 82.0802C148.883 83.1594 149.264 84.3462 149.404 85.5726C149.545 86.7991 149.443 88.0412 149.103 89.2281C148.764 90.415 148.194 91.5235 147.426 92.4902C146.659 93.4569 145.708 94.2629 144.629 94.8621V94.8632Z" fill="#F2AEA0"/>
<path d="M149.292 84.837C148.758 85.3212 148.17 85.7423 147.54 86.092L135.119 92.992C133.822 93.7123 132.374 94.1156 130.892 94.1689C129.409 94.2223 127.936 93.9241 126.591 93.2989C125.246 92.6736 124.068 91.7391 123.154 90.5715C122.239 89.4039 121.614 88.0365 121.329 86.581C121.862 86.096 122.45 85.6748 123.081 85.326L135.502 78.426C136.799 77.7082 138.247 77.307 139.728 77.2548C141.209 77.2027 142.682 77.5013 144.026 78.1262C145.371 78.7511 146.548 79.6846 147.463 80.8508C148.378 82.017 149.005 83.3828 149.292 84.837Z" fill="#FFC5AB"/>
<path d="M144.629 74.2069L132.208 81.1069C130.191 82.2293 127.832 82.5705 125.58 82.0654C123.327 81.5604 121.34 80.2444 119.995 78.3682C118.651 76.4921 118.044 74.1869 118.29 71.8919C118.536 69.597 119.617 67.4727 121.329 65.9239C121.862 65.4388 122.45 65.0177 123.081 64.6689L135.502 57.7689C136.581 57.1696 137.768 56.7888 138.994 56.6481C140.221 56.5075 141.463 56.6098 142.65 56.9492C143.837 57.2886 144.945 57.8584 145.912 58.6262C146.878 59.394 147.684 60.3446 148.284 61.4239C148.883 62.5032 149.264 63.6899 149.404 64.9164C149.545 66.1428 149.443 67.385 149.103 68.5719C148.764 69.7588 148.194 70.8672 147.426 71.8339C146.659 72.8006 145.708 73.6066 144.629 74.2059V74.2069Z" fill="#F2AEA0"/>
<path d="M149.292 64.1808C148.758 64.6649 148.17 65.086 147.54 65.4358L135.119 72.3358C133.822 73.0561 132.374 73.4594 130.892 73.5127C129.409 73.566 127.936 73.2679 126.591 72.6426C125.246 72.0174 124.068 71.0828 123.154 69.9152C122.239 68.7477 121.614 67.3803 121.329 65.9248C121.862 65.4397 122.45 65.0185 123.081 64.6698L135.502 57.7698C136.799 57.052 138.247 56.6507 139.728 56.5986C141.209 56.5465 142.682 56.845 144.026 57.4699C145.371 58.0948 146.548 59.0284 147.463 60.1946C148.378 61.3607 149.005 62.7266 149.292 64.1808Z" fill="#FFC5AB"/>
<path d="M131.292 99.8398C137.344 99.8398 143.26 101.635 148.292 104.997C153.324 108.359 157.246 113.138 159.562 118.73C161.879 124.321 162.485 130.474 161.304 136.41C160.123 142.345 157.209 147.798 152.929 152.077C148.65 156.357 143.197 159.271 137.262 160.452C131.326 161.633 125.173 161.027 119.582 158.711C113.99 156.395 109.211 152.472 105.849 147.44C102.486 142.408 100.692 136.492 100.692 130.44C100.692 122.324 103.916 114.541 109.654 108.802C115.393 103.064 123.176 99.8398 131.292 99.8398Z" fill="#ED524E"/>
<path d="M144.574 139.505C145.063 140 145.338 140.669 145.338 141.365C145.338 142.061 145.063 142.729 144.574 143.224C144.072 143.714 143.399 143.988 142.699 143.988C141.998 143.988 141.325 143.714 140.824 143.224L131.789 134.193L122.731 143.224C122.238 143.718 121.568 143.996 120.871 143.996C120.173 143.996 119.503 143.719 119.01 143.226C118.516 142.733 118.238 142.064 118.238 141.366C118.238 140.668 118.515 139.999 119.008 139.505L128.039 130.443L119.008 121.409C118.517 120.908 118.243 120.235 118.243 119.534C118.243 118.833 118.517 118.16 119.008 117.659C119.502 117.169 120.171 116.894 120.867 116.894C121.564 116.894 122.232 117.169 122.727 117.659L131.789 126.724L140.819 117.658C141.319 117.174 141.989 116.906 142.685 116.912C143.381 116.917 144.046 117.196 144.538 117.688C145.031 118.181 145.309 118.846 145.315 119.542C145.321 120.238 145.053 120.908 144.569 121.408L135.507 130.442L144.574 139.505Z" fill="white"/>
</svg>
