<svg width="15" height="17" viewBox="0 0 15 17" fill="none" xmlns="http://www.w3.org/2000/svg">
<path d="M5.24501 15.1801V12.7261C5.24394 12.4283 5.36084 12.1421 5.57015 11.9301C5.77946 11.7182 6.06416 11.5978 6.36201 11.5951H8.63101C8.7791 11.5955 8.92565 11.6251 9.0623 11.6822C9.19895 11.7392 9.32301 11.8226 9.4274 11.9277C9.53178 12.0327 9.61445 12.1573 9.67066 12.2943C9.72688 12.4313 9.75554 12.578 9.75501 12.7261V15.1721C9.75447 15.4302 9.85587 15.6781 10.0371 15.8618C10.2184 16.0455 10.4649 16.1502 10.723 16.1531H12.271C12.6294 16.1538 12.9845 16.0835 13.3156 15.9462C13.6467 15.8088 13.9473 15.6073 14.2 15.3531C14.7128 14.8381 15.0004 14.1409 15 13.4141V6.44712C15.0002 6.15724 14.937 5.87081 14.8149 5.60791C14.6928 5.345 14.5146 5.11197 14.293 4.92512L9.03401 0.693123C8.58882 0.335277 8.03201 0.145319 7.46094 0.15647C6.88987 0.167621 6.34089 0.37917 5.91001 0.754123L0.763012 4.92512C0.53106 5.10648 0.342288 5.3371 0.210336 5.60031C0.0783837 5.86352 0.00654554 6.15276 1.17268e-05 6.44712V13.4091C-0.00104038 13.7686 0.0687129 14.1247 0.205289 14.4571C0.341865 14.7896 0.542589 15.0919 0.796 15.3468C1.04941 15.6017 1.35055 15.8042 1.68221 15.9427C2.01388 16.0812 2.36958 16.1531 2.72901 16.1541H4.24101C4.36888 16.155 4.49564 16.1304 4.61392 16.0818C4.7322 16.0332 4.83964 15.9616 4.93001 15.8711C5.02072 15.7804 5.09267 15.6726 5.14174 15.5541C5.19082 15.4355 5.21605 15.3084 5.21601 15.1801H5.24501Z" fill="#595BB5"/>
</svg>
