<svg width="115" height="113" viewBox="0 0 115 113" fill="none" xmlns="http://www.w3.org/2000/svg">
<path d="M1.74095 42.8078C2.83188 43.8651 4.29806 44.4457 5.81704 44.4221C7.33603 44.3985 8.78343 43.7725 9.84095 42.6818C15.9668 36.2725 23.3273 31.1704 31.4786 27.683C39.6299 24.1957 48.403 22.3954 57.269 22.3908C62.805 22.4022 68.3167 23.1241 73.6689 24.5388L65.518 36.7588C62.7933 36.2837 60.0346 36.0308 57.269 36.0028C50.0795 36.0001 42.9641 37.4538 36.3519 40.2764C29.7398 43.0991 23.768 47.232 18.797 52.4258C17.7387 53.5167 17.1572 54.9832 17.1803 56.5028C17.2033 58.0224 17.8291 59.4706 18.92 60.5288C20.0108 61.587 21.4773 62.1686 22.9969 62.1455C24.5165 62.1225 25.9647 61.4967 27.023 60.4058C30.9284 56.3166 35.6221 53.0612 40.8205 50.8361C46.0189 48.6111 51.6143 47.4625 57.269 47.4598C57.624 47.4598 57.969 47.5338 58.329 47.5458L48.235 62.6858C43.587 64.1088 39.3715 66.6775 35.976 70.1558C34.9187 71.2468 34.3381 72.7129 34.3617 74.2319C34.3853 75.7509 35.0113 77.1983 36.102 78.2558C36.459 78.5885 36.8576 78.8736 37.288 79.1038L19.34 106.029C18.9992 106.497 18.7567 107.03 18.6269 107.595C18.4972 108.16 18.483 108.745 18.585 109.315C18.6871 109.885 18.9034 110.429 19.2209 110.914C19.5385 111.399 19.9507 111.814 20.4328 112.136C20.9149 112.457 21.4571 112.678 22.0266 112.784C22.5961 112.891 23.1814 112.881 23.7471 112.756C24.3128 112.631 24.8474 112.392 25.3188 112.055C25.7901 111.718 26.1885 111.29 26.49 110.795L95.2329 7.67983C95.5737 7.21119 95.8162 6.67851 95.946 6.11379C96.0757 5.54907 96.0899 4.96395 95.9879 4.39358C95.8858 3.82321 95.6695 3.27935 95.352 2.79467C95.0344 2.30999 94.6222 1.89448 94.1401 1.5731C93.658 1.25172 93.1158 1.0311 92.5463 0.924489C91.9768 0.817875 91.3915 0.827469 90.8258 0.952693C90.2601 1.07792 89.7255 1.31619 89.2541 1.6532C88.7828 1.99021 88.3844 2.41901 88.0829 2.91383L80.297 14.5998C72.8551 12.1995 65.0872 10.9629 57.268 10.9338C46.8669 10.9337 36.5736 13.0402 27.0088 17.1261C17.4439 21.2121 8.80567 27.1929 1.61495 34.7078C0.557717 35.7988 -0.0229347 37.2649 0.000693905 38.7839C0.0243226 40.3029 0.650296 41.7503 1.74095 42.8078ZM108.809 44.4228C109.934 44.4226 111.035 44.091 111.973 43.4693C112.911 42.8477 113.645 41.9635 114.084 40.9272C114.522 39.8909 114.646 38.7483 114.44 37.6421C114.233 36.5358 113.705 35.515 112.922 34.7068C107.174 28.7948 100.531 23.8231 93.2389 19.9738L86.839 29.5738C93.4772 32.9229 99.5122 37.3526 104.697 42.6818C105.231 43.2334 105.87 43.6719 106.576 43.9711C107.283 44.2704 108.043 44.4244 108.81 44.4238L108.809 44.4228ZM91.63 62.1498C92.7553 62.1496 93.8557 61.818 94.7937 61.1963C95.7318 60.5747 96.466 59.6905 96.9047 58.6542C97.3434 57.6179 97.4671 56.4753 97.2605 55.3691C97.0539 54.2628 96.5261 53.242 95.743 52.4338C91.0404 47.5803 85.4717 43.6491 79.324 40.8428L72.8509 50.5648C78.3734 52.7846 83.3691 56.1374 87.5159 60.4068C88.0495 60.9587 88.6888 61.3974 89.3956 61.6969C90.1024 61.9963 90.8623 62.1504 91.63 62.1498ZM74.449 79.8718C75.5743 79.8716 76.6747 79.54 77.6127 78.9183C78.5508 78.2967 79.285 77.4125 79.7237 76.3762C80.1624 75.3399 80.2861 74.1973 80.0795 73.0911C79.8729 71.9848 79.3451 70.964 78.562 70.1558C74.8537 66.3517 70.1866 63.6201 65.0539 62.2498L58.02 72.8088C62.6597 72.9271 67.0737 74.8365 70.3369 78.1368C70.871 78.6873 71.5104 79.1247 72.217 79.4229C72.9236 79.7211 73.683 79.8742 74.45 79.8728L74.449 79.8718Z" fill="#595BB5"/>
</svg>
