<svg width="42" height="48" viewBox="0 0 42 48" fill="none" xmlns="http://www.w3.org/2000/svg">
<path d="M20.6478 26.477C21.8003 26.4757 22.9052 26.0173 23.7201 25.2023C24.5351 24.3874 24.9935 23.2825 24.9948 22.13V4.34701C24.9948 3.19398 24.5368 2.08818 23.7215 1.27286C22.9061 0.457551 21.8003 -0.000488281 20.6473 -0.000488281C19.4943 -0.000488281 18.3885 0.457551 17.5732 1.27286C16.7579 2.08818 16.2998 3.19398 16.2998 4.34701V22.13C16.3011 23.2827 16.7597 24.3877 17.5748 25.2027C18.39 26.0177 19.4951 26.476 20.6478 26.477Z" fill="#FF5B5B"/>
<path d="M35.282 12.0082L35.249 11.9742C34.439 11.1537 33.3363 10.6886 32.1834 10.6812C31.0305 10.6738 29.9219 11.1247 29.1015 11.9347C28.281 12.7447 27.8159 13.8474 27.8085 15.0002C27.8011 16.1531 28.252 17.2617 29.062 18.0822L29.101 18.1222C30.7728 19.794 31.9114 21.924 32.3727 24.2428C32.834 26.5617 32.5973 28.9653 31.6926 31.1496C30.7878 33.334 29.2557 35.201 27.2898 36.5145C25.324 37.8281 23.0128 38.5292 20.6485 38.5292C18.2842 38.5292 15.9729 37.8281 14.0071 36.5145C12.0413 35.201 10.5091 33.334 9.60435 31.1496C8.6996 28.9653 8.46291 26.5617 8.92422 24.2428C9.38552 21.924 10.5241 19.794 12.196 18.1222C13.0112 17.3069 13.4693 16.2012 13.4693 15.0482C13.4693 13.8952 13.0112 12.7895 12.196 11.9742C11.3807 11.1589 10.2749 10.7009 9.12197 10.7009C7.969 10.7009 6.86324 11.1589 6.04797 11.9742C3.16165 14.8604 1.19553 18.5373 0.397989 22.5404C-0.399553 26.5435 0.00727463 30.6932 1.56707 34.4652C3.12687 38.2372 5.76965 41.4623 9.16154 43.7329C12.5534 46.0036 16.5422 47.2181 20.624 47.2228C24.7058 47.2276 28.6974 46.0224 32.0945 43.7596C35.4917 41.4968 38.142 38.2779 39.7105 34.5095C41.2791 30.7412 41.6956 26.5925 40.9074 22.5875C40.1191 18.5826 38.1616 14.9011 35.282 12.0082Z" fill="#FF5B5B"/>
<path d="M24.9949 22.13V4.347C24.9936 3.19451 24.5352 2.0896 23.7203 1.27467C22.9053 0.459734 21.8004 0.00132333 20.6479 0V26.477C21.8004 26.4757 22.9053 26.0173 23.7203 25.2023C24.5352 24.3874 24.9936 23.2825 24.9949 22.13Z" fill="#FF0059"/>
<path d="M35.282 12.0082L35.249 11.9742C34.439 11.1537 33.3363 10.6886 32.1834 10.6812C31.0305 10.6738 29.9219 11.1247 29.1014 11.9347C28.281 12.7447 27.8159 13.8474 27.8085 15.0002C27.8011 16.1531 28.252 17.2617 29.062 18.0822L29.101 18.1222C30.7728 19.794 31.9114 21.924 32.3727 24.2429C32.834 26.5619 32.5973 28.9655 31.6925 31.1498C30.7877 33.3342 29.2554 35.2012 27.2895 36.5147C25.3236 37.8282 23.0123 38.5293 20.6479 38.5292V47.2242C24.7278 47.2243 28.7161 46.0157 32.1097 43.7511C35.5033 41.4864 38.1499 38.2672 39.7155 34.4998C41.2811 30.7323 41.6955 26.5855 40.9065 22.5827C40.1174 18.5799 38.1602 14.8996 35.282 12.0082Z" fill="#FF0059"/>
</svg>
