<svg width="26" height="24" viewBox="0 0 26 24" fill="none" xmlns="http://www.w3.org/2000/svg">
<path d="M8 0H18C20.1217 0 22.1566 0.842855 23.6569 2.34315C25.1571 3.84344 26 5.87827 26 8V16C26 18.1217 25.1571 20.1566 23.6569 21.6569C22.1566 23.1571 20.1217 24 18 24H8C5.87827 24 3.84344 23.1571 2.34315 21.6569C0.842855 20.1566 0 18.1217 0 16V8C0 5.87827 0.842855 3.84344 2.34315 2.34315C3.84344 0.842855 5.87827 0 8 0Z" fill="#595BB5"/>
<path d="M8.127 13.89V15.018C8.127 15.6161 8.36457 16.1896 8.78747 16.6125C9.21036 17.0354 9.78393 17.273 10.382 17.273H16.02C16.6181 17.273 17.1916 17.0354 17.6145 16.6125C18.0374 16.1896 18.275 15.6161 18.275 15.018V8.255C18.275 7.65694 18.0374 7.08337 17.6145 6.66048C17.1916 6.23758 16.6181 6 16.02 6H10.382C9.78393 6 9.21036 6.23758 8.78747 6.66048C8.36457 7.08337 8.127 7.65694 8.127 8.255V9.38301C8.127 9.53259 8.18642 9.67604 8.29219 9.78181C8.39796 9.88759 8.54142 9.94701 8.691 9.94701C8.84058 9.94701 8.98404 9.88759 9.08981 9.78181C9.19558 9.67604 9.255 9.53259 9.255 9.38301V8.255C9.255 7.95584 9.37384 7.66892 9.58538 7.45738C9.79692 7.24584 10.0838 7.127 10.383 7.127H16.021C16.3202 7.127 16.6071 7.24584 16.8186 7.45738C17.0302 7.66892 17.149 7.95584 17.149 8.255V15.021C17.1491 15.1692 17.12 15.3159 17.0634 15.4528C17.0068 15.5897 16.9237 15.7141 16.8189 15.8189C16.7141 15.9237 16.5897 16.0068 16.4528 16.0634C16.3159 16.1201 16.1692 16.1491 16.021 16.149H10.383C10.0838 16.149 9.79692 16.0302 9.58538 15.8186C9.37384 15.6071 9.255 15.3202 9.255 15.021V13.893C9.255 13.7434 9.19558 13.6 9.08981 13.4942C8.98404 13.3884 8.84058 13.329 8.691 13.329C8.54142 13.329 8.39796 13.3884 8.29219 13.4942C8.18642 13.6 8.127 13.7434 8.127 13.893V13.89ZM12.404 11.071L11.675 10.343C11.5689 10.2369 11.5093 10.093 11.5093 9.94301C11.5093 9.79298 11.5689 9.64909 11.675 9.543C11.7811 9.43691 11.925 9.37732 12.075 9.37732C12.225 9.37732 12.3689 9.43691 12.475 9.543L14.166 11.234C14.2187 11.2864 14.2606 11.3487 14.2891 11.4174C14.3177 11.486 14.3324 11.5597 14.3324 11.634C14.3324 11.7084 14.3177 11.782 14.2891 11.8506C14.2606 11.9193 14.2187 11.9816 14.166 12.034L12.475 13.725C12.3689 13.8311 12.225 13.8907 12.075 13.8907C11.925 13.8907 11.7811 13.8311 11.675 13.725C11.5689 13.6189 11.5093 13.475 11.5093 13.325C11.5093 13.175 11.5689 13.0311 11.675 12.925L12.404 12.196H7.564C7.41442 12.196 7.27096 12.1366 7.16519 12.0308C7.05942 11.925 7 11.7816 7 11.632C7 11.4824 7.05942 11.339 7.16519 11.2332C7.27096 11.1274 7.41442 11.068 7.564 11.068L12.404 11.071Z" fill="white"/>
</svg>
