<svg width="26" height="24" viewBox="0 0 26 24" fill="none" xmlns="http://www.w3.org/2000/svg">
<path d="M8 0H18C20.1217 0 22.1566 0.842855 23.6569 2.34315C25.1571 3.84344 26 5.87827 26 8V16C26 18.1217 25.1571 20.1566 23.6569 21.6569C22.1566 23.1571 20.1217 24 18 24H8C5.87827 24 3.84344 23.1571 2.34315 21.6569C0.842855 20.1566 0 18.1217 0 16V8C0 5.87827 0.842855 3.84344 2.34315 2.34315C3.84344 0.842855 5.87827 0 8 0Z" fill="#FF4E15"/>
<path d="M12.7 5C11.1891 5.00264 9.74082 5.60404 8.67243 6.67242C7.60405 7.74081 7.00265 9.18909 7.00001 10.7C6.99808 11.9357 7.40175 13.1379 8.14902 14.122C8.14902 14.122 8.30502 14.322 8.33002 14.357L12.703 19.514L17.078 14.353C17.101 14.326 17.257 14.122 17.257 14.122C18.0035 13.1383 18.4067 11.9369 18.405 10.702C18.4024 9.19107 17.801 7.74279 16.7326 6.67441C15.6642 5.60602 14.2159 5.00466 12.705 5.00201L12.7 5ZM12.7 12.777C12.2196 12.7774 11.754 12.6113 11.3824 12.3068C11.0108 12.0024 10.7563 11.5785 10.6623 11.1074C10.5682 10.6363 10.6405 10.1472 10.8667 9.72342C11.0929 9.29964 11.4591 8.96742 11.9028 8.78339C12.3465 8.59936 12.8403 8.57491 13.3001 8.7142C13.7598 8.8535 14.157 9.14791 14.424 9.54727C14.691 9.94664 14.8112 10.4262 14.7641 10.9043C14.7171 11.3824 14.5057 11.8293 14.166 12.169C13.7769 12.5575 13.2498 12.7761 12.7 12.777Z" fill="white"/>
</svg>
