<svg width="26" height="24" viewBox="0 0 26 24" fill="none" xmlns="http://www.w3.org/2000/svg">
<path d="M8 0H18C20.1217 0 22.1566 0.842855 23.6569 2.34315C25.1571 3.84344 26 5.87827 26 8V16C26 18.1217 25.1571 20.1566 23.6569 21.6569C22.1566 23.1571 20.1217 24 18 24H8C5.87827 24 3.84344 23.1571 2.34315 21.6569C0.842855 20.1566 0 18.1217 0 16V8C0 5.87827 0.842855 3.84344 2.34315 2.34315C3.84344 0.842855 5.87827 0 8 0Z" fill="#6CC5FF"/>
<path fill-rule="evenodd" clip-rule="evenodd" d="M19 6.13953V18.5116C19 18.6004 18.9765 18.6875 18.9322 18.7636C18.8879 18.8397 18.8244 18.9018 18.7486 18.9433C18.6727 18.9847 18.5874 19.004 18.5018 18.9989C18.4162 18.9939 18.3335 18.9647 18.2627 18.9146L16.6944 17.8057L15.2116 18.9081C15.1253 18.9726 15.0204 19.0048 14.9141 18.9994C14.8078 18.9941 14.7063 18.9516 14.6264 18.8788L13.5 17.8584L12.3736 18.8788C12.2937 18.9516 12.1922 18.9941 12.0859 18.9994C11.9796 19.0048 11.8747 18.9726 11.7884 18.9081L10.3056 17.8057L8.73731 18.9146C8.6665 18.9647 8.58383 18.9939 8.4982 18.9989C8.41258 19.004 8.32726 18.9847 8.25141 18.9433C8.17556 18.9018 8.11207 18.8397 8.06777 18.7636C8.02347 18.6875 8.00004 18.6004 8 18.5116V6.13953C8 5.51051 8.49217 5 9.1 5H17.9C18.5078 5 19 5.51051 19 6.13953ZM10.9857 11.186H16.0143C16.1393 11.186 16.2592 11.1346 16.3476 11.043C16.436 10.9514 16.4857 10.8272 16.4857 10.6976C16.4857 10.5681 16.436 10.4439 16.3476 10.3523C16.2592 10.2607 16.1393 10.2093 16.0143 10.2093H10.9857C10.8607 10.2093 10.7408 10.2607 10.6524 10.3523C10.564 10.4439 10.5143 10.5681 10.5143 10.6976C10.5143 10.8272 10.564 10.9514 10.6524 11.043C10.7408 11.1346 10.8607 11.186 10.9857 11.186ZM10.9857 8.58138H16.0143C16.1393 8.58138 16.2592 8.52992 16.3476 8.43834C16.436 8.34675 16.4857 8.22253 16.4857 8.09301C16.4857 7.96348 16.436 7.83926 16.3476 7.74768C16.2592 7.65609 16.1393 7.60464 16.0143 7.60464H10.9857C10.8607 7.60464 10.7408 7.65609 10.6524 7.74768C10.564 7.83926 10.5143 7.96348 10.5143 8.09301C10.5143 8.22253 10.564 8.34675 10.6524 8.43834C10.7408 8.52992 10.8607 8.58138 10.9857 8.58138ZM10.9857 13.7907H13.5C13.625 13.7907 13.7449 13.7392 13.8334 13.6476C13.9218 13.556 13.9714 13.4318 13.9714 13.3023C13.9714 13.1728 13.9218 13.0485 13.8334 12.957C13.7449 12.8654 13.625 12.8139 13.5 12.8139H10.9857C10.8607 12.8139 10.7408 12.8654 10.6524 12.957C10.564 13.0485 10.5143 13.1728 10.5143 13.3023C10.5143 13.4318 10.564 13.556 10.6524 13.6476C10.7408 13.7392 10.8607 13.7907 10.9857 13.7907Z" fill="white"/>
</svg>
