<svg width="26" height="24" viewBox="0 0 26 24" fill="none" xmlns="http://www.w3.org/2000/svg">
<path d="M8 0H18C20.1217 0 22.1566 0.842855 23.6569 2.34315C25.1571 3.84344 26 5.87827 26 8V16C26 18.1217 25.1571 20.1566 23.6569 21.6569C22.1566 23.1571 20.1217 24 18 24H8C5.87827 24 3.84344 23.1571 2.34315 21.6569C0.842855 20.1566 0 18.1217 0 16V8C0 5.87827 0.842855 3.84344 2.34315 2.34315C3.84344 0.842855 5.87827 0 8 0Z" fill="#AA5D24"/>
<path d="M16.0627 13.3919H16.0557C15.067 13.3909 14.1192 12.9977 13.4201 12.2986C12.721 11.5995 12.3277 10.6516 12.3267 9.66294C12.3272 9.11645 12.4488 8.57686 12.6827 8.08294C12.5657 8.07194 12.4467 8.06494 12.3267 8.06494C11.837 8.06547 11.3522 8.16244 10.9 8.35033C10.4477 8.53821 10.037 8.81333 9.69106 9.15997C9.34516 9.50661 9.07093 9.91798 8.88401 10.3706C8.6971 10.8232 8.60116 11.3082 8.60169 11.7979V13.2829C8.60089 13.8034 8.48636 14.3174 8.26613 14.789C8.04589 15.2605 7.72527 15.6783 7.32669 16.0129C7.19189 16.1281 7.09273 16.2793 7.04083 16.4488C6.98893 16.6183 6.98646 16.7991 7.03369 16.9699C7.09749 17.1724 7.2255 17.3486 7.39835 17.4718C7.5712 17.595 7.77949 17.6586 7.99169 17.6529H16.6607C16.8829 17.6591 17.1006 17.5892 17.2777 17.4548C17.4549 17.3205 17.5808 17.1296 17.6347 16.9139C17.6698 16.7474 17.6588 16.5744 17.6027 16.4136C17.5467 16.2529 17.4478 16.1105 17.3167 16.0019C16.9356 15.6796 16.6269 15.2804 16.4108 14.8304C16.1947 14.3804 16.0761 13.8909 16.0627 13.3919Z" fill="white"/>
<path d="M18.7197 9.663C18.7197 10.1896 18.5635 10.7045 18.2709 11.1424C17.9784 11.5803 17.5625 11.9216 17.076 12.1232C16.5894 12.3248 16.054 12.3776 15.5375 12.2749C15.021 12.1722 14.5465 11.9187 14.174 11.5464C13.8015 11.1741 13.5478 10.6996 13.445 10.1831C13.3421 9.66663 13.3947 9.13122 13.5961 8.64461C13.7975 8.15799 14.1387 7.74202 14.5765 7.44928C15.0143 7.15655 15.529 7.0002 16.0557 7C16.4055 6.99987 16.7519 7.06865 17.0751 7.20242C17.3983 7.33619 17.692 7.53233 17.9394 7.77962C18.1867 8.02692 18.383 8.32053 18.5169 8.64368C18.6508 8.96684 18.7197 9.31321 18.7197 9.663Z" fill="white"/>
</svg>
