<svg width="17" height="21" viewBox="0 0 17 21" fill="none" xmlns="http://www.w3.org/2000/svg">
<path d="M7.724 19C5.67294 19.0022 3.63501 18.673 1.689 18.025C1.33878 17.9147 1.01793 17.7269 0.750281 17.4755C0.482632 17.2241 0.275063 16.9157 0.142997 16.573C0.0190346 16.2298 -0.0240697 15.8625 0.0170355 15.4998C0.0581407 15.1372 0.182348 14.7889 0.379997 14.482L1.39 12.8C1.62754 12.3456 1.76399 11.8452 1.79 11.333V8.80005C1.79 7.22744 2.41471 5.71925 3.52671 4.60725C4.6387 3.49526 6.14689 2.87054 7.7195 2.87054C9.2921 2.87054 10.8003 3.49526 11.9123 4.60725C13.0243 5.71925 13.649 7.22744 13.649 8.80005V11.339C13.6772 11.8537 13.8135 12.3566 14.049 12.815L15.049 14.484C15.2354 14.796 15.3495 15.1458 15.3829 15.5076C15.4163 15.8695 15.3682 16.2342 15.242 16.575C15.1178 16.9143 14.9183 17.2209 14.6585 17.4719C14.3987 17.7229 14.0853 17.9116 13.742 18.024C11.7992 18.6726 9.76416 19.0019 7.716 18.999L7.724 19ZM7.724 4.19004C6.50157 4.19137 5.32956 4.67742 4.46499 5.54162C3.60041 6.40582 3.11385 7.57762 3.112 8.80005V11.339C3.0805 12.0888 2.8791 12.8215 2.523 13.482L1.513 15.159C1.41906 15.2977 1.3583 15.4562 1.33541 15.6222C1.31252 15.7881 1.32812 15.9571 1.381 16.116C1.44496 16.2728 1.54389 16.4128 1.67024 16.5254C1.79658 16.6381 1.947 16.7204 2.11 16.766C5.75404 17.9958 9.70095 17.9958 13.345 16.766C13.5005 16.7151 13.6423 16.6292 13.7594 16.515C13.8766 16.4007 13.9661 16.2612 14.021 16.107C14.0789 15.9525 14.101 15.7868 14.0858 15.6225C14.0705 15.4581 14.0183 15.2993 13.933 15.158L12.923 13.48C12.565 12.8171 12.3635 12.0809 12.334 11.328V8.80005C12.3341 8.19452 12.215 7.5949 11.9834 7.03541C11.7518 6.47593 11.4123 5.96755 10.9842 5.53928C10.5561 5.11102 10.0479 4.77126 9.48847 4.53942C8.92909 4.30757 8.32952 4.18818 7.724 4.18804V4.19004Z" fill="black"/>
<path d="M9.35999 4.42002C9.29775 4.41995 9.23582 4.4112 9.17599 4.39402C8.93343 4.32639 8.68698 4.27362 8.43799 4.23602C7.72051 4.13699 6.99019 4.19083 6.29499 4.39402C6.17677 4.43069 6.05056 4.43306 5.93104 4.40085C5.81152 4.36864 5.7036 4.30317 5.61981 4.21206C5.53602 4.12094 5.47982 4.00791 5.45772 3.88612C5.43563 3.76432 5.44855 3.63876 5.49499 3.52402C5.67154 3.07371 5.9797 2.68707 6.37928 2.41453C6.77887 2.14199 7.25132 1.99622 7.73499 1.99622C8.21867 1.99622 8.69112 2.14199 9.0907 2.41453C9.49028 2.68707 9.79845 3.07371 9.97499 3.52402C10.0192 3.63851 10.0311 3.76294 10.0094 3.88374C9.98772 4.00454 9.93327 4.11705 9.85199 4.20902C9.78856 4.27569 9.71224 4.32878 9.62766 4.36505C9.54309 4.40132 9.45202 4.42002 9.35999 4.42002ZM7.72399 21C6.85086 20.9984 6.01394 20.6509 5.39653 20.0335C4.77913 19.4161 4.43158 18.5792 4.42999 17.706H5.74799C5.74799 18.2302 5.95623 18.7329 6.3269 19.1036C6.69756 19.4743 7.20029 19.6825 7.72449 19.6825C8.24869 19.6825 8.75142 19.4743 9.12209 19.1036C9.49275 18.7329 9.70099 18.2302 9.70099 17.706H11.019C11.0174 18.5793 10.6697 19.4164 10.0521 20.0338C9.43448 20.6513 8.5973 20.9987 7.72399 21Z" fill="black"/>
<path d="M12.5 9C14.9853 9 17 6.98528 17 4.5C17 2.01472 14.9853 0 12.5 0C10.0147 0 8 2.01472 8 4.5C8 6.98528 10.0147 9 12.5 9Z" fill="#EB3640"/>
</svg>
