<svg width="26" height="26" viewBox="0 0 26 26" fill="none" xmlns="http://www.w3.org/2000/svg">
<path d="M19.682 22.5836H11.505V17.4696C11.505 16.7626 10.265 16.1916 8.73504 16.1916C8.37763 16.1911 8.021 16.2249 7.67004 16.2926V11.6526C8.78075 8.92341 10.7866 6.65312 13.358 5.21457C13.7223 5.43254 14.1396 5.54602 14.564 5.54257H16.95C17.3782 5.54542 17.7986 5.42871 18.164 5.20557C19.093 5.66557 23.281 8.06457 24.794 14.4906C26.499 21.7306 21.386 22.5836 19.682 22.5836Z" fill="#FFDC00"/>
<path d="M24.794 14.4876C23.281 8.06164 19.094 5.66364 18.164 5.20264C17.9317 5.34407 17.6755 5.44169 17.408 5.49064C18.9805 6.50122 20.3323 7.81953 21.382 9.36624C22.4317 10.9129 23.1576 12.656 23.516 14.4906C25.216 21.7346 20.107 22.5906 18.403 22.5906H19.681C21.386 22.5836 26.499 21.7306 24.794 14.4876Z" fill="#FEC108"/>
<path d="M20.028 0.925734C20.0684 1.6991 19.9387 2.47192 19.6479 3.18967C19.3571 3.90741 18.9123 4.55261 18.345 5.07973C18.2888 5.12588 18.229 5.16736 18.166 5.20373C17.8006 5.42687 17.3802 5.54359 16.952 5.54073H14.564C14.1395 5.54419 13.7223 5.43071 13.358 5.21273C13.294 5.16973 13.23 5.12773 13.171 5.08073C12.6044 4.55287 12.1601 3.9074 11.8693 3.18963C11.5786 2.47185 11.4485 1.69915 11.488 0.925734C11.4883 0.855941 11.5058 0.787296 11.5389 0.725838C11.572 0.664379 11.6196 0.611989 11.6777 0.573274C11.7358 0.534559 11.8025 0.510705 11.8719 0.503811C11.9414 0.496916 12.0115 0.507192 12.076 0.533734C12.621 0.763734 12.805 1.27973 13.631 1.27973C14.692 1.27973 14.692 0.427734 15.753 0.427734C16.814 0.427734 16.818 1.27973 17.883 1.27973C18.71 1.27973 18.893 0.759734 19.438 0.533734C19.5027 0.506768 19.573 0.496158 19.6427 0.502846C19.7124 0.509535 19.7794 0.533313 19.8378 0.572077C19.8961 0.610841 19.944 0.663394 19.9772 0.725081C20.0104 0.786769 20.0278 0.855687 20.028 0.925734Z" fill="#FFDC00"/>
<path d="M19.439 0.53296C19.1907 0.660904 18.959 0.818743 18.749 1.00296C18.7817 1.76392 18.6481 2.52286 18.3576 3.22696C18.0672 3.93106 17.6267 4.56339 17.067 5.07996C17.0117 5.12563 16.9529 5.16676 16.891 5.20296C16.5256 5.4261 16.1051 5.54281 15.677 5.53996H16.951C17.3791 5.54281 17.7996 5.4261 18.165 5.20296C18.228 5.16662 18.2878 5.12514 18.344 5.07896C18.9108 4.55165 19.3552 3.90657 19.646 3.18908C19.9368 2.47158 20.0668 1.69911 20.027 0.92596C20.0267 0.856167 20.0092 0.787523 19.9761 0.726064C19.9431 0.664605 19.8954 0.612215 19.8373 0.5735C19.7792 0.534785 19.7125 0.510931 19.6431 0.504037C19.5736 0.497142 19.5036 0.506418 19.439 0.53296Z" fill="#FEC108"/>
<path d="M7.52097 4.29693C9.30099 4.29693 10.744 3.81608 10.744 3.22293C10.744 2.62977 9.30099 2.14893 7.52097 2.14893C5.74096 2.14893 4.29797 2.62977 4.29797 3.22293C4.29797 3.81608 5.74096 4.29693 7.52097 4.29693Z" fill="#FFDC00"/>
<path d="M10.226 3.40869V7.66069C9.15297 8.83483 8.28822 10.1835 7.66904 11.6487V9.37369C7.66904 8.66669 6.42904 8.09569 4.89904 8.09569C4.82704 8.09569 4.75804 8.09569 4.68604 8.09569V3.40869C4.68604 4.11569 5.92604 4.68669 7.45604 4.68669C8.98604 4.68669 10.226 4.11569 10.226 3.40869Z" fill="#FF9801"/>
<path d="M7.669 9.3737C7.669 10.0807 6.429 10.6517 4.899 10.6517C3.369 10.6517 2.13 10.0817 2.13 9.3737C2.13 8.7007 3.25501 8.1507 4.68701 8.0957C4.75901 8.0957 4.828 8.0957 4.9 8.0957C6.43001 8.0957 7.669 8.6667 7.669 9.3737Z" fill="#FFDC00"/>
<path d="M7.66903 9.37402V16.29C6.66903 16.482 5.96903 16.938 5.96903 17.47V21.731C5.96903 21.024 4.72903 20.453 3.19903 20.453C2.84165 20.4522 2.48502 20.4857 2.13403 20.553V9.37402C2.13403 10.081 3.37403 10.652 4.90403 10.652C6.43403 10.652 7.66903 10.081 7.66903 9.37402Z" fill="#FF9801"/>
<path d="M5.96503 21.7307C5.96503 22.4377 4.72503 23.0087 3.19503 23.0087C1.66503 23.0087 0.426025 22.4387 0.426025 21.7307C0.426025 21.1977 1.12603 20.7417 2.12603 20.5507C2.47872 20.4838 2.83704 20.4509 3.19603 20.4527C4.72603 20.4527 5.96503 21.0237 5.96503 21.7307Z" fill="#FFEB3A"/>
<path d="M5.96503 21.731V23.861C5.96503 24.568 4.72503 25.139 3.19503 25.139C1.66503 25.139 0.426025 24.569 0.426025 23.861V21.731C0.426025 22.438 1.66603 23.009 3.19603 23.009C4.72603 23.009 5.96503 22.438 5.96503 21.731Z" fill="#FFDC00"/>
<path d="M11.504 17.47C11.504 18.177 10.264 18.748 8.73396 18.748C7.20396 18.748 5.96497 18.178 5.96497 17.47C5.96497 16.937 6.66497 16.481 7.66497 16.29C8.01766 16.223 8.37598 16.1902 8.73497 16.192C10.265 16.192 11.504 16.763 11.504 17.47Z" fill="#FFEB3A"/>
<path d="M11.504 17.4697V23.0087C11.504 23.7157 10.264 24.2867 8.73396 24.2867C7.20396 24.2867 5.96497 23.7167 5.96497 23.0087V17.4697C5.96497 18.1767 7.20497 18.7477 8.73497 18.7477C10.265 18.7477 11.504 18.1767 11.504 17.4697Z" fill="#FFDC00"/>
<path d="M20.14 5.9928C22.254 6.1518 22.934 7.0318 22.954 7.0578C22.9854 7.10416 23.0256 7.14388 23.0723 7.1747C23.1191 7.20551 23.1714 7.22682 23.2264 7.23741C23.2814 7.24799 23.3379 7.24765 23.3927 7.23639C23.4476 7.22513 23.4996 7.20319 23.546 7.1718C23.5924 7.14041 23.6321 7.10021 23.6629 7.05347C23.6937 7.00673 23.715 6.95438 23.7256 6.89941C23.7362 6.84444 23.7358 6.78792 23.7246 6.73308C23.7133 6.67824 23.6914 6.62616 23.66 6.5798C23.0588 5.88438 22.2262 5.43006 21.316 5.3008C21.5335 5.12203 21.7097 4.8984 21.8328 4.64521C21.9559 4.39202 22.0228 4.11524 22.029 3.8338C22.0009 3.37383 21.8283 2.93448 21.5358 2.5784C21.2432 2.22231 20.8458 1.96768 20.4 1.8508C20.4375 1.54288 20.4566 1.233 20.457 0.922801C20.4568 0.782155 20.4218 0.643746 20.3551 0.519926C20.2884 0.396106 20.192 0.290726 20.0747 0.21319C19.9573 0.135654 19.8226 0.088374 19.6826 0.0755683C19.5425 0.0627625 19.4015 0.0848298 19.272 0.139801C19.057 0.237481 18.8572 0.365815 18.679 0.520801C18.5749 0.626018 18.4509 0.709544 18.3143 0.766548C18.1776 0.823552 18.031 0.852902 17.883 0.852902C17.735 0.852902 17.5884 0.823552 17.4517 0.766548C17.3151 0.709544 17.1911 0.626018 17.087 0.520801C16.7249 0.18627 16.25 0.000488281 15.757 0.000488281C15.264 0.000488281 14.7891 0.18627 14.427 0.520801C14.3228 0.626169 14.1988 0.709823 14.0621 0.766916C13.9254 0.82401 13.7787 0.853408 13.6305 0.853408C13.4823 0.853408 13.3356 0.82401 13.1989 0.766916C13.0622 0.709823 12.9382 0.626169 12.834 0.520801C12.6564 0.366262 12.4573 0.238267 12.243 0.140801C12.1136 0.0862587 11.9728 0.064529 11.833 0.0775439C11.6932 0.0905588 11.5588 0.137915 11.4418 0.215401C11.3247 0.292888 11.2286 0.398103 11.162 0.521691C11.0954 0.645279 11.0603 0.78341 11.06 0.923801C10.9946 2.47885 11.5484 3.99639 12.6 5.1438C11.9024 5.56795 11.2509 6.06363 10.656 6.6228V3.4088C10.656 2.4368 9.282 1.7088 7.456 1.7088C5.63 1.7088 4.256 2.4418 4.256 3.4088V7.7008C2.767 7.8508 1.7 8.5228 1.7 9.3748V20.2128C0.671 20.4898 0 21.0498 0 21.7318V23.8618C0 24.8338 1.374 25.5618 3.2 25.5618C4.829 25.5618 6.1 24.9748 6.348 24.1558C7.08359 24.5453 7.90806 24.7363 8.74 24.7098C10.562 24.7098 11.94 23.9768 11.94 23.0098V17.4708C11.94 16.4988 10.566 15.7708 8.74 15.7708C8.527 15.7708 8.313 15.7818 8.101 15.8028V9.3748C8.101 8.4418 6.833 7.7308 5.118 7.6748V4.5888C5.84298 4.9575 6.64901 5.13803 7.462 5.1138C8.27297 5.13702 9.07682 4.95652 9.8 4.5888V7.4948C9.50333 7.82813 9.223 8.17313 8.959 8.5298C8.90228 8.62119 8.88223 8.73064 8.90287 8.83619C8.92351 8.94175 8.98332 9.03559 9.07028 9.09888C9.15724 9.16217 9.26492 9.19022 9.3717 9.17741C9.47849 9.1646 9.57648 9.11187 9.646 9.0298C9.91964 8.65926 10.2131 8.30374 10.525 7.9648L10.535 7.9538C11.3483 7.05111 12.3032 6.28679 13.362 5.6908C13.5707 5.7916 13.7915 5.8652 14.019 5.9098L12.919 6.9348C12.8781 6.97302 12.8451 7.01891 12.8219 7.06987C12.7988 7.12083 12.7859 7.17586 12.784 7.23181C12.7821 7.28775 12.7912 7.34353 12.8109 7.39594C12.8305 7.44836 12.8603 7.49639 12.8985 7.5373C12.9367 7.57821 12.9826 7.61119 13.0336 7.63436C13.0845 7.65752 13.1396 7.67043 13.1955 7.67233C13.2515 7.67424 13.3072 7.6651 13.3596 7.64545C13.4121 7.6258 13.4601 7.59602 13.501 7.5578L15.201 5.9678H15.337V7.2458C15.337 7.35878 15.3819 7.46714 15.4618 7.54703C15.5417 7.62692 15.65 7.6718 15.763 7.6718C15.876 7.6718 15.9843 7.62692 16.0642 7.54703C16.1441 7.46714 16.189 7.35878 16.189 7.2458V5.9658H16.325L18.025 7.5558C18.1076 7.63298 18.2175 7.67418 18.3305 7.67033C18.4435 7.66649 18.5503 7.61792 18.6275 7.5353C18.7047 7.45269 18.7459 7.3428 18.742 7.2298C18.7382 7.11681 18.6896 7.00998 18.607 6.9328L17.513 5.9008C17.7392 5.85615 17.9586 5.78254 18.166 5.6818C19.292 6.2908 22.994 8.6988 24.381 14.5818C24.981 17.1438 24.767 19.1028 23.735 20.4048C23.2204 20.9649 22.5934 21.4102 21.895 21.7116C21.1967 22.0129 20.4426 22.1636 19.682 22.1538H13.635C13.522 22.1538 13.4137 22.1987 13.3338 22.2786C13.2539 22.3585 13.209 22.4668 13.209 22.5798C13.209 22.6928 13.2539 22.8011 13.3338 22.881C13.4137 22.9609 13.522 23.0058 13.635 23.0058H19.681C20.5703 23.0224 21.4526 22.8461 22.2672 22.4891C23.0819 22.1321 23.8095 21.6029 24.4 20.9378C25.6 19.4218 25.873 17.2188 25.207 14.3908C24.5175 11.0985 22.7311 8.13772 20.14 5.9928ZM3.2 20.8788C4.609 20.8788 5.544 21.3898 5.544 21.7308C5.544 22.0718 4.61 22.5828 3.2 22.5828C1.79 22.5828 0.852 22.0718 0.852 21.7318C0.852 21.3918 1.787 20.8788 3.2 20.8788ZM3.2 24.7138C1.791 24.7138 0.856 24.2028 0.856 23.8618V22.9108C1.58098 23.2795 2.38701 23.46 3.2 23.4358C4.01299 23.46 4.81902 23.2795 5.544 22.9108V23.8618C5.539 24.2008 4.6 24.7138 3.2 24.7138ZM8.739 23.8618C7.33 23.8618 6.395 23.3508 6.395 23.0098V18.6498C7.11998 19.0185 7.92601 19.199 8.739 19.1748C9.55199 19.199 10.358 19.0185 11.083 18.6498V23.0088C11.079 23.3508 10.144 23.8618 8.735 23.8618H8.739ZM11.083 17.4708C11.083 17.8118 10.149 18.3228 8.739 18.3228C7.329 18.3228 6.395 17.8118 6.395 17.4708C6.395 17.1298 7.329 16.6188 8.739 16.6188C10.149 16.6188 11.079 17.1298 11.079 17.4708H11.083ZM5.544 17.4708V20.5518C4.81902 20.1831 4.01299 20.0026 3.2 20.0268C2.987 20.0268 2.773 20.0378 2.561 20.0588V10.5588C3.28598 10.9275 4.09201 11.108 4.905 11.0838C5.71799 11.108 6.52402 10.9275 7.249 10.5588V15.9588C6.214 16.2278 5.539 16.7888 5.539 17.4708H5.544ZM7.244 9.3708C7.244 9.7118 6.31 10.2228 4.9 10.2228C3.49 10.2228 2.556 9.7118 2.556 9.3708C2.556 9.0298 3.49 8.5188 4.9 8.5188C6.31 8.5188 7.244 9.0338 7.244 9.3748V9.3708ZM7.457 4.2578C6.048 4.2578 5.113 3.7468 5.113 3.4058C5.113 3.0648 6.047 2.5538 7.457 2.5538C8.867 2.5538 9.8 3.0678 9.8 3.4088C9.8 3.7498 8.866 4.2618 7.457 4.2618V4.2578ZM21.177 3.8318C21.177 4.5318 20.421 5.1028 19.477 5.1098C19.3167 5.11057 19.1567 5.0938 19 5.0598C19.6192 4.39932 20.0495 3.58457 20.246 2.7008C20.4969 2.77484 20.7198 2.92252 20.8858 3.12471C21.0518 3.3269 21.1532 3.57428 21.177 3.8348V3.8318ZM12.3 1.1848C12.6619 1.51898 13.1364 1.70455 13.629 1.70455C14.1216 1.70455 14.5961 1.51898 14.958 1.1848C15.0623 1.0794 15.1864 0.995728 15.3232 0.938621C15.46 0.881515 15.6068 0.85211 15.755 0.85211C15.9032 0.85211 16.05 0.881515 16.1868 0.938621C16.3236 0.995728 16.4478 1.0794 16.552 1.1848C16.9142 1.51912 17.3891 1.70475 17.882 1.70475C18.3749 1.70475 18.8498 1.51912 19.212 1.1848C19.3301 1.08053 19.4616 0.992421 19.603 0.922801C19.6387 1.63132 19.5214 2.33921 19.2591 2.99837C18.9968 3.65752 18.5957 4.25247 18.083 4.7428C17.774 4.97483 17.3994 5.10296 17.013 5.1088C17.382 4.47513 17.6741 3.79969 17.883 3.0968C17.9132 2.9878 17.8989 2.87125 17.8432 2.77279C17.7875 2.67433 17.695 2.60204 17.586 2.5718C17.477 2.54157 17.3604 2.55587 17.262 2.61157C17.1635 2.66727 17.0912 2.7598 17.061 2.8688C16.8249 3.66975 16.4619 4.42769 15.986 5.1138H15.548C15.0732 4.42705 14.7103 3.66929 14.473 2.8688C14.458 2.81489 14.4325 2.76448 14.3979 2.72043C14.3634 2.67638 14.3206 2.63956 14.2718 2.61207C14.1733 2.55656 14.0569 2.54243 13.948 2.5728C13.8391 2.60317 13.7468 2.67554 13.6913 2.774C13.6358 2.87245 13.6216 2.98893 13.652 3.0978C13.8612 3.80106 14.1536 4.47684 14.523 5.1108C14.1289 5.10879 13.7459 4.97973 13.431 4.7428C12.9185 4.25293 12.5175 3.65848 12.2553 2.99985C11.993 2.34122 11.8756 1.63385 11.911 0.925801C12.0522 0.993417 12.1832 1.08061 12.3 1.1848Z" fill="black"/>
<path d="M23.067 19.874C23.5719 19.1795 23.8455 18.3437 23.849 17.485C23.8544 17.3722 23.8148 17.2618 23.7389 17.1781C23.6629 17.0945 23.5568 17.0445 23.444 17.039C23.3315 17.0349 23.2218 17.075 23.1385 17.1507C23.0551 17.2263 23.0047 17.3316 22.998 17.444C23.001 18.1244 22.7912 18.7887 22.398 19.344C22.0451 19.7044 21.6217 19.988 21.1542 20.1773C20.6867 20.3666 20.1852 20.4574 19.681 20.444C19.568 20.444 19.4597 20.4889 19.3798 20.5688C19.2999 20.6487 19.255 20.757 19.255 20.87C19.255 20.983 19.2999 21.0914 19.3798 21.1712C19.4597 21.2511 19.568 21.296 19.681 21.296C20.3134 21.3083 20.9413 21.1881 21.5244 20.9432C22.1076 20.6983 22.633 20.3341 23.067 19.874ZM14.488 14.483C14.488 14.37 14.4431 14.2617 14.3632 14.1818C14.2833 14.1019 14.175 14.057 14.062 14.057C13.949 14.057 13.8407 14.1019 13.7608 14.1818C13.6809 14.2617 13.636 14.37 13.636 14.483C13.636 14.9339 13.8151 15.3663 14.1339 15.6851C14.4527 16.0039 14.8851 16.183 15.336 16.183V16.609C15.336 16.722 15.3809 16.8304 15.4608 16.9103C15.5407 16.9901 15.649 17.035 15.762 17.035C15.875 17.035 15.9833 16.9901 16.0632 16.9103C16.1431 16.8304 16.188 16.722 16.188 16.609V16.183C16.6401 16.183 17.0736 16.0034 17.3933 15.6838C17.7129 15.3641 17.8925 14.9306 17.8925 14.4785C17.8925 14.0265 17.7129 13.5929 17.3933 13.2733C17.0736 12.9536 16.6401 12.774 16.188 12.774V11.074C16.414 11.074 16.6307 11.1638 16.7905 11.3236C16.9502 11.4833 17.04 11.7001 17.04 11.926C17.04 11.982 17.051 12.0374 17.0724 12.089C17.0938 12.1407 17.1252 12.1877 17.1648 12.2273C17.2043 12.2668 17.2513 12.2982 17.303 12.3196C17.3547 12.341 17.4101 12.352 17.466 12.352C17.5219 12.352 17.5773 12.341 17.629 12.3196C17.6807 12.2982 17.7277 12.2668 17.7672 12.2273C17.8068 12.1877 17.8382 12.1407 17.8596 12.089C17.881 12.0374 17.892 11.982 17.892 11.926C17.892 11.7028 17.848 11.4817 17.7626 11.2755C17.6772 11.0692 17.5519 10.8818 17.3941 10.7239C17.2362 10.5661 17.0488 10.4409 16.8426 10.3554C16.6363 10.27 16.4152 10.226 16.192 10.226V9.80002C16.192 9.68704 16.1471 9.57869 16.0672 9.4988C15.9873 9.41891 15.879 9.37402 15.766 9.37402C15.653 9.37402 15.5447 9.41891 15.4648 9.4988C15.3849 9.57869 15.34 9.68704 15.34 9.80002V10.226C14.8879 10.226 14.4544 10.4056 14.1347 10.7253C13.8151 11.0449 13.6355 11.4785 13.6355 11.9305C13.6355 12.3826 13.8151 12.8161 14.1347 13.1358C14.4544 13.4554 14.8879 13.635 15.34 13.635V15.335C15.1146 15.3353 14.8982 15.2462 14.7383 15.0872C14.5784 14.9283 14.4881 14.7125 14.487 14.487L14.488 14.483ZM14.488 11.926C14.488 11.7009 14.5771 11.485 14.7358 11.3253C14.8945 11.1657 15.1099 11.0753 15.335 11.074V12.774C15.1113 12.773 14.8969 12.684 14.7383 12.5263C14.5796 12.3685 14.4894 12.1547 14.487 11.931L14.488 11.926ZM16.188 13.626C16.4034 13.6408 16.6051 13.7368 16.7524 13.8946C16.8997 14.0523 16.9817 14.2602 16.9817 14.476C16.9817 14.6919 16.8997 14.8997 16.7524 15.0575C16.6051 15.2153 16.4034 15.3112 16.188 15.326V13.626Z" fill="black"/>
</svg>
