<svg width="26" height="24" viewBox="0 0 26 24" fill="none" xmlns="http://www.w3.org/2000/svg">
<path d="M8 0H18C20.1217 0 22.1566 0.842855 23.6569 2.34315C25.1571 3.84344 26 5.87827 26 8V16C26 18.1217 25.1571 20.1566 23.6569 21.6569C22.1566 23.1571 20.1217 24 18 24H8C5.87827 24 3.84344 23.1571 2.34315 21.6569C0.842855 20.1566 0 18.1217 0 16V8C0 5.87827 0.842855 3.84344 2.34315 2.34315C3.84344 0.842855 5.87827 0 8 0Z" fill="#34C47C"/>
<path d="M18.5924 11.1381C18.574 10.1031 18.4811 9.0708 18.3144 8.04915C18.2079 7.84227 18.0303 7.68072 17.8144 7.59415C16.3594 7.03115 14.9324 6.49615 13.5414 6.03615C13.4005 5.98925 13.2482 5.98925 13.1074 6.03615C11.7174 6.49315 10.2904 7.02915 8.84036 7.59115C8.6481 7.66683 8.48514 7.80211 8.37536 7.97715C8.13853 8.98318 8.02105 10.0136 8.02536 11.0471C7.95543 11.9695 8.03034 12.897 8.24736 13.7961C8.42044 14.3136 8.68871 14.7942 9.03836 15.2131C9.53998 15.822 10.1104 16.3706 10.7384 16.8481C11.4491 17.4076 12.2116 17.8982 13.0154 18.3131C13.1112 18.3607 13.2168 18.3855 13.3239 18.3855C13.4309 18.3855 13.5365 18.3607 13.6324 18.3131C14.4364 17.8977 15.1992 17.4069 15.9104 16.8471C16.5379 16.3692 17.1083 15.8206 17.6104 15.2121C17.9835 14.7679 18.2625 14.2525 18.4304 13.6971C18.5748 12.854 18.6287 11.9978 18.5914 11.1431L18.5924 11.1381Z" fill="white"/>
<path d="M13.1084 6.03617C11.7184 6.49317 10.2914 7.02917 8.84136 7.59117C8.64911 7.66686 8.48614 7.80213 8.37636 7.97717C8.13952 8.98321 8.02205 10.0136 8.02636 11.0472C7.95663 11.9678 8.0312 12.8936 8.24737 13.7912C8.42044 14.3087 8.68872 14.7892 9.03837 15.2082C9.15537 15.3552 9.28436 15.5082 9.42236 15.6522C9.62236 15.6702 9.82503 15.6792 10.0304 15.6792C11.0727 15.6785 12.1007 15.4356 13.0332 14.9699C13.9657 14.5041 14.7772 13.828 15.4038 12.9951C16.0305 12.1621 16.4551 11.195 16.6441 10.1699C16.8332 9.14485 16.7816 8.08988 16.4934 7.08817C15.4934 6.71217 14.5094 6.35417 13.5414 6.03517C13.4005 5.98828 13.2482 5.98828 13.1074 6.03517L13.1084 6.03617Z" fill="white"/>
<path d="M13.8984 12.5241V13.6501C13.8984 13.8025 13.8378 13.9486 13.7301 14.0564C13.6224 14.1641 13.4762 14.2246 13.3239 14.2246C13.1715 14.2246 13.0254 14.1641 12.9176 14.0564C12.8099 13.9486 12.7494 13.8025 12.7494 13.6501V12.5401C12.4968 12.4147 12.2937 12.2081 12.1728 11.9534C12.0518 11.6987 12.0201 11.4107 12.0825 11.1357C12.145 10.8607 12.2981 10.6148 12.5173 10.4373C12.7364 10.2599 13.0088 10.1613 13.2908 10.1573C13.5727 10.1534 13.8478 10.2444 14.0718 10.4157C14.2958 10.587 14.4557 10.8286 14.5258 11.1017C14.5959 11.3748 14.5722 11.6636 14.4584 11.9215C14.3446 12.1795 14.1473 12.3918 13.8984 12.5241Z" fill="#34C47C"/>
</svg>
