<svg width="23" height="24" viewBox="0 0 23 24" fill="none" xmlns="http://www.w3.org/2000/svg">
<g clip-path="url(#clip0_168_464)">
<path d="M22.9114 9.53042L20.7595 6.13566C20.6989 6.04051 20.6125 5.96457 20.5103 5.91672L11.7575 1.78507C11.6773 1.74723 11.5896 1.72795 11.501 1.72866C11.4123 1.72936 11.3249 1.75004 11.2453 1.78915L2.47814 6.09978C2.38528 6.1458 2.30601 6.21521 2.24814 6.30118L0.0962165 9.51828C-0.0895036 9.79595 0.00279132 10.1917 0.293584 10.358L2.14857 11.4193V16.3716C2.14858 16.4789 2.17788 16.5842 2.23331 16.6761C2.28875 16.7681 2.36822 16.8431 2.46315 16.8932L11.2245 21.5161C11.3977 21.6073 11.612 21.6056 11.7837 21.5115L20.5451 16.7042C20.8307 16.5475 20.9352 16.189 20.7784 15.9034C20.6217 15.6179 20.263 15.5135 19.9775 15.6701L12.0898 19.998V12.9376L13.6883 14.9418C13.8653 15.1637 14.1967 15.2266 14.4425 15.086L22.7062 10.358C22.9913 10.1948 23.0878 9.80868 22.9114 9.53042ZM11.5109 2.97306L18.9625 6.49044L11.4946 10.5823L4.03747 6.64756L11.5109 2.97306ZM2.93333 7.39869L10.5945 11.4411L8.70436 13.8111L1.42855 9.64837L2.93333 7.39869ZM3.3284 16.016V12.0943L8.55732 15.086C8.80295 15.2265 9.13478 15.1634 9.31155 14.9418L10.91 12.9376V20.0164L3.3284 16.016ZM14.2954 13.8111L12.3982 11.4322L20.0593 7.2345L21.5845 9.64065L14.2954 13.8111Z" fill="#A3A3A3"/>
<path d="M20.2612 14.595C20.6413 14.595 20.9495 14.2868 20.9495 13.9067C20.9495 13.5266 20.6413 13.2185 20.2612 13.2185C19.8811 13.2185 19.573 13.5266 19.573 13.9067C19.573 14.2868 19.8811 14.595 20.2612 14.595Z" fill="#A3A3A3"/>
</g>
<defs>
<clipPath id="clip0_168_464">
<rect width="23" height="23" fill="white" transform="translate(0 0.156006)"/>
</clipPath>
</defs>
</svg>
