<svg width="26" height="24" viewBox="0 0 26 24" fill="none" xmlns="http://www.w3.org/2000/svg">
<path d="M8 0H18C20.1217 0 22.1566 0.842855 23.6569 2.34315C25.1571 3.84344 26 5.87827 26 8V16C26 18.1217 25.1571 20.1566 23.6569 21.6569C22.1566 23.1571 20.1217 24 18 24H8C5.87827 24 3.84344 23.1571 2.34315 21.6569C0.842855 20.1566 0 18.1217 0 16V8C0 5.87827 0.842855 3.84344 2.34315 2.34315C3.84344 0.842855 5.87827 0 8 0Z" fill="#FD1313"/>
<path d="M12.9995 6C12.379 6 11.7725 6.18398 11.2567 6.52868C10.7408 6.87338 10.3387 7.36331 10.1013 7.93652C9.86385 8.50973 9.80172 9.14048 9.92277 9.749C10.0438 10.3575 10.3426 10.9165 10.7813 11.3552C11.22 11.7939 11.779 12.0927 12.3875 12.2137C12.996 12.3348 13.6268 12.2726 14.2 12.0352C14.7732 11.7978 15.2631 11.3957 15.6078 10.8798C15.9525 10.3639 16.1365 9.75744 16.1365 9.137C16.1357 8.30526 15.8049 7.50781 15.2168 6.91968C14.6287 6.33155 13.8312 6.00079 12.9995 6ZM16.8995 14.323C16.4825 13.8949 15.984 13.5546 15.4334 13.3224C14.8827 13.0902 14.2911 12.9707 13.6935 12.971H12.3025C11.7049 12.9707 11.1133 13.0902 10.5626 13.3224C10.012 13.5546 9.51343 13.8949 9.09649 14.323C8.24608 15.1807 7.76972 16.3402 7.77149 17.548C7.77149 17.6406 7.80826 17.7293 7.87371 17.7948C7.93916 17.8602 8.02793 17.897 8.12049 17.897H17.8795C17.9721 17.897 18.0608 17.8602 18.1263 17.7948C18.1917 17.7293 18.2285 17.6406 18.2285 17.548C18.23 16.34 17.7533 15.1806 16.9025 14.323H16.8995Z" fill="white"/>
</svg>
