<svg width="15" height="19" viewBox="0 0 15 19" fill="none" xmlns="http://www.w3.org/2000/svg">
<path d="M7.18802 9.00401C6.31303 9.00401 5.4577 8.74455 4.73018 8.25843C4.00266 7.77232 3.43561 7.08138 3.10077 6.273C2.76593 5.46462 2.67831 4.5751 2.84901 3.71693C3.01972 2.85876 3.44106 2.07048 4.05977 1.45177C4.67848 0.833061 5.46676 0.411715 6.32494 0.241014C7.18311 0.0703128 8.07263 0.157923 8.88101 0.492765C9.68939 0.827607 10.3803 1.39464 10.8664 2.12217C11.3526 2.84969 11.612 3.70503 11.612 4.58001C11.6107 5.75292 11.1442 6.87741 10.3148 7.70679C9.48541 8.53616 8.36093 9.00269 7.18802 9.00401ZM7.18802 1.58101C6.59467 1.58101 6.01465 1.75695 5.5213 2.0866C5.02795 2.41624 4.64345 2.88478 4.41638 3.43296C4.18932 3.98114 4.1299 4.58434 4.24565 5.16628C4.36141 5.74822 4.64714 6.28277 5.0667 6.70233C5.48625 7.12189 6.02079 7.40761 6.60274 7.52337C7.18468 7.63912 7.78788 7.57971 8.33606 7.35265C8.88424 7.12558 9.35277 6.74107 9.68242 6.24772C10.0121 5.75437 10.188 5.17435 10.188 4.58101C10.188 3.78536 9.87195 3.0223 9.30934 2.45969C8.74673 1.89708 7.98367 1.58101 7.18802 1.58101Z" fill="#A3A3A3"/>
<path d="M9.953 18.642H4.424C3.25068 18.642 2.12542 18.1759 1.29576 17.3462C0.4661 16.5165 0 15.3913 0 14.218C0 13.0446 0.4661 11.9194 1.29576 11.0897C2.12542 10.2601 3.25068 9.79395 4.424 9.79395H9.953C11.1263 9.79395 12.2516 10.2601 13.0812 11.0897C13.9109 11.9194 14.377 13.0446 14.377 14.218C14.377 15.3913 13.9109 16.5165 13.0812 17.3462C12.2516 18.1759 11.1263 18.642 9.953 18.642ZM4.424 11.22C3.62835 11.22 2.86529 11.536 2.30268 12.0986C1.74007 12.6612 1.424 13.4243 1.424 14.22C1.424 15.0156 1.74007 15.7787 2.30268 16.3413C2.86529 16.9039 3.62835 17.22 4.424 17.22H9.953C10.7486 17.22 11.5117 16.9039 12.0743 16.3413C12.6369 15.7787 12.953 15.0156 12.953 14.22C12.953 13.4243 12.6369 12.6612 12.0743 12.0986C11.5117 11.536 10.7486 11.22 9.953 11.22H4.424Z" fill="#A3A3A3"/>
</svg>
