<svg width="15" height="16" viewBox="0 0 15 16" fill="none" xmlns="http://www.w3.org/2000/svg">
<path d="M9.47999 1.58H4.73999C4.63624 1.58 4.53351 1.55957 4.43767 1.51986C4.34182 1.48016 4.25473 1.42197 4.18137 1.34861C4.10801 1.27526 4.04982 1.18817 4.01012 1.09232C3.97042 0.996473 3.94999 0.893744 3.94999 0.79C3.94999 0.686256 3.97042 0.583527 4.01012 0.48768C4.04982 0.391833 4.10801 0.304744 4.18137 0.231386C4.25473 0.158027 4.34182 0.0998363 4.43767 0.0601351C4.53351 0.0204339 4.63624 -2.18625e-09 4.73999 0H9.47999C9.58373 -2.18625e-09 9.68646 0.0204339 9.78231 0.0601351C9.87815 0.0998363 9.96524 0.158027 10.0386 0.231386C10.112 0.304744 10.1701 0.391833 10.2099 0.48768C10.2496 0.583527 10.27 0.686256 10.27 0.79C10.27 0.893744 10.2496 0.996473 10.2099 1.09232C10.1701 1.18817 10.112 1.27526 10.0386 1.34861C9.96524 1.42197 9.87815 1.48016 9.78231 1.51986C9.68646 1.55957 9.58373 1.58 9.47999 1.58ZM9.47999 15.798H4.73999C4.32501 15.798 3.9141 15.7163 3.53071 15.5575C3.14732 15.3987 2.79896 15.1659 2.50553 14.8725C2.2121 14.579 1.97933 14.2307 1.82053 13.8473C1.66172 13.4639 1.57999 13.053 1.57999 12.638V3.16H12.639V12.639C12.6391 13.054 12.5575 13.4649 12.3988 13.8484C12.2401 14.2318 12.0075 14.5802 11.7142 14.8738C11.4208 15.1673 11.0725 15.4002 10.6892 15.5591C10.3059 15.718 9.89496 15.7999 9.47999 15.8V15.798Z" fill="#E63946"/>
<path d="M13.428 4.74016H0.79C0.580479 4.74016 0.379539 4.65692 0.231386 4.50877C0.083232 4.36062 0 4.15968 0 3.95016C0 3.74064 0.083232 3.5397 0.231386 3.39154C0.379539 3.24339 0.580479 3.16016 0.79 3.16016H13.428C13.6375 3.16016 13.8385 3.24339 13.9866 3.39154C14.1348 3.5397 14.218 3.74064 14.218 3.95016C14.218 4.15968 14.1348 4.36062 13.9866 4.50877C13.8385 4.65692 13.6375 4.74016 13.428 4.74016Z" fill="#C9273A"/>
<path d="M5.52901 12.6378C5.31949 12.6378 5.11855 12.5546 4.9704 12.4065C4.82225 12.2583 4.73901 12.0574 4.73901 11.8478V7.10885C4.73901 6.89933 4.82225 6.69839 4.9704 6.55023C5.11855 6.40208 5.31949 6.31885 5.52901 6.31885C5.73853 6.31885 5.93947 6.40208 6.08763 6.55023C6.23578 6.69839 6.31901 6.89933 6.31901 7.10885V11.8478C6.31901 12.0574 6.23578 12.2583 6.08763 12.4065C5.93947 12.5546 5.73853 12.6378 5.52901 12.6378ZM8.68901 12.6378C8.47949 12.6378 8.27855 12.5546 8.1304 12.4065C7.98225 12.2583 7.89901 12.0574 7.89901 11.8478V7.10885C7.89901 6.89933 7.98225 6.69839 8.1304 6.55023C8.27855 6.40208 8.47949 6.31885 8.68901 6.31885C8.89853 6.31885 9.09947 6.40208 9.24763 6.55023C9.39578 6.69839 9.47901 6.89933 9.47901 7.10885V11.8478C9.47901 12.0574 9.39578 12.2583 9.24763 12.4065C9.09947 12.5546 8.89853 12.6378 8.68901 12.6378Z" fill="#EDEBEA"/>
</svg>
