<svg width="108" height="118" viewBox="0 0 108 118" fill="none" xmlns="http://www.w3.org/2000/svg">
<path d="M54.001 25.3506L56.648 28.9233L54.001 32.2638C50.2265 32.2708 46.609 33.7794 43.9422 36.4585C41.2755 39.1376 39.7774 42.7684 39.7767 46.554V52.0316C39.784 52.4895 39.7004 52.9442 39.5308 53.3694C39.3611 53.7945 39.1088 54.1816 38.7885 54.508C38.4683 54.8344 38.0865 55.0936 37.6653 55.2705C37.2442 55.4474 36.7922 55.5386 36.3356 55.5386C35.879 55.5386 35.427 55.4474 35.0059 55.2705C34.5847 55.0936 34.2029 54.8344 33.8827 54.508C33.5624 54.1816 33.3101 53.7945 33.1404 53.3694C32.9708 52.9442 32.8872 52.4895 32.8945 52.0316V46.554C32.8961 40.937 35.1192 35.55 39.0762 31.5749C43.0331 27.5998 48.4006 25.3613 54.001 25.3506Z" fill="#6090CF"/>
<path d="M75.1065 46.554V52.0316C75.1138 52.4895 75.0302 52.9442 74.8606 53.3694C74.6909 53.7945 74.4386 54.1816 74.1184 54.508C73.7981 54.8344 73.4163 55.0936 72.9951 55.2705C72.574 55.4474 72.122 55.5386 71.6654 55.5386C71.2088 55.5386 70.7568 55.4474 70.3357 55.2705C69.9145 55.0936 69.5328 54.8344 69.2125 54.508C68.8922 54.1816 68.6399 53.7945 68.4702 53.3694C68.3006 52.9442 68.217 52.4895 68.2243 52.0316V46.554C68.2229 42.7688 66.7245 39.1387 64.0578 36.4602C61.3912 33.7817 57.774 32.2734 54 32.2664V25.3506C59.6005 25.3613 64.9679 27.5998 68.9249 31.5749C72.8818 35.55 75.1049 40.937 75.1065 46.554Z" fill="#595BB5"/>
<path d="M54.0001 48.571L66.3323 72.788L54.0001 89.4204H36.9993C34.4893 89.415 32.0839 88.4114 30.3106 86.6296C28.5374 84.8478 27.5412 82.4334 27.5405 79.9159V58.0755C27.5412 55.558 28.5374 53.1436 30.3106 51.3618C32.0839 49.5801 34.4893 48.5764 36.9993 48.571H54.0001Z" fill="#595BB5"/>
<path d="M80.4587 58.0764V79.9177C80.458 82.435 79.4619 84.8493 77.6889 86.631C75.9159 88.4128 73.5107 89.4166 71.0008 89.4222H54V48.5719H71.0008C73.5108 48.5773 75.9163 49.5809 77.6895 51.3627C79.4627 53.1445 80.4589 55.5589 80.4596 58.0764H80.4587Z" fill="#6090CF"/>
<path d="M48.853 8.87736C48.8421 8.29314 48.6842 7.72114 48.3941 7.21441C48.104 6.70768 47.691 6.28263 47.1934 5.97867L38.1495 0.497571C37.3673 0.0339536 36.434 -0.100928 35.5531 0.122294C34.6721 0.345516 33.9148 0.908764 33.4459 1.6894C32.9771 2.47003 32.8347 3.40484 33.0498 4.29026C33.2649 5.17569 33.82 5.94004 34.5943 6.41687L36.6054 7.63519C25.2342 11.5308 15.4794 19.1116 8.87884 29.1823C2.27831 39.253 -0.792375 51.2407 0.150946 63.2553C1.09427 75.2699 5.99794 86.6277 14.0888 95.5381C22.1796 104.449 32.9973 110.405 44.8362 112.467C45.733 112.611 46.6503 112.395 47.3889 111.865C48.1275 111.335 48.6275 110.533 48.7804 109.635C48.9332 108.737 48.7265 107.815 48.2052 107.069C47.6839 106.323 46.8901 105.814 45.9963 105.652C35.7033 103.853 26.2959 98.6802 19.2474 90.9449C12.199 83.2095 7.90746 73.3479 7.04504 62.9046C6.18262 52.4612 8.79798 42.0259 14.4815 33.2329C20.1651 24.4398 28.5958 17.7857 38.4534 14.3125L37.2326 16.4859C37.0039 16.8811 36.8557 17.3179 36.7967 17.771C36.7376 18.2241 36.7688 18.6844 36.8884 19.1253C37.008 19.5662 37.2137 19.9789 37.4936 20.3395C37.7734 20.7 38.1219 21.0013 38.5187 21.2258C38.9155 21.4503 39.3527 21.5936 39.8052 21.6473C40.2576 21.7011 40.7162 21.6642 41.1543 21.5389C41.5924 21.4136 42.0013 21.2023 42.3574 20.9172C42.7135 20.6322 43.0096 20.2791 43.2286 19.8784L48.4011 10.6558C48.7086 10.1143 48.8647 9.49956 48.853 8.87648V8.87736Z" fill="#595BB5"/>
<path d="M95.1298 23.8469C86.9411 14.1769 75.629 7.6953 63.1648 5.53147C62.2681 5.38705 61.3507 5.60347 60.6121 6.13368C59.8736 6.66389 59.3735 7.46505 59.2207 8.363C59.0678 9.26095 59.2745 10.1831 59.7958 10.9291C60.3172 11.675 61.111 12.1844 62.0047 12.3466C72.2995 14.1444 81.7089 19.3163 88.7589 27.0522C95.809 34.7881 100.101 44.651 100.964 55.0958C101.826 65.5407 99.2099 75.9774 93.5246 84.771C87.8394 93.5647 79.4064 100.219 69.5467 103.69L70.7667 101.514C70.9914 101.119 71.136 100.684 71.1923 100.232C71.2487 99.7812 71.2155 99.3232 71.0949 98.8849C70.9742 98.4465 70.7684 98.0364 70.4893 97.678C70.2101 97.3196 69.8632 97.0201 69.4683 96.7966C69.0734 96.5731 68.6384 96.4301 68.1882 96.3757C67.7381 96.3213 67.2816 96.3567 66.8451 96.4797C66.4086 96.6028 66.0006 96.8111 65.6446 97.0927C65.2886 97.3744 64.9916 97.7238 64.7707 98.1209L59.6008 107.343C59.1592 108.128 59.0384 109.055 59.2638 109.928C59.4891 110.801 60.0431 111.553 60.8094 112.025L69.8533 117.503C70.6355 117.966 71.5688 118.101 72.4497 117.878C73.3307 117.655 74.088 117.091 74.5569 116.311C75.0258 115.53 75.1681 114.595 74.953 113.71C74.7379 112.824 74.1828 112.06 73.4085 111.583L71.3957 110.365C79.7387 107.501 87.2579 102.636 93.2994 96.1935C99.3409 89.7509 103.722 81.9257 106.061 73.3982C108.4 64.8707 108.627 55.8992 106.722 47.2637C104.817 38.6282 100.838 30.5902 95.1298 23.8486V23.8469Z" fill="#6090CF"/>
<path d="M54.0011 63.1484L56.25 68.6127L54.0011 74.8439C53.5488 74.8435 53.101 74.7538 52.6833 74.5799C52.2656 74.406 51.8861 74.1513 51.5665 73.8302C51.2469 73.5092 50.9935 73.1282 50.8207 72.709C50.648 72.2898 50.5592 71.8405 50.5596 71.3869V66.6046C50.5593 65.6886 50.9217 64.8101 51.5671 64.162C52.2124 63.5139 53.0879 63.1493 54.0011 63.1484Z" fill="#E6F7FF"/>
<path d="M57.4416 66.6055V71.3877C57.4419 71.8414 57.3532 72.2906 57.1804 72.7099C57.0076 73.1291 56.7542 73.5101 56.4347 73.8311C56.1151 74.1522 55.7356 74.4069 55.3178 74.5808C54.9001 74.7547 54.4523 74.8444 54 74.8448V63.1484C54.9134 63.1493 55.789 63.514 56.4344 64.1623C57.0798 64.8106 57.442 65.6894 57.4416 66.6055Z" fill="#CCEEFF"/>
</svg>
