<svg width="34" height="34" viewBox="0 0 34 34" fill="none" xmlns="http://www.w3.org/2000/svg">
<path d="M12.7574 6.89783C12.7574 6.89783 13.0537 4.52699 10.7014 4.08245C10.7014 4.08245 8.4046 3.52676 7.03389 5.10119C7.03389 5.10119 7.12653 5.43457 7.66362 5.56423C7.66362 5.56423 6.34853 5.95324 5.94102 7.84253C5.88642 8.09376 5.80166 8.33747 5.68859 8.56836C5.68859 8.56836 5.41621 9.22187 5.0626 9.39873C5.0626 9.39873 5.32615 9.78341 6.28935 9.67226C6.22828 10.0559 6.2033 10.4444 6.21474 10.8327C6.21474 10.8327 7.80623 11.5539 9.59003 10.3244L12.7574 6.89783Z" fill="#FFF09F"/>
<path d="M12.7574 6.89787C12.8033 6.36613 12.7089 5.83165 12.4834 5.3479C12.5164 5.74611 12.4144 6.20263 11.41 6.17827C11.0531 6.16566 10.6976 6.22705 10.3656 6.35858C9.70572 6.63291 9.14365 7.0995 8.75256 7.69764C8.4116 8.22652 7.87964 8.60336 7.26761 8.74956C6.73553 8.86303 6.18093 8.79938 5.6884 8.5683C5.53312 8.88403 5.2945 9.22162 4.94031 9.39848C4.94031 9.39848 5.23667 9.88003 6.19987 9.76887C6.15062 10.1434 6.13205 10.5212 6.14434 10.8988C6.14434 10.8988 7.8118 11.6395 9.59003 10.3246L12.7574 6.89787Z" fill="#FFAF5F"/>
<path d="M11.9032 13.9019C11.9032 13.9019 13.5316 15.1357 14.8597 15.2062V17.6497C14.8597 17.6497 13.4171 18.1455 12.3323 17.756L11.9032 13.9019Z" fill="#C0D1E0"/>
<path d="M14.8597 15.2065C15.3 15.2105 15.7364 15.1229 16.141 14.9493C16.5457 14.7757 16.9099 14.5198 17.2104 14.198C17.3898 14.0067 17.3753 13.6983 17.2967 13.4468C17.1809 13.0768 17.0881 12.4869 17.5301 12.1918L17.6149 11.323C17.6338 11.1154 17.7292 10.9223 17.8826 10.7812C18.0361 10.6402 18.2365 10.5613 18.4449 10.5599C18.667 10.5612 18.8796 10.6504 19.036 10.8082C19.1924 10.9659 19.2799 11.1792 19.2793 11.4013C19.2793 11.5611 19.2813 11.7343 19.2804 11.9181C19.2804 11.9181 19.3579 16.0215 14.8861 17.65L14.8597 15.2065Z" fill="#FFDCD2"/>
<path d="M9.46535 10.5955V12.7492L11.7169 14.2568V11.5353L9.78951 9.96899L9.46535 10.5955Z" fill="#FC9D9A"/>
<path d="M12.7574 6.89779C12.7574 6.89779 9.62705 6.28657 9.20102 9.21291C9.20102 9.21291 8.43827 8.95866 8.17529 9.58763C8.12092 9.72036 8.099 9.86415 8.11136 10.0071C8.12372 10.15 8.17 10.2878 8.24636 10.4093C8.44661 10.7283 8.89019 11.0704 9.84936 10.7318C10.2975 11.1946 10.8086 11.5921 11.3675 11.9125C11.7294 12.1276 12.1564 12.2058 12.5711 12.1331C12.6881 12.1113 12.8023 12.0767 12.9117 12.0297C13.3652 11.8346 13.752 11.2499 13.7941 10.7581C13.889 9.64613 13.5288 8.18382 12.7574 6.89779Z" fill="#FFDCD2"/>
<path d="M12.5047 20.306L12.4896 19.7779C12.3352 19.1353 12.343 16.9049 12.3354 14.8815C12.3346 14.6859 12.291 14.4929 12.2076 14.316C12.1242 14.1391 12.0031 13.9826 11.8527 13.8576L10.9583 13.1134C10.6546 12.8792 10.3452 12.6524 10.0304 12.4332C9.90472 12.346 9.76396 12.2829 9.61525 12.2469C9.11058 12.1242 7.92852 11.9606 6.83852 12.7276C5.40432 13.7369 4.73152 14.2566 4.73152 14.2566L6.41365 16.6053L7.19271 16.4105C7.32388 17.2303 7.38902 18.0593 7.3875 18.8895V22.1566C7.3875 22.2914 7.3171 22.4177 7.32113 22.5526C7.36957 24.1646 8.25067 24.451 8.25067 24.451V24.1093L12.5047 20.306Z" fill="white"/>
<path d="M12.4896 19.7779C10.7754 20.0545 9.65774 20.7794 8.98044 21.4101C8.90749 21.4769 8.81664 21.5209 8.71902 21.5369C8.6214 21.5528 8.52126 21.5399 8.43087 21.4998C8.34047 21.4596 8.26375 21.394 8.21011 21.3109C8.15647 21.2278 8.12823 21.1308 8.12887 21.0319C8.13846 19.5889 8.12379 18.0382 8.11448 17.2671C8.11274 17.1323 8.14366 16.999 8.2046 16.8788C8.26555 16.7585 8.3547 16.6548 8.46445 16.5765C8.68516 16.3842 8.9463 16.2439 9.22855 16.1661C9.25197 16.1596 9.27256 16.1455 9.2871 16.126C9.30165 16.1065 9.30934 16.0827 9.30897 16.0584C9.30859 16.0341 9.30018 16.0106 9.28504 15.9916C9.26991 15.9725 9.2489 15.959 9.22529 15.9532L9.22184 15.9524C8.10787 15.2939 6.68718 15.7388 5.92673 15.9252L6.41365 16.6049L7.19271 16.4101C7.19271 16.4101 7.24431 16.6968 7.29437 17.1655C7.29994 17.2177 7.3055 17.2725 7.31097 17.3291L7.31279 17.3478C7.35288 17.7671 7.3875 18.2994 7.3875 18.8891V22.1562C7.3875 22.291 7.31154 22.4176 7.32113 22.5522C7.37634 23.2807 7.70907 23.9602 8.25067 24.4506V24.1088L12.5047 20.3056L12.4896 19.7779Z" fill="#C0D1E0"/>
<path d="M4.73152 14.2567L2.47001 15.9393C2.29265 16.0713 2.14674 16.2409 2.04276 16.436C1.93878 16.6311 1.87933 16.8468 1.86867 17.0676L1.61835 22.2543C1.60572 22.3963 1.64172 22.5385 1.72047 22.6574C1.79922 22.7763 1.91603 22.8649 2.05176 22.9088L2.35962 23.01C2.79121 23.1691 3.12804 22.8743 3.17877 22.4169L3.28619 21.6476L3.67078 21.2594C3.7466 21.2027 3.80968 21.1308 3.85593 21.0482C3.90219 20.9656 3.9306 20.8742 3.93932 20.7799V20.5831C3.9562 20.4454 3.9321 20.3057 3.87004 20.1816C3.80799 20.0575 3.71072 19.9545 3.59041 19.8854L3.35783 19.7779L3.50093 18.5703C3.53617 18.3506 3.62147 18.1419 3.75022 17.9604C3.87897 17.7789 4.04773 17.6295 4.24345 17.5236L6.37452 16.5508L4.73152 14.2567Z" fill="#FFDCD2"/>
<path d="M23.753 10.3268L24.1038 9.91855C24.1376 9.8791 24.1795 9.84727 24.2266 9.82517C24.2736 9.80307 24.3248 9.79119 24.3768 9.79033C24.4288 9.78947 24.4804 9.79964 24.5282 9.82017C24.576 9.8407 24.6188 9.87113 24.654 9.90944L25.3694 10.6873C25.428 10.7511 25.4623 10.8335 25.4662 10.9201C25.47 11.0067 25.4432 11.0919 25.3905 11.1607L25.2314 11.3682C25.1922 11.4191 25.1405 11.459 25.0812 11.4838C25.0219 11.5086 24.9572 11.5175 24.8935 11.5097C24.6568 11.4796 24.4296 11.3979 24.228 11.2704C24.0263 11.1429 23.8551 10.9727 23.7264 10.7718C23.6814 10.705 23.6597 10.6252 23.6645 10.5448C23.6693 10.4644 23.7004 10.3878 23.753 10.3268Z" fill="#EA9387"/>
<path d="M31.4985 5.7109C31.4986 6.36382 31.3162 7.00377 30.9719 7.55852C30.6276 8.11327 30.1351 8.56072 29.5499 8.85035C29.5499 8.85035 27.603 9.19648 27.4138 9.16474C26.7553 9.05372 26.1423 8.75675 25.647 8.30884C25.1517 7.86092 24.7947 7.28074 24.6182 6.63668C24.4418 5.99262 24.4531 5.31153 24.6509 4.67369C24.8487 4.03586 25.2247 3.46787 25.7347 3.03668C26.2446 2.60549 26.8672 2.32908 27.529 2.24002C28.1909 2.15097 28.8644 2.25299 29.4702 2.53405C30.0759 2.81511 30.5887 3.2635 30.9481 3.82636C31.3075 4.38923 31.4984 5.0431 31.4985 5.7109Z" fill="#ECF7FF"/>
<path d="M29.5496 8.84965L28.8543 7.37209H27.1381L26.4427 8.84965C26.7492 9.00189 27.0764 9.10814 27.4138 9.16499C27.6033 9.19636 29.5496 8.84965 29.5496 8.84965ZM24.4943 5.70914L26.1254 5.74194L26.5063 4.97324L26.8871 4.20444L25.8727 2.92676C25.4441 3.253 25.0967 3.67387 24.8576 4.15651C24.6185 4.63916 24.4942 5.17052 24.4943 5.70914ZM30.12 2.92676L29.1057 4.20444L29.4865 4.97324L29.8673 5.74194L31.4984 5.70914C31.4985 5.17052 31.3742 4.63914 31.1351 4.1565C30.896 3.67385 30.5486 3.25299 30.12 2.92676Z" fill="#80919B"/>
<path d="M11.835 13.8212C11.5482 13.5786 11.2559 13.3426 10.9583 13.1134V16.614C10.9583 16.7684 10.8309 16.6357 10.3204 16.7165C10.2446 16.7284 10.1756 16.7669 10.1257 16.8251C10.0757 16.8832 10.048 16.9573 10.0476 17.0339L10.0432 18.094C10.0424 18.2803 10.2653 18.4559 10.7943 18.6183C10.8417 18.6328 10.8832 18.6621 10.9127 18.7019C10.9422 18.7417 10.9582 18.7899 10.9583 18.8395V21.2597L11.4578 21.2423L12.5047 20.3063L12.3505 14.8951C12.3449 14.6899 12.2961 14.4882 12.2072 14.3032C12.1184 14.1182 11.9916 13.9539 11.835 13.8212Z" fill="#F75E5E"/>
<path d="M30.6877 7.9512C30.0972 8.1747 29.4584 8.23885 28.8353 8.1372C28.2122 8.03555 27.6269 7.77168 27.1381 7.37211C26.6481 6.95252 26.3246 6.3716 26.125 5.74168C26.0221 5.359 25.9729 4.96389 25.9787 4.56767C25.9724 3.80121 26.2288 3.05571 26.7051 2.4552C25.994 2.73696 25.3947 3.24375 24.9988 3.89814C24.6028 4.55252 24.432 5.31854 24.5123 6.07916C24.5927 6.83979 24.9198 7.5532 25.4437 8.11042C25.9677 8.66764 26.6596 9.03803 27.4138 9.16501C27.6033 9.19676 29.5499 8.85044 29.5499 8.85044C29.9875 8.63302 30.375 8.32676 30.6877 7.9512Z" fill="#94A6C1"/>
<path d="M12.4896 19.7778C11.9661 19.8606 11.4529 19.9984 10.9583 20.189V21.2594L11.4578 21.242L12.5047 20.306L12.4896 19.7778Z" fill="#C44444"/>
<path d="M20.891 16.7705C20.891 16.7705 23.8047 14.628 26.6328 13.5139L27.0887 14.8713C27.0887 14.8713 25.1545 17.2415 21.6981 19.2696C21.6981 19.2695 20.3197 18.7414 20.891 16.7705Z" fill="#F75E5E"/>
<path d="M27.1755 14.9709L26.6328 13.5139C26.1634 13.6988 25.6919 13.9124 25.2316 14.1394C24.8423 14.9212 24.3213 15.6301 23.6916 16.2351C23.3444 16.5536 22.9802 16.8531 22.6006 17.1322C22.0379 17.56 21.4709 17.982 20.8995 18.3982C21.0641 18.8108 21.3769 19.1471 21.7766 19.341C25.233 17.3132 27.1755 14.9709 27.1755 14.9709Z" fill="#C44444"/>
<path d="M15.8349 19.1699C15.8349 19.1699 18.7486 17.9701 20.891 16.7704C20.891 16.7704 20.6417 18.3555 21.6981 19.2696C21.6981 19.2696 19.4866 21.0975 17.1727 23.3256C17.1727 23.3256 15.4306 23.3243 15.149 21.3978C14.8675 19.4713 15.8349 19.1699 15.8349 19.1699Z" fill="#FFDCD2"/>
<path d="M15.3236 22.0418C15.8647 23.3347 17.2631 23.369 17.2631 23.369C19.577 21.1409 21.7766 19.3409 21.7766 19.3409C21.4523 19.0514 21.211 18.6808 21.0774 18.2672C19.2888 19.5905 17.4294 20.8154 15.5075 21.9365C15.4465 21.9718 15.3852 22.0069 15.3236 22.0418Z" fill="#FC9D9A"/>
<path d="M8.21547 23.6435C8.21547 23.6435 9.05946 21.9771 10.5763 20.8764C11.1492 20.4493 11.8069 20.1499 12.5051 19.9983C15.1498 19.4841 15.8354 19.1699 15.8354 19.1699C15.8354 19.1699 14.587 22.0542 17.1732 23.3256C17.1732 23.3256 16.6731 24.047 15.3199 24.829C14.7543 25.15 14.3045 25.6414 14.0347 26.2331C13.7918 26.7764 13.7916 27.454 13.809 28.3398C13.809 28.3398 10.7179 28.0195 9.57468 29.3906C9.57468 29.3906 8.83533 27.8073 8.40173 26.8952C8.15727 26.3924 8.01495 25.8462 7.98298 25.288C7.95101 24.7299 8.03003 24.1709 8.21547 23.6435Z" fill="#80919B"/>
<path d="M13.3733 22.8473C12.6101 22.9936 11.7601 22.879 11.1706 22.3726C10.9599 22.1883 10.7961 21.9565 10.6927 21.6963C10.5893 21.4362 10.5493 21.1551 10.576 20.8765C9.04258 21.9806 8.10787 23.6547 8.10787 23.6547C7.75289 24.746 7.82953 25.9318 8.32203 26.9683C8.75572 27.8804 9.46535 29.5107 9.46535 29.5107C9.99418 28.8763 10.9631 28.5787 11.8519 28.4416C12.2721 27.5372 12.8743 26.7291 13.6208 26.0679C14.1508 25.6074 14.719 25.1929 15.3194 24.8289C16.6727 24.0472 17.2631 23.369 17.2631 23.369C16.4022 22.9703 15.9441 22.4019 15.7195 21.8117C15.6486 21.8529 15.5787 21.8959 15.5075 21.9368C14.834 22.3246 14.1366 22.7008 13.3733 22.8473Z" fill="#525C68"/>
<path d="M26.8079 12.7287C26.1491 12.9611 25.8379 13.7395 25.9566 14.428C26.0023 14.6784 26.0891 14.9194 26.2135 15.1415C26.7106 16.0526 27.7726 15.748 28.3308 15.4019C28.5568 15.2488 28.7653 15.0715 28.9529 14.8731C29.1813 14.6342 29.7052 14.238 30.7943 13.9817C31.7135 13.7655 32.1528 12.9858 32.4105 12.4253C32.5809 12.0544 32.4801 11.5557 32.2464 11.221C32.1271 11.049 31.9632 10.9127 31.7722 10.827C31.5812 10.7413 31.3704 10.7094 31.1626 10.7348C30.5716 10.8101 29.6547 10.9192 28.7225 11.6311C27.8821 12.2725 27.1998 12.5905 26.8079 12.7287Z" fill="#80919B"/>
<path d="M15.4469 15.8197L15.2779 15.1846C15.1393 15.2039 14.9993 15.2113 14.8595 15.2065V17.6501C19.0061 16.4865 19.2698 13.6834 19.2798 11.8981C19.0106 14.569 17.4314 15.696 16.1402 16.1722C16.0717 16.198 15.9986 16.2092 15.9255 16.2051C15.8525 16.201 15.7811 16.1818 15.7159 16.1487C15.6507 16.1155 15.5931 16.0691 15.5468 16.0125C15.5005 15.9558 15.4665 15.8902 15.4469 15.8197Z" fill="#FC9D9A"/>
<path d="M25.3694 10.6872L25.0926 10.3864C25.0664 10.5003 25.0198 10.6086 24.955 10.7059C24.8902 10.7959 24.8012 10.8656 24.6983 10.9068C24.5953 10.9481 24.4828 10.9591 24.3739 10.9388C24.1066 10.895 23.8592 10.7701 23.6652 10.5811C23.6672 10.6492 23.6884 10.7153 23.7264 10.7718C23.8551 10.9727 24.0263 11.1429 24.228 11.2704C24.4296 11.3978 24.6568 11.4795 24.8935 11.5096C24.9572 11.5175 25.0219 11.5086 25.0812 11.4837C25.1405 11.4589 25.1922 11.4191 25.2314 11.3682L25.3905 11.1606C25.4432 11.0918 25.47 11.0067 25.4662 10.9201C25.4623 10.8335 25.428 10.751 25.3694 10.6872Z" fill="#BC5F5A"/>
<path d="M25.9791 4.56799C25.9776 4.14843 26.0525 3.73211 26.2002 3.33941L25.8727 2.927C25.4441 3.25325 25.0967 3.67411 24.8576 4.15676C24.6185 4.6394 24.4942 5.17077 24.4943 5.70939L26.1254 5.74219C26.0225 5.35945 25.9733 4.96427 25.9791 4.56799ZM29.2336 8.17834C28.4652 8.14836 27.7284 7.86488 27.1381 7.37214L26.4427 8.8497C26.9256 9.08867 27.4571 9.213 27.996 9.213C28.5348 9.213 29.0663 9.08867 29.5492 8.8497L29.2336 8.17834Z" fill="#525C68"/>
<path d="M9.57458 29.5107C9.57458 29.5107 9.66685 30.8616 9.82903 31.9652H13.5959C13.8261 31.3802 13.9429 29.7694 13.8088 28.3399C13.2374 28.1342 12.6287 28.0525 12.0232 28.1001C12.0232 28.1001 10.3565 28.5048 9.57458 29.5107Z" fill="#FFDCD2"/>
<path d="M9.46535 29.5107C9.46535 29.5107 9.53958 30.8616 9.70205 31.9652H11.0129C11.0537 30.6175 11.399 29.2965 12.023 28.1013C11.2057 28.1682 10.2474 28.5045 9.46535 29.5107Z" fill="#FC9D9A"/>
<path d="M32.4104 12.4251C32.5808 12.0543 32.48 11.5555 32.2463 11.2209C32.156 11.0913 32.0401 10.9815 31.9057 10.8983C31.7714 10.8152 31.6214 10.7605 31.4651 10.7375C31.6849 11.0823 32.0073 11.8919 31.0518 12.8351C31.0518 12.8351 30.8109 13.1426 29.9923 13.3942C29.9923 13.3942 28.9565 13.6953 28.4909 14.3953C28.352 14.6163 28.167 14.8046 27.9485 14.9474C27.5999 15.1632 27.0424 15.3618 26.2582 15.2172C26.7718 16.035 27.7888 15.7379 28.3308 15.4018C28.5568 15.2487 28.7653 15.0713 28.9529 14.873C29.1813 14.6341 29.7052 14.2379 30.7943 13.9816C31.7134 13.7654 32.1528 12.9857 32.4104 12.4251Z" fill="#525C68"/>
<path d="M24.717 11.8482C24.7686 11.8574 24.8208 11.862 24.8731 11.862C25.0551 11.8615 25.2329 11.8072 25.3842 11.7061C25.5354 11.605 25.6535 11.4614 25.7236 11.2935C25.7936 11.1255 25.8125 10.9406 25.778 10.762C25.7434 10.5833 25.6569 10.4188 25.5293 10.2891L24.9387 9.68943C24.8596 9.60918 24.7644 9.54658 24.6595 9.50575C24.5545 9.46492 24.442 9.44679 24.3295 9.45256C24.217 9.45832 24.107 9.48784 24.0067 9.53918C23.9065 9.59052 23.8182 9.66252 23.7478 9.75043L23.6055 9.92795C23.4455 10.1275 23.3647 10.3791 23.3786 10.6346C23.3925 10.89 23.5001 11.1313 23.6808 11.3124C23.9648 11.5907 24.3257 11.7774 24.717 11.8482ZM24.189 10.3957L24.2587 10.3375C24.2988 10.3039 24.3501 10.2867 24.4023 10.2892C24.4546 10.2917 24.5039 10.3138 24.5406 10.3511L24.9891 10.8065C25.0187 10.8351 25.0379 10.8729 25.0434 10.9138C25.049 10.9547 25.0407 10.9962 25.0198 11.0318C25.0023 11.0605 24.9767 11.0835 24.9462 11.0978C24.9157 11.1121 24.8816 11.1171 24.8483 11.1121C24.6036 11.0685 24.378 10.9514 24.2015 10.7765C24.1529 10.7256 24.1248 10.6587 24.1225 10.5885C24.1202 10.5182 24.1439 10.4496 24.189 10.3957ZM25.6591 2.6214C24.9537 3.14177 24.4525 3.89256 24.2426 4.74365C24.1595 5.05847 24.1185 5.3829 24.1206 5.70848V5.71031C24.1208 6.43036 24.3215 7.13613 24.7004 7.74848C25.0792 8.36083 25.6211 8.85555 26.2653 9.17719C27.4665 9.77757 28.7266 9.51699 28.7266 9.51699L28.5648 9.6925C28.5296 9.72824 28.5019 9.77072 28.4834 9.81739C28.4649 9.86406 28.456 9.91397 28.4572 9.96416C28.4585 10.0143 28.4698 10.0638 28.4905 10.1095C28.5112 10.1552 28.5409 10.1963 28.5778 10.2303C28.6148 10.2643 28.6582 10.2905 28.7054 10.3074C28.7527 10.3243 28.8029 10.3315 28.853 10.3285C28.9031 10.3256 28.9521 10.3126 28.9971 10.2903C29.0421 10.2681 29.0822 10.237 29.1149 10.1989L30.6373 8.54563C30.6389 8.54381 30.64 8.5417 30.6415 8.53997C31.03 8.17817 31.3397 7.74023 31.5514 7.25346C31.7632 6.76669 31.8724 6.24152 31.8722 5.71069V5.70887C31.7882 3.77009 30.3473 2.62965 30.3473 2.62965C30.3431 2.62639 30.3384 2.62447 30.334 2.6214C29.6616 2.11116 28.8408 1.83496 27.9967 1.83496C27.1527 1.83496 26.3318 2.11116 25.6595 2.6214H25.6591ZM24.904 5.2369V5.2346C25.0084 4.5601 25.3309 3.93836 25.8222 3.46453L26.4465 4.25097L25.8954 5.3635L24.8901 5.34336C24.8946 5.30768 24.8987 5.2721 24.904 5.2369ZM24.892 6.09106L26.1178 6.11571H26.1254C26.1951 6.11569 26.2633 6.09623 26.3225 6.05951C26.3817 6.02279 26.4295 5.97028 26.4604 5.90788L27.222 4.37038C27.2535 4.3068 27.2662 4.23559 27.2588 4.16505C27.2513 4.09451 27.2239 4.02755 27.1798 3.97198L26.4176 3.01174C26.8962 2.73065 27.4412 2.58245 27.9963 2.58245C28.5514 2.58245 29.0965 2.73065 29.5751 3.01174L28.8129 3.97198C28.7688 4.02755 28.7414 4.09451 28.7339 4.16505C28.7264 4.23559 28.7392 4.3068 28.7707 4.37038L29.5324 5.90778C29.5633 5.97018 29.611 6.02271 29.6702 6.05945C29.7294 6.09618 29.7976 6.11567 29.8673 6.11571H29.8748L31.1007 6.09106C31.0452 6.54125 30.8925 6.974 30.6532 7.35936C30.4139 7.74472 30.0937 8.0735 29.7149 8.32293L29.1925 7.21299C29.1623 7.14882 29.1144 7.09456 29.0545 7.05654C28.9947 7.01851 28.9252 6.9983 28.8543 6.99825H27.1381C27.0672 6.99828 26.9977 7.01849 26.9378 7.05651C26.8779 7.09453 26.8301 7.1488 26.7998 7.21299L26.2778 8.32293C25.8989 8.07351 25.5788 7.74473 25.3395 7.35937C25.1003 6.97401 24.9476 6.54125 24.892 6.09106ZM31.0885 5.2346V5.2369C31.0938 5.2721 31.0981 5.30768 31.102 5.34327L30.0967 5.36341L29.5456 4.25088L30.17 3.46443C30.6614 3.9383 30.9839 4.56005 31.0885 5.2346ZM26.9463 8.65746L27.3753 7.74634H28.617L29.046 8.65746C28.5384 8.96485 27.3179 8.86059 26.9463 8.65746ZM22.5633 7.43636C22.4641 7.43636 22.369 7.47577 22.2988 7.54592C22.2287 7.61606 22.1893 7.7112 22.1893 7.8104C22.1893 7.9096 22.2287 8.00474 22.2988 8.07489C22.369 8.14504 22.4641 8.18444 22.5633 8.18444H22.851C22.9502 8.18444 23.0454 8.14504 23.1155 8.07489C23.1857 8.00474 23.2251 7.9096 23.2251 7.8104C23.2251 7.7112 23.1857 7.61606 23.1155 7.54592C23.0454 7.47577 22.9502 7.43636 22.851 7.43636H22.5633ZM30.5449 16.577C30.5449 16.4778 30.5054 16.3826 30.4353 16.3125C30.3652 16.2423 30.27 16.2029 30.1708 16.2029C30.0716 16.2029 29.9765 16.2423 29.9063 16.3125C29.8362 16.3826 29.7968 16.4778 29.7968 16.577V16.7705C29.7968 16.8697 29.8362 16.9648 29.9063 17.035C29.9765 17.1051 30.0716 17.1445 30.1708 17.1445C30.27 17.1445 30.3652 17.1051 30.4353 17.035C30.5054 16.9648 30.5449 16.8697 30.5449 16.7705V16.577ZM11.6718 25.7933C10.0253 25.7653 9.63204 24.9813 9.61103 24.9367C9.56992 24.849 9.49639 24.7806 9.40592 24.7461C9.31544 24.7115 9.21508 24.7133 9.12595 24.7512C9.03681 24.7891 8.96586 24.8602 8.92803 24.9493C8.89019 25.0385 8.88842 25.1389 8.92308 25.2293C8.94476 25.2813 9.4781 26.5038 11.6591 26.5408H11.6657C11.7623 26.5379 11.8541 26.4977 11.9218 26.4285C11.9894 26.3594 12.0276 26.2668 12.0284 26.17C12.0292 26.0733 11.9925 25.9801 11.926 25.9098C11.8595 25.8396 11.7684 25.7978 11.6718 25.7933ZM11.2858 9.29237H11.5934C11.6926 9.29237 11.7877 9.25296 11.8578 9.18282C11.928 9.11267 11.9674 9.01753 11.9674 8.91833C11.9674 8.81913 11.928 8.72399 11.8578 8.65384C11.7877 8.5837 11.6926 8.54429 11.5934 8.54429H11.2858C11.1866 8.54429 11.0914 8.5837 11.0213 8.65384C10.9511 8.72399 10.9117 8.81913 10.9117 8.91833C10.9117 9.01753 10.9511 9.11267 11.0213 9.18282C11.0914 9.25296 11.1866 9.29237 11.2858 9.29237Z" fill="#313844"/>
<path d="M27.4626 14.5609C27.669 14.5609 27.8364 14.3936 27.8364 14.1871C27.8364 13.9806 27.669 13.8132 27.4626 13.8132C27.2561 13.8132 27.0887 13.9806 27.0887 14.1871C27.0887 14.3936 27.2561 14.5609 27.4626 14.5609Z" fill="#313844"/>
<path d="M28.3091 13.3943C28.5155 13.3943 28.6829 13.2269 28.6829 13.0205C28.6829 12.814 28.5155 12.6466 28.3091 12.6466C28.1026 12.6466 27.9352 12.814 27.9352 13.0205C27.9352 13.2269 28.1026 13.3943 28.3091 13.3943Z" fill="#313844"/>
<path d="M28.8399 14.1872C29.0464 14.1872 29.2137 14.0198 29.2137 13.8133C29.2137 13.6068 29.0464 13.4395 28.8399 13.4395C28.6334 13.4395 28.466 13.6068 28.466 13.8133C28.466 14.0198 28.6334 14.1872 28.8399 14.1872Z" fill="#313844"/>
<path d="M29.6185 13.209C29.825 13.209 29.9923 13.0416 29.9923 12.8352C29.9923 12.6287 29.825 12.4613 29.6185 12.4613C29.412 12.4613 29.2446 12.6287 29.2446 12.8352C29.2446 13.0416 29.412 13.209 29.6185 13.209Z" fill="#313844"/>
<path d="M30.3952 12.236C30.6017 12.236 30.7691 12.0686 30.7691 11.8621C30.7691 11.6557 30.6017 11.4883 30.3952 11.4883C30.1888 11.4883 30.0214 11.6557 30.0214 11.8621C30.0214 12.0686 30.1888 12.236 30.3952 12.236Z" fill="#313844"/>
<path d="M30.9567 13.125C31.1632 13.125 31.3305 12.9576 31.3305 12.7512C31.3305 12.5447 31.1632 12.3773 30.9567 12.3773C30.7502 12.3773 30.5828 12.5447 30.5828 12.7512C30.5828 12.9576 30.7502 13.125 30.9567 13.125Z" fill="#313844"/>
<path d="M31.1449 10.3639L31.123 10.3667C30.5256 10.4426 29.5258 10.5697 28.5252 11.3339C27.6716 11.9861 27.0238 12.2666 26.7136 12.376C26.4622 12.4731 26.2371 12.628 26.0568 12.8283C25.8765 13.0286 25.7459 13.2686 25.6757 13.5288C23.2225 14.6483 20.9666 16.2743 20.7194 16.4548C18.6234 17.626 15.7513 18.8124 15.7226 18.8243C15.7208 18.825 15.7195 18.8261 15.7178 18.8268C15.716 18.8275 15.7136 18.8281 15.7115 18.8291C15.705 18.832 15.0732 19.1048 12.8871 19.5474L12.7557 14.9342C13.3038 15.2353 13.899 15.4415 14.516 15.5439V17.3692C14.2614 17.435 14.0022 17.4818 13.7407 17.5093C13.646 17.5198 13.5589 17.5661 13.4971 17.6387C13.4354 17.7113 13.4036 17.8047 13.4084 17.8999C13.4132 17.9951 13.4542 18.0849 13.5229 18.1509C13.5917 18.2169 13.683 18.2542 13.7783 18.2551C13.7911 18.2551 13.8038 18.2544 13.8167 18.2532C14.2193 18.2115 14.6166 18.1288 15.0023 18.0062C19.7078 16.6802 19.6922 13.3299 19.6834 11.5294L19.6828 11.3877C19.6812 11.0782 19.5608 10.7812 19.3466 10.5579C19.1324 10.3346 18.8406 10.202 18.5315 10.1874C18.2224 10.1729 17.9195 10.2776 17.6853 10.4799C17.4511 10.6821 17.3035 10.9666 17.2728 11.2745L17.2036 11.9733C16.8422 12.31 16.7586 12.8499 16.9703 13.5174C17.0213 13.6779 17.0158 13.8319 16.9567 13.9011C16.7058 14.1969 16.3929 14.4338 16.0401 14.5951C15.6873 14.7563 15.3034 14.8379 14.9155 14.834H14.9096C13.7884 14.7742 12.7353 14.0624 12.5982 13.9663C12.5435 13.9162 12.3764 13.7649 12.1208 13.548V12.5266C12.1806 12.5318 12.7865 12.5544 13.0895 12.3736C13.6184 12.0581 14.1414 11.4347 14.1965 10.7903C14.2999 9.57974 13.9166 8.10266 13.1707 6.81443C13.242 5.84173 12.8418 4.10551 10.8092 3.7166C10.6104 3.67038 8.25163 3.16753 6.78194 4.85551C6.74141 4.90213 6.71306 4.95806 6.69942 5.01831C6.68578 5.07856 6.68728 5.14125 6.70377 5.20078C6.74827 5.33717 6.82465 5.46099 6.92657 5.56197C6.45547 5.91203 5.86199 6.5736 5.60409 7.7713C5.55038 8.04627 5.30189 8.81459 4.80374 9.06366C4.75739 9.08688 4.71637 9.11947 4.68328 9.15938C4.65019 9.19929 4.62576 9.24564 4.61154 9.2955C4.59732 9.34535 4.59362 9.39761 4.60067 9.44897C4.60772 9.50033 4.62537 9.54966 4.65249 9.59384C4.68942 9.65388 4.99642 10.11 5.81605 10.1554C5.79909 10.4062 5.79413 10.6577 5.80118 10.909C5.80323 10.9795 5.82514 11.0479 5.86439 11.1065C5.90364 11.165 5.95862 11.2113 6.02302 11.2399C6.42616 11.3975 6.85509 11.4788 7.28795 11.4797H7.29361C7.39281 11.4804 7.48824 11.4417 7.55891 11.3721C7.62958 11.3025 7.66969 11.2076 7.67043 11.1084C7.67117 11.0092 7.63247 10.9138 7.56284 10.8431C7.49322 10.7724 7.39837 10.7323 7.29917 10.7316C7.04481 10.7282 6.79183 10.6934 6.546 10.628C6.54697 10.3594 6.56497 10.0911 6.5999 9.82479C6.60861 9.76793 6.60409 9.70984 6.58669 9.65502C6.5693 9.60019 6.53949 9.55012 6.49959 9.5087C6.4597 9.46727 6.41078 9.4356 6.35665 9.41615C6.30253 9.3967 6.24464 9.39 6.1875 9.39656C5.99722 9.42342 5.80364 9.41533 5.61627 9.37268C6.16295 8.79982 6.32944 7.95746 6.33645 7.92044C6.68785 6.29096 7.75751 5.93515 7.79962 5.92181C7.87838 5.89835 7.94723 5.84959 7.99551 5.78309C8.0438 5.71658 8.06883 5.63602 8.06675 5.55385C8.06466 5.47169 8.03557 5.39251 7.98398 5.32853C7.93238 5.26456 7.86115 5.21936 7.7813 5.19992C7.70678 5.18305 7.63495 5.15601 7.56781 5.11954C8.78584 4.02054 10.6245 4.44032 10.6434 4.44483C10.6495 4.44637 10.6557 4.44761 10.6619 4.44886C12.1285 4.72594 12.3891 5.87511 12.4225 6.47923C11.8606 6.44365 10.8622 6.4822 10.0483 7.05928C9.48577 7.45807 9.11125 8.03812 8.932 8.78687C8.54559 8.77623 8.08226 8.91155 7.86033 9.44279C7.78256 9.63068 7.751 9.83448 7.76829 10.0371C7.78557 10.2397 7.85121 10.4352 7.95969 10.6072C8.08171 10.8048 8.2529 10.9674 8.45654 11.0791C8.66017 11.1907 8.88929 11.2477 9.12152 11.2443V11.7833C8.24894 11.6948 7.37349 11.9214 6.65342 12.4222C5.24357 13.414 4.57606 13.9279 4.5351 13.9595L2.27685 15.6396C2.05488 15.8041 1.87228 16.016 1.7423 16.2599C1.61232 16.5037 1.5382 16.7734 1.52532 17.0494L1.275 22.2362C1.26316 22.4665 1.32548 22.6945 1.45278 22.8868C1.58009 23.079 1.76569 23.2254 1.98232 23.3044C1.98232 23.3044 2.46311 23.4569 2.58913 23.4569C2.85533 23.4561 3.11196 23.3575 3.31013 23.1798C3.50831 23.002 3.63418 22.7576 3.66378 22.4931L3.73552 21.8468L4.00147 21.6167C4.23132 21.4184 4.37352 21.1373 4.39709 20.8346L4.41531 20.6069C4.43314 20.3939 4.39121 20.1801 4.29423 19.9895C4.19726 19.7989 4.04908 19.6392 3.86634 19.5282L3.98987 18.6216C4.00911 18.4785 4.06378 18.3426 4.14892 18.2261C4.23405 18.1095 4.34695 18.0161 4.47737 17.9543L6.57056 16.9586L7.31336 16.773C7.31576 16.7724 7.31787 16.7711 7.32027 16.7704C7.32411 16.7695 7.32804 16.769 7.33187 16.7678L8.64044 16.3681C8.82199 16.313 9.01328 16.2976 9.20131 16.3229C9.2978 16.3327 9.39433 16.3047 9.47054 16.2447C9.54674 16.1847 9.59666 16.0974 9.60976 16.0013C9.62286 15.9052 9.59812 15.8078 9.54076 15.7296C9.4834 15.6514 9.3979 15.5985 9.3023 15.5821C9.00716 15.5424 8.70693 15.5666 8.42196 15.6531L7.12212 16.0505L6.59952 16.1811L5.27772 14.3356C5.60045 14.0951 6.19767 13.6569 7.08366 13.0334C8.23207 12.2252 9.48971 12.5793 9.7265 12.657C10.5169 13.201 11.2739 13.7921 11.9932 14.4271L12.1436 19.7074C11.8754 19.7812 11.6139 19.8776 11.3621 19.9957V18.3653C11.3621 18.2661 11.3227 18.171 11.2526 18.1008C11.1824 18.0307 11.0873 17.9913 10.9881 17.9913H10.4702V17.0255H10.9881C11.0873 17.0255 11.1824 16.9861 11.2526 16.9159C11.3227 16.8458 11.3621 16.7506 11.3621 16.6514V14.7908C11.3621 14.6916 11.3227 14.5965 11.2526 14.5263C11.1824 14.4562 11.0873 14.4168 10.9881 14.4168C10.8889 14.4168 10.7937 14.4562 10.7236 14.5263C10.6534 14.5965 10.614 14.6916 10.614 14.7908V16.2774H10.0961C9.99693 16.2774 9.90179 16.3168 9.83165 16.3869C9.7615 16.4571 9.72209 16.5522 9.72209 16.6514V18.3649C9.72209 18.4641 9.7615 18.5592 9.83165 18.6294C9.90179 18.6995 9.99693 18.7389 10.0961 18.7389H10.614V20.4146C9.16976 21.3647 8.20387 22.8225 7.90646 23.311C7.79353 23.036 7.7519 22.7369 7.78542 22.4416C7.78898 22.4207 7.79078 22.3995 7.79079 22.3784V18.8895C7.79079 18.524 7.77765 18.1471 7.75185 17.7691C7.75021 17.7189 7.73847 17.6696 7.71733 17.624C7.69619 17.5784 7.66609 17.5376 7.62882 17.5039C7.59156 17.4702 7.54789 17.4444 7.50042 17.4279C7.45295 17.4115 7.40265 17.4048 7.35253 17.4082C7.30242 17.4116 7.2535 17.4251 7.20871 17.4478C7.16391 17.4706 7.12416 17.5021 7.09181 17.5406C7.05947 17.579 7.0352 17.6235 7.02045 17.6716C7.00571 17.7196 7.00078 17.7701 7.00598 17.8201C7.03063 18.1812 7.04319 18.541 7.04319 18.8895V22.3518C7.00573 22.6878 7.03648 23.0279 7.1336 23.3517C7.23072 23.6755 7.3922 23.9764 7.60838 24.2363C7.44585 25.2192 7.5874 26.2283 8.01407 27.1286C8.39338 27.9265 8.99357 29.2961 9.12554 29.5987C9.14262 29.8833 9.21483 30.9965 9.35381 31.9649H10.1036C10.1042 31.9468 10.1033 31.9286 10.1011 31.9106C9.97519 31.0532 9.9023 30.0308 9.87775 29.6463C10.6834 28.8428 12.523 28.6909 13.4922 28.7018C13.5793 30.0208 13.4586 31.3692 13.2778 31.8278C13.2608 31.8715 13.2522 31.918 13.2525 31.9649H14.0209C14.2492 31.2229 14.3352 29.6511 14.212 28.3197C14.195 27.4502 14.2001 26.8448 14.4054 26.3853C14.6423 25.8651 15.0384 25.4335 15.5364 25.1529C16.8363 24.4017 17.4642 23.7377 17.5618 23.6296C19.7218 21.5504 21.8038 19.828 22.023 19.6475C23.734 18.6399 25.3139 17.4248 26.7268 16.0296C26.9025 16.074 27.0816 16.1037 27.2623 16.1185C27.8596 16.1185 28.3859 15.8264 28.5578 15.7199C28.8107 15.5502 29.0439 15.3528 29.2531 15.1316C29.4353 14.9408 29.8934 14.5849 30.9098 14.3458C31.9744 14.0954 32.487 13.219 32.78 12.5816C33.0273 12.0432 32.8591 11.403 32.5827 11.0071C32.4249 10.7786 32.2074 10.5977 31.9539 10.4843C31.7003 10.3709 31.4205 10.3292 31.1449 10.3639ZM15.2635 15.5669C16.1409 15.4804 16.9508 15.0579 17.5238 14.3878C17.7593 14.1138 17.8172 13.7139 17.6829 13.291C17.6087 13.0573 17.5208 12.6409 17.7654 12.48C17.8119 12.4494 17.851 12.4088 17.8799 12.3611C17.9087 12.3135 17.9265 12.26 17.932 12.2046L18.0168 11.3486C18.0285 11.2314 18.0846 11.1232 18.1737 11.0462C18.2628 10.9691 18.3779 10.9292 18.4956 10.9344C18.6132 10.9397 18.7243 10.9899 18.8061 11.0746C18.8879 11.1593 18.9341 11.2722 18.9352 11.3899C18.9352 11.3899 19.5504 15.9944 15.2635 17.1431V15.5669ZM5.87944 16.4598L4.15627 17.2795C3.91359 17.3945 3.70349 17.5682 3.54506 17.785C3.38662 18.0018 3.28488 18.2547 3.24907 18.5209L3.09226 19.6718C3.08242 19.7442 3.09404 19.818 3.12567 19.8839C3.15731 19.9498 3.20758 20.0051 3.27027 20.0427L3.47263 20.1641C3.5382 20.2031 3.59148 20.2598 3.62638 20.3276C3.66128 20.3955 3.6764 20.4718 3.67001 20.5478L3.65179 20.7755C3.64344 20.8825 3.59315 20.9819 3.51186 21.0521L3.13533 21.3781C3.06425 21.4398 3.01901 21.5259 3.00863 21.6194L2.92068 22.4111C2.91522 22.4616 2.89825 22.5102 2.87108 22.5532C2.84392 22.5962 2.80728 22.6324 2.76397 22.659C2.67574 22.7135 2.2406 22.6032 2.2406 22.6032C2.17356 22.5787 2.11612 22.5335 2.07672 22.474C2.03731 22.4145 2.01801 22.3439 2.02164 22.2727L2.27206 17.086C2.27974 16.9203 2.32416 16.7584 2.40213 16.612C2.48009 16.4656 2.58963 16.3384 2.72283 16.2396L4.67935 14.7842L5.87944 16.4598ZM11.373 12.9386C11.0086 12.653 10.3583 12.1129 9.86912 11.9194V11.2481C10.1383 11.4974 11.3181 12.2954 11.373 12.3216V12.9386ZM11.5846 11.5892C11.0577 11.2906 10.5767 10.9174 10.1565 10.4813C10.1214 10.4425 10.0786 10.4116 10.0309 10.3904C9.9831 10.3692 9.93144 10.3582 9.87919 10.3582C9.83766 10.3582 8.97631 10.7307 8.59297 10.2108C8.54608 10.1411 8.51756 10.0607 8.51007 9.97698C8.50258 9.8933 8.51634 9.80908 8.5501 9.73214C8.67036 9.44442 9.0422 9.5457 9.11279 9.56785C9.16466 9.5851 9.21967 9.59078 9.27397 9.58448C9.32827 9.57818 9.38052 9.56006 9.42706 9.53139C9.4736 9.50271 9.51329 9.46419 9.54333 9.41853C9.57338 9.37286 9.59305 9.32117 9.60096 9.26708C9.7055 8.54873 10.0003 8.01222 10.4771 7.67271C11.2015 7.15672 12.176 7.20103 12.5557 7.24266C12.7347 7.55962 12.8902 7.88932 13.0209 8.22907L12.8695 8.27635C12.7844 8.30321 12.7118 8.35959 12.6646 8.4353C12.6175 8.51102 12.5989 8.6011 12.6123 8.68929C12.6257 8.77748 12.6702 8.85797 12.7378 8.91624C12.8053 8.97451 12.8915 9.00673 12.9807 9.00708C13.0175 9.00708 13.2544 8.93994 13.2544 8.93994C13.4219 9.52001 13.4886 10.1245 13.4515 10.7272C13.4201 11.0951 13.1062 11.5528 12.7939 11.6873C12.7115 11.7223 12.1156 11.8918 11.5846 11.5892ZM17.0338 23.0999C17.0299 23.1037 17.0271 23.1082 17.0234 23.1122C17.0196 23.1161 17.0154 23.1189 17.012 23.1228C17.0063 23.1292 16.4343 23.7705 15.1624 24.5053C14.5281 24.8648 14.0243 25.4164 13.7238 26.0806C13.4916 26.6001 13.4536 27.1805 13.4598 27.9552C12.6343 27.9488 10.7534 28.0394 9.62705 28.8792C9.38181 28.3229 8.97487 27.4075 8.69012 26.8076C8.25047 25.8699 8.17526 24.8023 8.47913 23.8123C8.64696 23.5246 10.2856 20.8162 12.607 20.3649C13.9461 20.1046 14.7951 19.8927 15.3116 19.745C15.157 20.5063 15.0965 21.741 15.9158 22.811C15.9774 22.8858 16.0657 22.9337 16.1619 22.9447C16.2582 22.9557 16.3549 22.929 16.4319 22.8701C16.5088 22.8112 16.5598 22.7247 16.5743 22.6289C16.5888 22.5332 16.5655 22.4355 16.5094 22.3565C15.6737 21.2652 16.0214 19.8841 16.1618 19.4505C16.7318 19.2107 18.7897 18.3312 20.5518 17.3965C20.5955 17.9336 20.7538 18.6964 21.2582 19.3108C20.5662 19.8909 18.825 21.375 17.0338 23.0999ZM21.8646 18.8703C21.3241 18.2408 21.2796 17.3328 21.2856 16.969C21.7974 16.6054 23.6217 15.3443 25.6046 14.3881C25.6075 14.7205 25.7056 15.2465 26.1024 15.5954C24.8198 16.8456 23.3979 17.9444 21.8646 18.8702V18.8703ZM32.1006 12.2694C31.8539 12.8065 31.4762 13.4445 30.7387 13.618C29.5949 13.8873 29.0056 14.3086 28.7128 14.6149C28.5469 14.7902 28.3629 14.9476 28.1639 15.0844C27.873 15.2649 27.4446 15.4597 27.0888 15.3089C26.5625 15.086 26.3887 14.5594 26.355 14.3647C26.2697 13.8693 26.4735 13.2539 26.9624 13.0813C27.3142 12.9572 28.044 12.6425 28.9791 11.9284C29.8198 11.2863 30.6609 11.1794 31.2174 11.1086L31.2395 11.1057C31.3797 11.0887 31.522 11.1104 31.6507 11.1685C31.7795 11.2266 31.8899 11.3188 31.9699 11.4353C32.1466 11.6882 32.2028 12.0468 32.1006 12.2692V12.2694Z" fill="#313844"/>
</svg>
