<svg width="26" height="24" viewBox="0 0 26 24" fill="none" xmlns="http://www.w3.org/2000/svg">
<path d="M8 0H18C20.1217 0 22.1566 0.842855 23.6569 2.34315C25.1571 3.84344 26 5.87827 26 8V16C26 18.1217 25.1571 20.1566 23.6569 21.6569C22.1566 23.1571 20.1217 24 18 24H8C5.87827 24 3.84344 23.1571 2.34315 21.6569C0.842855 20.1566 0 18.1217 0 16V8C0 5.87827 0.842855 3.84344 2.34315 2.34315C3.84344 0.842855 5.87827 0 8 0Z" fill="#FFC107"/>
<path d="M16.7811 14.474C16.5239 14.4754 16.2696 14.5284 16.0334 14.6301C15.7972 14.7318 15.5838 14.8801 15.4061 15.0659L10.7521 12.7379C10.8672 12.3906 10.8672 12.0153 10.7521 11.6679L15.4151 9.29695C15.7488 9.64798 16.2011 9.86242 16.6841 9.89858C17.167 9.93474 17.6462 9.79006 18.0285 9.49263C18.4107 9.19521 18.6688 8.76626 18.7524 8.2892C18.8361 7.81215 18.7394 7.32103 18.4812 6.91127C18.223 6.50152 17.8217 6.2024 17.3552 6.07204C16.8887 5.94168 16.3904 5.98938 15.9572 6.20589C15.5239 6.4224 15.1867 6.79223 15.0109 7.24355C14.8351 7.69486 14.8334 8.19546 15.0061 8.64797L10.3891 10.9959C10.1397 10.6907 9.80205 10.4702 9.42239 10.3645C9.04274 10.2587 8.6397 10.273 8.26849 10.4054C7.89729 10.5378 7.5761 10.7817 7.349 11.1038C7.1219 11.4259 7 11.8103 7 12.2044C7 12.5985 7.1219 12.983 7.349 13.3051C7.5761 13.6272 7.89729 13.8711 8.26849 14.0035C8.6397 14.1359 9.04274 14.1502 9.42239 14.0445C9.80205 13.9387 10.1397 13.7181 10.3891 13.4129L14.9891 15.7309C14.8828 16.0225 14.8493 16.3356 14.8914 16.6431C14.9335 16.9505 15.05 17.2431 15.2307 17.4954C15.4114 17.7477 15.651 17.952 15.9285 18.0908C16.2061 18.2296 16.5134 18.2985 16.8236 18.2917C17.1339 18.2849 17.4378 18.2025 17.709 18.0517C17.9802 17.9009 18.2106 17.6862 18.3801 17.4263C18.5496 17.1663 18.6531 16.8689 18.6816 16.5599C18.7102 16.2509 18.663 15.9396 18.5441 15.653C18.3998 15.3039 18.1551 15.0055 17.8411 14.7956C17.527 14.5857 17.1578 14.4738 16.7801 14.474H16.7811Z" fill="white"/>
</svg>
