<svg width="158" height="158" viewBox="0 0 158 158" fill="none" xmlns="http://www.w3.org/2000/svg">
<path opacity="0.11" d="M79 158C122.63 158 158 122.63 158 79C158 35.3695 122.63 0 79 0C35.3695 0 0 35.3695 0 79C0 122.63 35.3695 158 79 158Z" fill="#3EB655"/>
<path opacity="0.34" d="M78.5 141C112.466 141 140 113.466 140 79.5C140 45.5345 112.466 18 78.5 18C44.5345 18 17 45.5345 17 79.5C17 113.466 44.5345 141 78.5 141Z" fill="#3EB655"/>
<path d="M78.5 124C103.077 124 123 104.077 123 79.5C123 54.9233 103.077 35 78.5 35C53.9233 35 34 54.9233 34 79.5C34 104.077 53.9233 124 78.5 124Z" fill="#3EB655"/>
<path d="M67.708 96.0381L58.82 86.5821C58.2649 85.9937 57.8313 85.3016 57.544 84.5455C57.2567 83.7893 57.1213 82.9839 57.1456 82.1754C57.1699 81.3668 57.3533 80.571 57.6855 79.8334C58.0176 79.0959 58.492 78.4311 59.0813 77.877C59.6707 77.3229 60.3635 76.8905 61.1201 76.6045C61.8768 76.3185 62.6824 76.1844 63.4909 76.2101C64.2994 76.2357 65.0949 76.4206 65.8319 76.754C66.5689 77.0874 67.2329 77.5628 67.786 78.1531L72.029 82.6651L90.064 62.0521C91.1494 60.8648 92.6565 60.1497 94.2626 60.0599C95.8687 59.9701 97.4462 60.5128 98.6571 61.5717C99.8681 62.6306 100.616 64.1216 100.741 65.7253C100.867 67.3291 100.359 68.9181 99.327 70.1521L76.827 95.8711C76.2619 96.5182 75.5675 97.0398 74.7886 97.4023C74.0097 97.7649 73.1635 97.9603 72.3045 97.976C71.4455 97.9917 70.5927 97.8274 69.8011 97.4937C69.0094 97.1599 68.2965 96.6641 67.708 96.0381Z" fill="white"/>
</svg>
