<svg width="117" height="117" viewBox="0 0 117 117" fill="none" xmlns="http://www.w3.org/2000/svg">
<g clip-path="url(#clip0_114_2715)">
<path d="M102.844 33.5274C105.294 28.4119 104.946 22.2138 100.742 18.0095L98.9914 16.2591C96.9872 14.2653 94.3865 12.9809 91.5851 12.6014C88.7837 12.2219 85.935 12.7681 83.4726 14.1569C79.9898 16.1071 72.6185 12.0513 72.0728 9.42482C70.927 3.90723 65.6023 0 59.6945 0L56.6864 0.15284C53.3557 0.322088 50.2172 1.76438 47.9195 4.18169C45.6219 6.599 44.3406 9.80659 44.3406 13.1416C44.5771 16.1455 39.4292 18.3689 36.439 16.4145C33.9745 13.95 30.6319 12.5654 27.1465 12.5654C23.6612 12.5654 20.3186 13.95 17.8541 16.4145L16.4145 17.8541C14.3429 19.9634 13.0335 22.7031 12.6933 25.64C12.3531 28.5768 13.0015 31.5433 14.536 34.0704C16.616 37.596 14.5881 43.8359 11.171 44.6761C4.95234 46.2045 0 50.7778 0 57.5164V59.692C0 65.6613 4.34696 70.1132 9.75527 72.031C15.3693 74.0213 14.9236 82.2525 14.3447 83.2387C12.8859 85.7466 12.2976 88.6667 12.6713 91.5439C13.0451 94.4211 14.3599 97.0939 16.411 99.1459L17.8541 100.584C19.9194 102.584 22.5723 103.869 25.4223 104.249C28.2724 104.628 31.1691 104.083 33.6862 102.694C37.362 100.774 44.2262 104.362 44.7957 107.296C45.8988 112.981 51.4147 116.998 57.4831 116.998H59.3556C62.183 116.998 64.937 116.098 67.2184 114.428C69.4997 112.757 71.1898 110.404 72.0438 107.708C73.1538 104.186 78.5468 100.621 83.9124 102.874C89.0133 105.02 95.2951 104.439 99.2817 100.453L100.591 99.1442C103.055 96.6797 104.44 93.3371 104.44 89.8518C104.44 86.3664 103.055 83.0238 100.591 80.5593C98.2853 78.4665 101.249 72.6944 103.863 72.6577C107.348 72.6564 110.69 71.2709 113.154 68.8059C115.617 66.341 117.001 62.9985 117 59.5135V57.2679C117 51.2243 112.987 45.834 107.342 44.5933C103.545 43.7582 101.614 36.0941 102.844 33.5274Z" fill="#595BB5"/>
<path d="M48.263 76.3609L33.0132 61.1111C32.5723 60.6779 32.2216 60.1617 31.9813 59.5923C31.741 59.0228 31.6158 58.4114 31.6131 57.7934C31.6103 57.1753 31.7301 56.5628 31.9653 55.9913C32.2006 55.4197 32.5467 54.9004 32.9838 54.4634C33.4208 54.0264 33.9401 53.6802 34.5117 53.4449C35.0832 53.2097 35.6957 53.09 36.3138 53.0927C36.9318 53.0955 37.5432 53.2206 38.1127 53.4609C38.6821 53.7012 39.1983 54.052 39.6314 54.4929L51.5726 66.434L77.3675 40.6391C78.2477 39.7743 79.434 39.2922 80.668 39.2976C81.902 39.3031 83.0839 39.7957 83.9565 40.6683C84.8291 41.5409 85.3217 42.7228 85.3272 43.9568C85.3326 45.1908 84.8505 46.377 83.9857 47.2573L54.8821 76.3617C52.9618 77.9994 49.5302 77.7663 48.263 76.3609Z" fill="white"/>
</g>
<defs>
<clipPath id="clip0_114_2715">
<rect width="117" height="117" fill="white"/>
</clipPath>
</defs>
</svg>
