<svg width="29" height="28" viewBox="0 0 29 28" fill="none" xmlns="http://www.w3.org/2000/svg">
<path d="M27.8131 14.6313L9.66306 24.6173C9.18524 24.8801 8.62262 24.9424 8.09888 24.7905C7.57515 24.6386 7.13315 24.2849 6.87006 23.8073L1.33906 13.7583C1.07628 13.2805 1.01399 12.7178 1.16588 12.1941C1.31777 11.6704 1.67141 11.2284 2.14906 10.9653L20.2981 0.975291C20.7759 0.712512 21.3385 0.650221 21.8622 0.80211C22.386 0.953999 22.828 1.30764 23.0911 1.78529L28.6231 11.8313C28.8858 12.3091 28.9481 12.8717 28.7962 13.3955C28.6444 13.9192 28.2907 14.3612 27.8131 14.6243V14.6313Z" fill="#FEBC1F"/>
<path d="M27.4171 13.9081L9.26707 23.8971C8.78924 24.1599 8.22662 24.2221 7.70289 24.0703C7.17915 23.9184 6.73716 23.5647 6.47406 23.0871L0.943065 13.0381C0.680285 12.5602 0.617994 11.9976 0.769883 11.4739C0.921773 10.9502 1.27541 10.5082 1.75306 10.2451L19.9021 0.255076C20.3799 -0.00770283 20.9425 -0.069994 21.4662 0.0818952C21.99 0.233784 22.432 0.587423 22.6951 1.06508L28.2261 11.1141C28.4888 11.5919 28.5511 12.1545 28.3992 12.6783C28.2474 13.202 27.8937 13.644 27.4161 13.9071L27.4171 13.9081Z" fill="#FFD475"/>
<path d="M19.903 0.254854L1.75404 10.2439C1.27639 10.5069 0.922749 10.9489 0.77086 11.4727C0.618971 11.9964 0.681262 12.559 0.944041 13.0369L6.47504 23.0869C6.47504 23.0869 1.32104 13.2309 21.738 0.183854C21.4477 0.0522762 21.1307 -0.00981429 20.8122 0.00251026C20.4936 0.0148348 20.1824 0.101235 19.903 0.254854Z" fill="#FEBC1F"/>
<path d="M2.56907 14.2701L3.26407 15.5321C3.34825 15.6848 3.48956 15.7978 3.65699 15.8463C3.82442 15.8949 4.00428 15.875 4.15707 15.7911L23.3021 5.25309C23.4547 5.16892 23.5677 5.0276 23.6163 4.86017C23.6649 4.69274 23.645 4.51289 23.5611 4.36009L22.8661 3.09809C22.7819 2.94543 22.6406 2.83242 22.4732 2.78386C22.3057 2.7353 22.1259 2.75516 21.9731 2.83909L2.82807 13.3771C2.67541 13.4613 2.5624 13.6026 2.51384 13.77C2.46528 13.9374 2.48514 14.1173 2.56907 14.2701Z" fill="#1D2943"/>
<path d="M2.37608 13.92L3.07108 15.182C3.15526 15.3347 3.29657 15.4477 3.464 15.4962C3.63143 15.5448 3.81128 15.5249 3.96408 15.441L23.1101 4.90299C23.2627 4.81882 23.3758 4.6775 23.4243 4.51007C23.4729 4.34265 23.453 4.16279 23.3691 4.00999L22.6741 2.74799C22.5899 2.59534 22.4486 2.48232 22.2812 2.43376C22.1137 2.3852 21.9339 2.40507 21.7811 2.489L2.63508 13.027C2.48242 13.1112 2.3694 13.2525 2.32084 13.4199C2.27228 13.5873 2.29215 13.7672 2.37608 13.92Z" fill="#4C5C75"/>
<path d="M24.528 27.2622H3.81603C3.27066 27.2622 2.7476 27.0456 2.36187 26.6601C1.97613 26.2745 1.7593 25.7516 1.75903 25.2062V13.7342C1.75903 13.1889 1.97565 12.666 2.36122 12.2804C2.7468 11.8948 3.26975 11.6782 3.81503 11.6782H24.528C25.0734 11.6782 25.5965 11.8948 25.9822 12.2803C26.3679 12.6659 26.5848 13.1888 26.585 13.7342V25.2052C26.5852 25.4754 26.532 25.7429 26.4287 25.9926C26.3254 26.2422 26.1739 26.469 25.9828 26.66C25.7918 26.8511 25.565 27.0026 25.3154 27.1059C25.0657 27.2092 24.7982 27.2624 24.528 27.2622Z" fill="#5094FF"/>
<path d="M3.81503 26.4399H24.528C25.0736 26.4399 25.5968 26.2232 25.9826 25.8375C26.3683 25.4517 26.585 24.9285 26.585 24.3829V12.9129C26.5848 12.3676 26.3679 11.8446 25.9822 11.4591C25.5965 11.0735 25.0734 10.8569 24.528 10.8569H3.81603C3.27048 10.8569 2.74728 11.0737 2.36151 11.4594C1.97575 11.8452 1.75903 12.3684 1.75903 12.9139V24.3829C1.75903 24.9285 1.97575 25.4517 2.36151 25.8375C2.55252 26.0285 2.77929 26.18 3.02885 26.2834C3.27842 26.3867 3.5449 26.4399 3.81503 26.4399Z" fill="#57B3FE"/>
<path d="M3.81512 10.8569H24.5311C25.0765 10.8569 25.5995 11.0735 25.9853 11.4591C26.371 11.8446 26.5879 12.3676 26.5881 12.9129V24.3829C26.5881 24.3829 26.3511 13.2639 2.17212 11.6779C2.36322 11.4229 2.61111 11.216 2.89613 11.0735C3.18115 10.931 3.49646 10.8568 3.81512 10.8569Z" fill="#5094FF"/>
<path d="M24.9771 22.7481V23.0671C24.9777 23.1709 24.9579 23.2738 24.9187 23.3699C24.8796 23.466 24.8218 23.5534 24.7488 23.6272C24.6758 23.701 24.589 23.7596 24.4933 23.7997C24.3975 23.8399 24.2949 23.8607 24.1911 23.8611H22.1001C21.9964 23.8606 21.8938 23.8396 21.7982 23.7994C21.7026 23.7592 21.6159 23.7006 21.543 23.6268C21.4701 23.5531 21.4124 23.4657 21.3733 23.3697C21.3342 23.2736 21.3144 23.1708 21.3151 23.0671V22.7481H21.3661C21.4356 22.5914 21.5494 22.4585 21.6935 22.3658C21.8376 22.273 22.0057 22.2245 22.1771 22.2261H24.1191C24.2905 22.2245 24.4586 22.273 24.6027 22.3658C24.7468 22.4585 24.8606 22.5914 24.9301 22.7481H24.9771Z" fill="#E3E7F0"/>
<path d="M24.1841 23.5449H22.1671C21.9685 23.5507 21.7742 23.4857 21.6191 23.3615C21.4639 23.2373 21.358 23.062 21.3201 22.8669C21.3044 22.7542 21.313 22.6394 21.3453 22.5303C21.3775 22.4211 21.4327 22.3201 21.5071 22.234C21.5815 22.1478 21.6734 22.0786 21.7767 22.0308C21.88 21.983 21.9923 21.9578 22.1061 21.9569H24.1151C24.3252 21.9506 24.5301 22.0234 24.689 22.1611C24.848 22.2987 24.9494 22.491 24.9731 22.6999C24.9805 22.8081 24.9656 22.9167 24.9293 23.0189C24.893 23.1211 24.8361 23.2148 24.7621 23.2941C24.6882 23.3734 24.5987 23.4367 24.4993 23.48C24.3998 23.5233 24.2926 23.5448 24.1841 23.5449Z" fill="white"/>
<path d="M18.9971 22.7481V23.0671C18.9979 23.1708 18.9782 23.2737 18.9392 23.3698C18.9001 23.4659 18.8424 23.5534 18.7695 23.6271C18.6966 23.7009 18.6098 23.7595 18.5141 23.7997C18.4185 23.8398 18.3159 23.8607 18.2121 23.8611H16.1201C16.0164 23.8606 15.9137 23.8396 15.8181 23.7994C15.7225 23.7593 15.6357 23.7006 15.5627 23.6269C15.4897 23.5532 15.4319 23.4658 15.3927 23.3697C15.3535 23.2737 15.3336 23.1709 15.3341 23.0671V22.7481H15.3851C15.4547 22.5915 15.5685 22.4587 15.7126 22.3659C15.8567 22.2732 16.0248 22.2246 16.1961 22.2261H18.1381C18.3095 22.2246 18.4775 22.2732 18.6216 22.3659C18.7657 22.4587 18.8795 22.5915 18.9491 22.7481H18.9971Z" fill="#E3E7F0"/>
<path d="M18.2051 23.5449H16.1871C15.9884 23.5509 15.7941 23.486 15.6389 23.3617C15.4837 23.2375 15.3778 23.0621 15.3401 22.8669C15.3245 22.7542 15.3331 22.6394 15.3653 22.5303C15.3975 22.4211 15.4527 22.3201 15.5271 22.234C15.6015 22.1478 15.6934 22.0786 15.7967 22.0308C15.9 21.983 16.0123 21.9578 16.1261 21.9569H18.1351C18.3454 21.9505 18.5504 22.0234 18.7095 22.161C18.8686 22.2986 18.9702 22.4909 18.9941 22.6999C19.0015 22.8081 18.9866 22.9167 18.9503 23.0189C18.914 23.1211 18.8571 23.2148 18.7832 23.2941C18.7092 23.3734 18.6197 23.4367 18.5203 23.48C18.4209 23.5233 18.3136 23.5448 18.2051 23.5449Z" fill="white"/>
<path d="M13.017 22.7481V23.0671C13.0177 23.1709 12.9979 23.2738 12.9587 23.3699C12.9195 23.466 12.8618 23.5534 12.7888 23.6272C12.7157 23.701 12.6289 23.7596 12.5332 23.7997C12.4375 23.8399 12.3348 23.8607 12.231 23.8611H10.14C10.0363 23.8606 9.93364 23.8396 9.838 23.7995C9.74235 23.7593 9.65556 23.7006 9.58257 23.6269C9.50958 23.5532 9.45183 23.4658 9.41262 23.3697C9.3734 23.2737 9.35349 23.1709 9.35401 23.0671V22.7481H9.40601C9.4755 22.5914 9.58931 22.4585 9.73342 22.3658C9.87753 22.273 10.0456 22.2245 10.217 22.2261H12.159C12.3304 22.2245 12.4985 22.273 12.6426 22.3658C12.7867 22.4585 12.9005 22.5914 12.97 22.7481H13.017Z" fill="#E3E7F0"/>
<path d="M12.224 23.5449H10.207C10.0084 23.5507 9.81414 23.4857 9.65899 23.3615C9.50384 23.2373 9.39788 23.062 9.36002 22.8669C9.34437 22.7542 9.35295 22.6394 9.38519 22.5303C9.41743 22.4211 9.47259 22.3201 9.54699 22.234C9.62138 22.1478 9.7133 22.0786 9.8166 22.0308C9.9199 21.983 10.0322 21.9578 10.146 21.9569H12.155C12.3653 21.9505 12.5703 22.0234 12.7294 22.161C12.8884 22.2986 12.99 22.4909 13.014 22.6999C13.0214 22.8081 13.0065 22.9167 12.9702 23.0189C12.9339 23.1211 12.877 23.2148 12.8031 23.2941C12.7291 23.3734 12.6396 23.4367 12.5402 23.48C12.4407 23.5233 12.3335 23.5458 12.225 23.5459L12.224 23.5449Z" fill="white"/>
<path d="M7.03703 22.7481V23.0671C7.03782 23.1708 7.01812 23.2737 6.97907 23.3698C6.94001 23.4659 6.88236 23.5534 6.80942 23.6271C6.73649 23.7009 6.64971 23.7595 6.55406 23.7997C6.45841 23.8399 6.35577 23.8607 6.25203 23.8611H4.16003C4.05629 23.8606 3.95366 23.8396 3.85802 23.7995C3.76237 23.7593 3.67557 23.7006 3.60259 23.6269C3.5296 23.5532 3.47185 23.4658 3.43263 23.3697C3.39342 23.2737 3.37351 23.1709 3.37403 23.0671V22.7481H3.42503C3.49452 22.5914 3.60833 22.4585 3.75244 22.3658C3.89655 22.273 4.06466 22.2245 4.23603 22.2261H6.17803C6.34941 22.2245 6.51752 22.273 6.66163 22.3658C6.80574 22.4585 6.91955 22.5914 6.98903 22.7481H7.03703Z" fill="#E3E7F0"/>
<path d="M6.24406 23.5449H4.22606C4.02736 23.5509 3.83303 23.486 3.67784 23.3617C3.52265 23.2375 3.41673 23.0621 3.37906 22.8669C3.36341 22.7542 3.37199 22.6394 3.40423 22.5303C3.43647 22.4211 3.49164 22.3201 3.56603 22.234C3.64043 22.1478 3.73234 22.0786 3.83565 22.0308C3.93895 21.983 4.05125 21.9578 4.16506 21.9569H6.17906C6.38932 21.9505 6.5943 22.0234 6.7534 22.161C6.91249 22.2986 7.01409 22.4909 7.03806 22.6999C7.04546 22.8081 7.03055 22.9167 6.99426 23.0189C6.95797 23.1211 6.90108 23.2148 6.82711 23.2941C6.75313 23.3734 6.66366 23.4367 6.56422 23.48C6.46479 23.5233 6.35752 23.5458 6.24906 23.5459L6.24406 23.5449Z" fill="white"/>
<path d="M3.37109 14.479V16.398C3.37109 16.6304 3.46339 16.8532 3.62767 17.0175C3.79195 17.1817 4.01476 17.274 4.24709 17.274H7.84009C8.07242 17.274 8.29524 17.1817 8.45952 17.0175C8.6238 16.8532 8.71609 16.6304 8.71609 16.398V14.479C8.71609 14.2467 8.6238 14.0239 8.45952 13.8596C8.29524 13.6953 8.07242 13.603 7.84009 13.603H4.24709C4.01476 13.603 3.79195 13.6953 3.62767 13.8596C3.46339 14.0239 3.37109 14.2467 3.37109 14.479Z" fill="#FEBC1F"/>
<path d="M3.37109 14.1802V16.0992C3.37109 16.3315 3.46339 16.5543 3.62767 16.7186C3.79195 16.8829 4.01476 16.9752 4.24709 16.9752H7.84009C8.07242 16.9752 8.29524 16.8829 8.45952 16.7186C8.6238 16.5543 8.71609 16.3315 8.71609 16.0992V14.1802C8.71609 13.9479 8.6238 13.7251 8.45952 13.5608C8.29524 13.3965 8.07242 13.3042 7.84009 13.3042H4.24709C4.01476 13.3042 3.79195 13.3965 3.62767 13.5608C3.46339 13.7251 3.37109 13.9479 3.37109 14.1802Z" fill="#FFD475"/>
<path d="M5.95107 14.9322V13.3042H5.53507V14.9322H3.37207V15.3462H4.55507V16.9732H4.97107V15.3462H6.84407V16.9732H7.26007V15.3462H8.71607V14.9302L5.95107 14.9322Z" fill="#FEBC1F"/>
<path d="M24.597 16.3693H22.255C22.1594 16.3726 22.0658 16.3415 21.9911 16.2817C21.9164 16.2219 21.8656 16.1373 21.848 16.0433C21.8401 15.9891 21.844 15.9339 21.8593 15.8813C21.8746 15.8288 21.901 15.7802 21.9368 15.7387C21.9725 15.6973 22.0168 15.664 22.0665 15.6412C22.1162 15.6183 22.1703 15.6064 22.225 15.6063H24.564C24.6651 15.6026 24.7638 15.6375 24.8402 15.7037C24.9167 15.7699 24.9652 15.8627 24.976 15.9633C24.9796 16.0152 24.9724 16.0674 24.955 16.1164C24.9375 16.1655 24.9102 16.2105 24.8747 16.2486C24.8391 16.2866 24.7961 16.317 24.7484 16.3378C24.7006 16.3585 24.6491 16.3692 24.597 16.3693ZM24.597 14.7363H20.485C20.3894 14.7396 20.2958 14.7085 20.2211 14.6487C20.1464 14.5889 20.0956 14.5043 20.078 14.4103C20.0701 14.3561 20.074 14.3009 20.0893 14.2483C20.1046 14.1958 20.131 14.1472 20.1668 14.1057C20.2025 14.0643 20.2468 14.031 20.2965 14.0082C20.3462 13.9853 20.4003 13.9734 20.455 13.9733H24.563C24.6641 13.9696 24.7628 14.0045 24.8392 14.0707C24.9157 14.1369 24.9642 14.2297 24.975 14.3303C24.9786 14.3822 24.9714 14.4344 24.954 14.4834C24.9365 14.5325 24.9092 14.5775 24.8737 14.6156C24.8381 14.6536 24.7951 14.684 24.7474 14.7048C24.6996 14.7255 24.6491 14.7362 24.597 14.7363ZM23.972 5.84326C24.9491 7.09412 25.7539 8.47039 26.365 9.93526C25.3882 8.68439 24.5827 7.30811 23.972 5.84326ZM5.729 9.93426C7.15079 8.8445 8.69695 7.92741 10.335 7.20226C8.9132 8.29201 7.36705 9.20909 5.729 9.93426ZM17.511 25.4073C19.2897 25.1953 21.0873 25.1953 22.866 25.4073C21.0873 25.6194 19.2897 25.6194 17.511 25.4073Z" fill="white"/>
</svg>
